<?xml version="1.0" encoding="UTF-8"?><svg id="Layer_1" xmlns="http://www.w3.org/2000/svg" width="134.41mm" height="33.47mm" viewBox="0 0 381.01 94.88"><defs><style>.cls-1{fill:#4c71a0;stroke-width:0px;}</style></defs><path class="cls-1" d="M0,53v-1.8c5.33,0,6.84-1.8,6.84-5.33V7.56c0-3.46-1.51-4.54-6.84-4.54v-1.8h26.79c7.99,0,14.62,4.68,14.62,12.96,0,9.36-6.55,14.4-15.19,14.4h-14.83v17.28c0,3.53,1.58,5.33,7.49,5.33v1.8H0ZM11.38,26.79h13.61c7.63,0,11.45-6.77,11.45-12.6s-3.89-11.16-11.38-11.16h-8.57c-3.53,0-5.11,1.08-5.11,4.54v19.23Z"/><path class="cls-1" d="M86.4,36.22c0,9.29-5.18,17.93-16.42,17.93s-16.42-8.64-16.42-17.93,5.11-18.07,16.42-18.07,16.42,8.86,16.42,18.07ZM58.25,36.22c0,8.35,3.6,16.2,11.74,16.2s11.67-7.85,11.67-16.2-3.6-16.35-11.67-16.35-11.74,7.99-11.74,16.35Z"/><path class="cls-1" d="M97.63,53v-1.8c2.88,0,4.75-.94,4.75-3.74v-22.11c0-2.52-.72-3.31-4.39-3.31l-.36-1.08,9.07-3.53v8.93c4.46-3.82,10.01-8.93,14.76-8.93,2.09,0,3.74,1.73,3.74,3.38s-1.66,3.31-3.74,3.31c-2.38,0-2.88-1.94-4.54-1.94-2.09,0-6.55,3.74-10.22,6.77v18.51c0,2.81,1.08,3.74,4.82,3.74v1.8h-13.9Z"/><path class="cls-1" d="M134.71,21.03v-1.44c4.97-.43,7.92-4.1,8.28-12.53h1.51v11.88h9.72v2.09h-9.72v25.99c0,2.66,1.73,4.03,4.68,4.03,2.23,0,4.61-1.58,6.41-3.74l.86.65c-2.38,4.39-5.4,6.19-9.22,6.19-4.1,0-7.06-2.59-7.06-8.14v-24.99h-5.47Z"/><path class="cls-1" d="M167.69,53v-1.8c4.68,0,6.05-.79,6.05-4.39v-25.42h-6.05v-1.94h6.05v-4.9c0-6.7,4.54-14.26,11.52-14.26,2.66,0,4.75.94,4.75,3.67,0,1.22-1.44,2.59-3.17,2.59-2.81,0-3.24-2.09-5.83-2.09-1.87,0-2.95,2.3-2.95,8.14v6.84h8.28v1.94h-8.28v25.42c0,3.6,1.44,4.39,7.49,4.39v1.8h-17.86Z"/><path class="cls-1" d="M231.48,36.22c0,9.29-5.18,17.93-16.42,17.93s-16.42-8.64-16.42-17.93,5.11-18.07,16.42-18.07,16.42,8.86,16.42,18.07ZM203.33,36.22c0,8.35,3.6,16.2,11.74,16.2s11.67-7.85,11.67-16.2-3.6-16.35-11.67-16.35-11.74,7.99-11.74,16.35Z"/><path class="cls-1" d="M243.86,53v-1.8c3.53,0,4.75-1.37,4.75-4.39V8.28c0-2.16-1.08-3.38-4.75-3.38l-.29-1.01,9.36-3.31v46.23c0,3.02,1.44,4.39,5.04,4.39v1.8h-14.11Z"/><path class="cls-1" d="M268.92,53v-1.8c3.31,0,4.75-.65,4.75-3.53v-21.96c0-1.87-.79-3.24-4.82-3.24l-.22-1.08,9.36-3.24v29.52c0,2.88,1.08,3.53,4.82,3.53v1.8h-13.9ZM279.72,3.6c0,1.8-1.3,3.6-3.82,3.6s-3.74-1.8-3.74-3.6,1.15-3.6,3.74-3.6,3.82,1.8,3.82,3.6Z"/><path class="cls-1" d="M299.44,34.92c0,12.53,6.26,16.71,13.18,16.71,5.62,0,9.94-2.3,13.54-6.84l1.01.86c-3.17,4.68-7.42,8.5-15.55,8.5-10.01,0-16.78-7.2-16.78-18.07,0-10.01,6.48-17.93,16.42-17.93s15.41,6.12,15.41,16.78h-27.22ZM321.98,32.91c-.43-9-4.32-13.03-10.8-13.03-6.12,0-11.3,5.54-11.74,13.03h22.54Z"/><path class="cls-1" d="M96.65,82.49c1.23-2.75,2.59-4.43,3.15-5.35-1.34.24-2.31.56-3.17.85-.45.16-.34.38-.54.34-1.82-.48-.29-.8.27-1.01,2.05-.75,3.99-1.07,4.11-1.28,1.78-2.56,3.65-5.03,5.92-7.14,2.19-2.1,4.63-3.91,7.38-5.15,1.65-.74,3.89-1.54,5.35-1.01.93.32,1.38.78,1.36,1.82-.24,1.89-2.1,6.45-3.06,8.71,2.77-.11,4.42,0,4.74.02.91.03.48.24-.48.27-1.1.03-2.69.14-4.5.32-.16.34-.26.56-.29.66-1.39,3.46-1.78,4.53-2.46,6.13-.83,1.94-1.49,2.59-1.26,1.97.99-2.66,2.13-5.76,3.17-8.68-5.19.53-11.86,1.5-14.9,2.62-1.83,2.69-3.91,6.16-4.26,7.8-.11.24.02.67-.3.66-1.49-.02-.45-1.82-.22-2.55ZM116.56,73.32c1.6-4.51,2.88-8.44,2.87-9.19-.02-.58-.18-1.04-.75-1.06-1.42.06-2.71.61-3.97,1.15-5.04,2.32-9.57,7.09-12.45,11.25,6-1.42,10.88-1.97,14.31-2.16Z"/><path class="cls-1" d="M117.02,87.15c-.08-.18-.11-.35-.14-.53-.05-.24-.05-.46-.05-.69,0-.66.14-1.28.29-1.9.32-1.49.9-2.88,1.5-4.27-.14-.14-.32-.32-.45-.5-.19-.26-.18-.46.11-.61.4-.21.67-.46,1.07-.66.53-1.02,1.01-2,1.63-3.12,1.07-1.92,2.21-3.78,3.54-5.52.5-.64,1.06-1.25,1.73-1.74.19-.16.38-.29.62-.38.34-.14.64-.1.94.1.06.05.14.11.11.21-.02.08-.13.1-.19.08-.24-.05-.4.08-.58.21-.62.46-1.15,1.04-1.63,1.65-.91,1.15-1.68,2.39-2.45,3.63-.91,1.5-1.68,2.9-2.42,4.48,1.7-.51,2.83-.72,3.58-.85.91-.14,1.76-.13,1.06.02-1.58.34-3.62,1.01-5.07,1.68-.22.64-.5,1.22-.8,1.86.32.98.48,2.02.45,3.06-.05,1.25-.26,2.48-.77,3.65-.11.27-.27.53-.48.74-.14.14-.32.21-.51.21-.48-.02-.93-.32-1.1-.78ZM118.57,86.53c.5-1.22.69-2.48.72-3.79.02-.37-.05-.74-.08-1.1-.02-.16-.08-.37-.13-.5-.46,1.15-.88,2.37-1.14,3.6-.13.59-.24,1.17-.21,1.78.02.29.05.58.13.85.05.13.1.13.18.03.24-.26.4-.54.53-.86Z"/><path class="cls-1" d="M130.54,79.45c0-7.54,8.96-17.78,17.09-17.78,1.79,0,4.99.69,4.99,3.33,0,1.15-.74,2.38-1.62,3.68-.53.77-2.05,2.61-2.66,2.61-.35,0-.69-.11-.69-.27,0-.19.42-.27,1.67-1.86.96-1.22,2.22-3.06,2.22-4.66,0-1.33-1.1-2.27-3.35-2.27-7.78,0-16.65,10.84-16.65,18.01,0,3.52,2.29,5.46,5.81,5.46,1.47,0,2.95-.37,4.26-.99,4.02-1.78,7.15-4.5,10.61-6.9.7-.51,1.41-1.06,2.05-1.67.03-.06.19-.05.1.03-1.23,1.52-2.93,2.62-4.42,3.91-3.11,2.59-7.71,6.15-11.96,6.15s-7.47-2.11-7.47-6.77Z"/><path class="cls-1" d="M153.32,79.18c-.26-.16-.29-.46-.29-.72,0-1.47,2.37-3.75,4.21-3.71.45,0,.94.11,1.25.34-.05-.27.1-.34.27-.34.21.02.4.1.58.21.11.08.16.19.18.32.05.72.35,1.81.69,2.35.24.42.62.61,1.14.61,1.28,0,2.99-1.07,4.05-1.89.13-.1.27-.22.42-.34.03-.02.05-.03.08-.02.05.03,0,.06,0,.08-.08.19-.21.35-.34.5-.29.34-.66.62-1.02.88-.93.59-2.11,1.15-3.04,1.15-.72,0-1.34-.26-1.97-.78-.46-.4-.77-1.31-.98-2.03-1.18,1.46-1.97,2.24-2.95,3.07-.24.19-.51.35-.78.48-.21.1-.4.14-.59.14-.3,0-.61-.11-.9-.3ZM156.7,77.11c.54-.48,1.04-1.07,1.55-1.63-.13-.16-.29-.29-.58-.27-1.33.05-3.62,2.54-3.62,3.49,0,.24.19.21.3.16.94-.38,1.73-1.2,2.34-1.74Z"/><path class="cls-1" d="M164.3,79.08s0-.11.02-.16c.19-1.17,1.07-2.96,1.57-3.78.18-.29.9-.21,1.1-.02.1.08.1.16.05.26-.1.13-.19.32-.26.43-.29.48-.69,1.42-1.07,2.53.37-.42.77-.83,1.1-1.25.69-.83,1.36-1.65,2.03-2.48.26-.3.7-.32.96,0,.5.62.62.91.98,1.34.32.38.85.54,1.5.56.82.02,1.68,0,2.64-.32.03,0,.08-.02.13-.02.02,0,.03.02.05.02.02.03,0,.05-.02.06-.16.14-.35.24-.56.3-.5.18-1.7.45-2.32.43-.77-.02-1.58-.38-2.29-1.01-.22-.21-.43-.43-.64-.66-.13-.16-.34.02-.48.18-.19.19-1.34,1.55-1.82,2.11-.4.45-1.26,1.55-1.63,1.92-.11.1-.18.18-.32.18-.21,0-.72-.35-.72-.64Z"/><path class="cls-1" d="M178.33,83.9c0-5.52,9.57-15.67,9.57-17.72,0-.08-.02-.14-.03-.19s-.06-.08-.13-.08c-.34,0-1.2.51-1.3.54-2.91,1.57-6.88,5.23-8.45,7.4-.61.77-1.02,1.52-1.18,1.98-.19.51-.32,1.79-.91,2.8-.45.77-.96,1.09-1.39,1.09-.72,0-1.22-.7-1.22-1.02,0-.18,0-.34.02-.51.24-1.5,2.11-3.27,2.53-3.27.1-.02.14,0,.19,0,.3.05.45.06.61.1,1.71-3.49,8.92-9.35,11.06-9.35.5,0,.8.26.8.83,0,1.97-3.12,6.13-3.55,6.75-4.19,6.16-5.63,8.79-5.63,11.8,0,.54.26,1.28.64,1.28.34,0,.02.32-.27.32-.78,0-1.34-1.52-1.34-2.75ZM176.15,75.71c-.88.78-1.78,2.05-1.92,2.85-.05.27-.05.62.14.66.58.1,1.62-1.71,1.78-3.51Z"/><path class="cls-1" d="M186.22,78.25c.14-.8.5-1.5,1.02-2.14.21-.27.9-.21,1.1-.02.1.08.1.16.05.26-.1.13-.18.26-.26.37-.38.56-1.04,1.75-.96,2.5.03.21.21.35.48.35,1.52,0,6.82-4.87,7.79-4.87.38,0,.8.53.71.99-.11.56-1.39,2.39-1.5,3.59.99-.64,3.31-3.3,4.32-3.3.11,0,.24.03.34.1.58.29.83.91,1.17,1.44.3.45.61,1.41,1.25,1.41,1.34,0,2.75-1.12,4.07-2.26.03-.02.05-.03.06-.03.08,0,.11.1.03.18-.93,1.3-2.88,2.58-3.99,2.5-1.95-.16-2.51-1.7-2.82-2.45-.1-.27-.16-.38-.27-.38-.13,0-.43.26-.62.42-.91.7-2.43,2.26-3.33,2.9-.18.13-.35.18-.53.18-.16,0-.32-.03-.48-.1-.37-.11-.4-.5-.4-.99,0-.72,1.26-2.77,1.41-3.36-1.25.8-5.41,4.45-6.93,4.45-.77-.02-1.92-.51-1.71-1.71ZM188.92,73.8c.32-.54.72-1.57.86-2.35.05-.19.1-.27.3-.22.29.06.64.37.59.82-.03.43-.86,1.52-1.52,1.87-.24.11-.37.11-.24-.11Z"/><path class="cls-1" d="M205.05,78.32c0-.83.45-1.81,1.55-2.8.58-.45,1.36-.91,2.14-.9.46.02,1.07.27,1.07.75,0,.13-.03.27-.13.42-.48.75-2.06,1.68-3.46,2.11-.11.27-.18.58-.18.88,0,.74.42,1.31,1.52,1.31,1.28,0,2.99-1.07,4.05-1.89.13-.1.27-.22.42-.34.03-.02.05-.03.08-.02.05.03,0,.06,0,.08-.08.19-.21.35-.34.5-.29.34-.66.62-1.02.88-.93.59-2.08,1.17-3.01,1.15-1.67-.03-2.71-.91-2.71-2.14ZM208.81,75.93c.19-.18.37-.48.37-.69,0-.11-.06-.18-.19-.18s-.32.05-.59.21c-.88.45-1.49,1.22-1.97,2.1.83-.38,1.7-.78,2.38-1.44Z"/><path class="cls-1" d="M213.91,89.63c.56-3.46,2.06-6.74,3.38-9.96,1.12-2.77,9.48-19.06,11.25-18.39,2.1.13,2.11,2.27,2.35,3.79.22,2.39.26,4.77.32,7.16.08,4.11.02,8.52.78,10.84.08.18.53-.56.59-.59,1.58-2.29,2.72-4.83,4.02-7.3,2.46-4.91,5.09-9.78,8.44-14.17.34-.4,2.4-3.27,2.9-3.27.06,0,.1.06.1.19-.38.18-.5.56-.74.91-8.21,13.01-11.48,21.51-13.72,24.28-.43.54-.74.8-1.2.8-.16,0-.35-.03-.58-.1-.53-.16-.86-.5-1.04-1.02-.53-1.9-.61-3.87-.69-5.83-.16-3.43.05-13.78-1.09-15-.9.5-1.46,1.63-2.08,2.45-2.99,4.64-5.68,9.46-8.07,14.44-1.57,3.27-3.84,9-4.08,11.19-.05.13-.16.18-.27.18-.29,0-.67-.32-.58-.61Z"/><path class="cls-1" d="M235.32,94.71c-.93-.35-1.01-1.06-1.07-1.83,0-1.65,1.14-3.1,2.24-4.24,1.66-1.76,5.79-4.75,7.59-5.97.5-1.14,1.87-4.42,2.61-6.27-2.34,2.11-4.21,3.44-4.88,3.44-.46,0-1.04-.37-1.04-.83,0-.58.74-2.32,1.49-3.51.18-.29.9-.21,1.1-.02.1.08.1.16.05.26-.1.13-.18.26-.26.37-.08.14-.98,1.47-1.28,2.77-.08.32-.02.45.26.34,1.26-.53,3.65-2.48,4.72-3.57.34-.34.4-.61.54-.74.21-.19,1.09.21.8.5-.35.37-1.87,4.85-2.5,6.21l.96-.64c1.65-1.1,3.04-2.06,5.03-3.23l1.52-.9s.06-.05.11-.06c.02,0,.05,0,.06.02.05.03-.02.05-.03.05-.08.08-.16.14-.26.21-1.02.72-2.05,1.44-3.09,2.16l-4.59,3.22c-1.54,3.92-3.84,7.76-4.85,9.27-.98,1.52-2.5,3.19-4.31,3.19-.3,0-.62-.06-.93-.18ZM238.79,92.43c1.55-2.03,3.78-6.37,4.87-8.77-1.09.78-2.19,1.58-3.25,2.42-1.22.96-2.38,1.97-3.42,3.12-.64.7-1.22,1.44-1.62,2.3-.21.46-.34.96-.34,1.52.03.75.13,1.42.93,1.42.75,0,2.03-1.01,2.83-2.02Z"/><path class="cls-1" d="M251.17,80.12c.11-.3.22-.61.58-1.33.61-1.26,1.6-2.85,2.56-4.11.22-.27.9-.21,1.1-.02.1.08.14.19.05.26-.14.11-.26.26-.45.54-1.07,1.57-1.58,2.39-2.32,3.73,1.22-1.25,2.11-2.29,3.03-3.23.61-.62,1.25-1.31,1.97-1.81.3-.21.61-.19.93-.03.26.11.37.3.37.58.02.37-.38,2.43-.42,3.12.67-.51,1.36-.98,2.08-1.42.32-.21.66-.42.99-.59.29-.16.59-.16.9-.05.26.11.43.3.5.58.14.59.19,1.66.43,2.35.24.61.9.35,1.23.19,1.2-.54,2.08-1.17,3.23-1.79l.1-.08s.11-.06.14-.02c.05.05-.03.1-.06.13-.26.24-.53.45-.82.66-.72.51-1.46,1.01-2.22,1.44-.3.16-.59.3-.93.27-.72,0-1.41-.32-1.65-1.04-.24-.86-.21-1.22-.3-2.08-.02-.13-.1-.16-.21-.1-.34.21-.67.42-.99.64-.48.34-.96.67-1.41,1.06-.14.11-.3.22-.46.34-.43.3-.98.29-1.39-.06-.13-.1-.19-.24-.22-.4-.05-.42.02-.83.06-1.25.06-.59.26-1.15.38-1.71.03-.14-.06-.21-.18-.13-.37.26-.72.56-1.06.9-.8.82-1.58,1.65-2.35,2.5l-2.05,2.29c-.29.32-.61.35-.98.11-.19-.11-.24-.21-.16-.42Z"/><path class="cls-1" d="M267.46,79.18c-.26-.16-.29-.46-.29-.72,0-1.47,2.37-3.75,4.21-3.71.45,0,.94.11,1.25.34-.05-.27.1-.34.27-.34.21.02.4.1.58.21.11.08.16.19.18.32.05.72.35,1.81.69,2.35.24.42.62.61,1.14.61,1.28,0,2.99-1.07,4.05-1.89.13-.1.27-.22.42-.34.03-.02.05-.03.08-.02.05.03,0,.06,0,.08-.08.19-.21.35-.34.5-.29.34-.66.62-1.02.88-.93.59-2.11,1.15-3.04,1.15-.72,0-1.34-.26-1.97-.78-.46-.4-.77-1.31-.98-2.03-1.18,1.46-1.97,2.24-2.95,3.07-.24.19-.51.35-.78.48-.21.1-.4.14-.59.14-.3,0-.61-.11-.9-.3ZM270.84,77.11c.54-.48,1.04-1.07,1.55-1.63-.13-.16-.29-.29-.58-.27-1.33.05-3.62,2.54-3.62,3.49,0,.24.19.21.3.16.94-.38,1.73-1.2,2.34-1.74Z"/><path class="cls-1" d="M278.44,79.08s0-.11.02-.16c.19-1.17,1.07-2.96,1.57-3.78.18-.29.9-.21,1.1-.02.1.08.1.16.05.26-.1.13-.19.32-.26.43-.29.48-.69,1.42-1.07,2.53.37-.42.77-.83,1.1-1.25.69-.83,1.36-1.65,2.03-2.48.26-.3.7-.32.96,0,.5.62.62.91.98,1.34.32.38.85.54,1.5.56.82.02,1.68,0,2.64-.32.03,0,.08-.02.13-.02.02,0,.03.02.05.02.02.03,0,.05-.02.06-.16.14-.35.24-.56.3-.5.18-1.7.45-2.32.43-.77-.02-1.58-.38-2.29-1.01-.22-.21-.43-.43-.64-.66-.13-.16-.34.02-.48.18-.19.19-1.34,1.55-1.82,2.11-.4.45-1.26,1.55-1.63,1.92-.11.1-.18.18-.32.18-.21,0-.72-.35-.72-.64Z"/><path class="cls-1" d="M287.03,79.79c-.03-.53.06-1.02.27-1.63.42-1.06.98-2.03,1.58-2.98,1.39-2.16,2.93-4.13,4.79-5.92.74-.72,1.38-1.25,2.27-1.74.16-.1.34-.14.51-.1.22.05.13.32-.11.69-.35.56-.82,1.02-1.26,1.44-.18.14-.38.3-.56.43-.18.13-.34.1-.58-.05-2.71,2.79-4.77,5.92-5.76,8.98-.18.53-.16.85.42.22,1.06-1.09,4.15-4.24,5.76-4.24.32,0,.59.03.85.21.05.02.1.06.08.11-.02.06-.06.08-.11.1-.26.08-.51.14-.77.22-1.1.34-1.98,1.07-2.93,1.73.26.8,1.09,2.42,2.3,2.42,1.12,0,2.93-1.06,3.99-1.87.13-.1.27-.22.42-.34.03-.02.05-.03.08-.02.05.03,0,.06,0,.08-.08.19-.21.35-.34.5-.29.34-.66.62-1.02.88-.93.59-2.11,1.15-3.04,1.15-.88,0-1.63-.37-2.29-1.12-.29-.32-.56-.67-.77-1.06-.61.53-1.14,1.14-1.7,1.73-.24.26-.48.5-.77.7-.35.26-1.28,0-1.31-.53Z"/><path class="cls-1" d="M302.47,83.9c-.02-.06-.03-.14-.03-.21,0-1.89,5.81-3.57,5.94-3.62.26-.7.53-1.33.8-1.98.86-1.94,1.92-3.78,3.09-5.54,1.87-2.74,4.03-5.41,6.61-7.22.67-.48,1.01-.75,1.36-.75.16,0,.32.05.5.16.1.06.14.11.14.14,0,.14-.38.3-.5.43-4.18,3.04-7.73,8.32-9.35,11.7,1.09-.29,2.24-.42,3.35-.66,5.03-1.73,13.65-6.55,13.65-10.92,0-2.08-1.57-3.02-3.86-3.02-1.63,0-3.35.43-4.39.77-3.54,1.07-9.64,4.96-11.04,7.97-.03.16-.11.26-.27.26h-.05c-.42-.05-.59-.24-.59-.5,0-1.39,4.83-5.2,5.39-5.43,3.04-2.02,6.64-3.59,10.29-3.55,2.69-.06,5.67,1.07,5.67,3.71,0,4.58-8.45,9.3-13.11,10.68,3.73.46,5.14,1.73,5.14,3.17,0,1.68-1.97,3.63-4.32,4.82-1.65.88-5.63,1.89-9.03,1.89-2.61,0-4.83-.61-5.39-2.31ZM315.87,83.9c2.59-1.28,4.27-3.2,4.27-4.74,0-1.33-1.34-2.37-4.53-2.34-1.12-.05-2.16.42-3.27.7-1.15.27-1.54.26-1.87.43-.21.38-.37,1.01-.69,1.71.99-.08,2.1-.32,3.19-.32.21,0,.43,0,.64.03-1.26.14-2.67.24-3.92.67-.26.35-.43,1.07-.43,1.26.22-.26.35-.35.42-.35.08,0-.1.29-.18.64-.24.66-.37,1.3-.58,1.65-.16.29-.27.32-.37.32h-.06c-.5,0-.64-.38-.64-.93,0-.67.26-1.52.32-2.05-.53.11-1.25.5-1.38.5-1.23.54-3.38,1.63-3.5,2.61-.02.08-.02.14-.02.21,0,.94,1.14,1.47,1.97,1.65.67.16,1.41.21,2.19.21,3.07,0,6.75-1.02,8.44-1.87Z"/><path class="cls-1" d="M330.97,79.31c1.31-2.35,2.87-4.27,3.33-5.84.05-.16,0-.24-.14-.24-1.82,0-4.88,1.34-5.81,2.64-.22.32-.27.74-.3,1.04-.08.72-.26,1.38-.67,1.98-.35.5-.77.72-1.17.72-.1,0-.19,0-.29-.03-.26-.06-.5-.24-.69-.48-.11-.18-.18-.4-.18-.64,0-.14.03-.29.06-.42.21-.88,1.41-2.53,2.27-2.53.13,0,.24.03.35.11,1.23-1.73,5.39-2.85,6.42-2.85.18,0,.32.03.45.08.4.13.54.4.54.78,0,1.02-.59,2-1.54,3.55,1.62-1.57,2.69-2.74,3.99-3.59.14-.1.32-.13.5-.13.42,0,.85.26.86.61.08.46-1.06,2.53-1.06,3.19,0,.13.03.21.14.21.56,0,1.31-.58,1.97-.96.42-.26,1.06-.75,1.31-.75.16,0,.29.08.5.19.43.22.46.74.46,1.46v.54c0,.34.16.66.69.67,1.28,0,3.23-1.47,4.29-2.29.13-.1.27-.22.42-.34.03-.02.05-.03.08-.02.05.03,0,.06,0,.08-.08.19-.21.35-.34.5-.29.34-.66.62-1.02.88-.93.59-2.08,1.46-3.43,1.46s-1.7-.7-1.7-1.55c0-.34.03-.53.03-.69,0-.14-.03-.27-.14-.27-.05,0-.1.02-.18.06-.8.5-1.55,1.06-2.5,1.5-.19.08-.38.13-.56.13-.21,0-.4-.05-.58-.13-.43-.13-.59-.42-.59-.8,0-.7.56-1.7.86-2.5.16-.43.18-.66-.37-.24-1.09.85-2.02,1.82-2.9,2.71-.62.59-1.9,2.35-2.16,2.48-.13.1-.3.13-.46.13-.43,0-.86-.24-.77-.43ZM327.59,76.47c-.85.54-1.46,1.39-1.62,2.08-.03.11-.14.74.18.74.72,0,1.47-1.65,1.44-2.82Z"/><path class="cls-1" d="M345.75,79.85c0-.94,1.66-3.87,2.02-4.58.59-1.2,7.44-11.86,9.6-11.97.16-.02.3.05.4.14.05.05.06.11.08.18.06,1.23-4.87,6.59-7.27,9.04-1.42,2.29-2.71,4.56-3.49,6.23.71-.67,3.2-3.35,3.94-3.35.59,0,.82.37.98.8.26.67.27,1.28.58,1.95.21.43.42.56.93.56,1.28,0,2.99-1.06,4.05-1.87.13-.1.27-.22.42-.34.03-.02.05-.03.08-.02.05.03,0,.06,0,.08-.08.19-.21.35-.34.5-.29.34-.66.62-1.02.88-.93.59-1.97,1.2-2.9,1.2-.72,0-1.6-.16-2.16-.91-.29-.4-.46-1.15-.56-1.87-.05-.37-.08-.56-.5-.22-1.79,1.46-2.47,2.47-3.22,3.28-.38.42-.8.85-1.04.85-.4.02-.58-.19-.58-.56ZM357.31,63.8c-1.17.83-3.35,3.7-5.46,6.91,2.27-2.58,5.25-6.15,5.46-6.91Z"/><path class="cls-1" d="M362.15,83.9c0-5.52,9.57-15.67,9.57-17.72,0-.08-.02-.14-.03-.19s-.06-.08-.13-.08c-.34,0-1.2.51-1.3.54-2.91,1.57-6.88,5.23-8.45,7.4-.61.77-1.02,1.52-1.18,1.98-.19.51-.32,1.79-.91,2.8-.45.77-.96,1.09-1.39,1.09-.72,0-1.22-.7-1.22-1.02,0-.18,0-.34.02-.51.24-1.5,2.11-3.27,2.53-3.27.1-.02.14,0,.19,0,.3.05.45.06.61.1,1.71-3.49,8.92-9.35,11.06-9.35.5,0,.8.26.8.83,0,1.97-3.12,6.13-3.55,6.75-4.19,6.16-5.63,8.79-5.63,11.8,0,.54.26,1.28.64,1.28.34,0,.02.32-.27.32-.78,0-1.34-1.52-1.34-2.75ZM359.98,75.71c-.88.78-1.78,2.05-1.92,2.85-.05.27-.05.62.14.66.58.1,1.62-1.71,1.78-3.51Z"/><path class="cls-1" d="M371.83,79.9c-.78-.35-1.2-.82-1.2-2.06,0-1.71,1.39-4.29,2.94-6.58-1.78.18-3.67.43-5.25.82-1.44-.51-.02-.74.51-.8.86-.1,2.98-.34,5.11-.54,1.23-1.76,2.5-3.28,3.23-4.02.98-.99,1.79-1.76,2.29-1.54.19.1.46.38.27.45-.69.22-2.69,2.38-4.55,4.99,1.78-.18,3.36-.3,4.02-.3.82,0,1.65.43,1.76.56.08.08.05.18-.08.21-.16.03-.34.03-.5.05-.96.13-1.95.21-2.93.32.03-.02.06-.03.08-.05.42-.34.56-.37.77-.43-.86.02-2.1.06-3.49.18-1.91,2.78-3.51,5.94-3.07,7.75.14.59.67.88,1.26.88.91,0,2.45-.82,3.23-1.3.45-.29.86-.59,1.28-.93.06-.05.11,0,.06.06-.35.48-.82.85-1.28,1.18-1.25.9-2.29,1.44-3.14,1.44-.5,0-.91-.13-1.34-.34ZM377.46,71.45c-.14.05-.32.03-.02,0h.02Z"/></svg>