<?xml version="1.0" encoding="UTF-8"?><svg id="Layer_1" xmlns="http://www.w3.org/2000/svg" width="16.68mm" height="35.87mm" viewBox="0 0 47.28 101.67"><defs><style>.cls-1{fill:#f6f5f5;}.cls-1,.cls-2,.cls-3,.cls-4,.cls-5,.cls-6,.cls-7,.cls-8,.cls-9,.cls-10,.cls-11,.cls-12,.cls-13,.cls-14,.cls-15,.cls-16,.cls-17,.cls-18,.cls-19,.cls-20,.cls-21,.cls-22,.cls-23,.cls-24,.cls-25,.cls-26,.cls-27,.cls-28,.cls-29,.cls-30,.cls-31,.cls-32,.cls-33,.cls-34{stroke-width:0px;}.cls-2{fill:#b9c0c7;}.cls-3{fill:#c2cad1;}.cls-4{fill:#b4cfe5;}.cls-5{fill:#818b93;}.cls-6{fill:#aac3da;}.cls-7{fill:#bbbcc0;}.cls-8{fill:#96a1aa;}.cls-9{fill:#b0cee0;}.cls-10{fill:#a9c0d6;}.cls-11{fill:#d0d1d4;}.cls-12{fill:#d2e5ee;}.cls-13{fill:#c3c3c4;}.cls-14{fill:#a1b7c9;}.cls-15{fill:#acadaf;}.cls-16{fill:#a4b3bf;}.cls-17{fill:#9bb2c3;}.cls-18{fill:#728ea7;}.cls-19{fill:#e1e9ee;}.cls-20{fill:#748da2;}.cls-21{fill:#96adc1;}.cls-22{fill:#a1b7cb;}.cls-23{fill:#dce5ec;}.cls-24{fill:#faf6f5;}.cls-25{fill:#c3c9cf;}.cls-26{fill:#698eab;}.cls-27{fill:#c8d1db;}.cls-28{fill:#b3b9bd;}.cls-29{fill:#95a3ac;}.cls-30{fill:#eeeef1;}.cls-31{fill:#93aac3;}.cls-32{fill:#bec0c4;}.cls-33{fill:#d1dce4;}.cls-34{fill:#b6cddd;}</style></defs><path class="cls-20" d="M18.19,91.49c0-7.04-1.81-13.42-5.55-19.54-3.95-6.47-5.64-13.9-6.57-21.43-.12-.68-.79-1.74.84-1.23.1.03.11,0,.1-.21-.03-1-.11-2.03,1.32-2.13.75.86.35,2.01.74,2.96-.3,3.91,1.11,7.51,1.92,11.23-.39-3.33-2.12-6.41-1.85-9.87.29-1.15.7-1.09,1.36.02-1.53-4.51-1.31-9.14-2.29-13.58-.11-.49-.07-1,.09-1.49.17-.4.43-.68.89-.7-.25.16.32-.2.22.06-.04.11.22.2.22.14.19-2.26,1.24-4.12,2.69-5.79,1.32-.95,2.28-2.1,2.48-3.82.14-1.17,1.16-1.94,1.54-3.05-.72.89-1.45,1.76-2.01,2.77-1.57,2.84-3.66,2.92-6.37,2.25-.62-.16-1.21-.43-1.84-.57-1.27-.3-1.32.37-1.02,1.31-.18,1.06-.54,2.11.25,3.14.27.35,0,.79-.42,1.02-.86.35-1.8-.38-2.83.31.75.61,2.03.88,1.64,2.2-.52.72-.94,1.52-1.61,2.12-.84-.63-1.23-1.59-1.7-2.46-1.02-1.9-.3-3.45,1.82-3.78,1.04-.16,1.42-.38.99-1.46-.78-1.99-.15-3.38,1.75-4.46,2.58-1.46,2.72-2.97.73-5.14-.47-.51-.81-1.06-.52-1.74.37-.87,1.12-1.25,2.04-1.38,3.09-.42,3.49-1.11,2.5-4.15-.11-.33-.23-.94-.12-1,1.39-.75,1.47-2.73,2.25-3.29,1.88-1.37,1.73-3.24,2.35-4.94.43-1.19,1-2.35,1.64-3.44.43-.72.93-.18,1.43.14,2.11,1.38,2.53,3.84,3.76,5.78.11.17.01.54.13.61,1.71.98,2.01,2.49,1.9,4.32-.05.72.68.77,1.27.29,1.64-1.34,1.8.17,1.59,1.06-.55,2.38.34,4.18,1.84,5.85-.16,1.13-1,1.45-1.94,1.67-1.74-.21-2.88.5-3.47,2.18-.39,1.11-1.05,2.09-2.04,2.72-2.03,1.31-3.47,3.14-5.01,4.96-1.72,2.03-2.33,4.37-3.12,6.75-2.66,8.01.2,15.47,2.16,23,1.43,5.47,3.75,10.69,4.66,16.1-.34-1.64-.69-3.5-.98-5.37.03-1.35.07-2.7.16-4.05.06-.22.17-.42.32-.6,2.03-.57,1.64,1.19,1.64,2.02.02,2.23-.03,4.47-.04,6.7-.07-1.28-.09-2.56.25-3.81.21-.76.53-1.42,1.48-.7.15.25.32.52.28.8-.63,4.39.55,8.77.09,13.16-.07.64-.17,1.27-.56,1.81-.84.51-1.08,1.73-2.22,1.89-.2-.02-.38-.43-.38-.31.01,1.39.38,2.8-.36,4.13-.18.13-.37.14-.55.02Z"/><path class="cls-5" d="M25.92,19.92c.62-.5,1.25-1,1.87-1.5,1.15.83,1.67-.2,2.3-.8,2.2-2.06,3.19-1.87,4.36.95.44,1.06.71,2.19,1.08,3.27,1.26,3.72,3.52,5.08,7.33,4.33,1.89-.37,2.65.65,3,2.25,1.18,5.37,1.55,10.81,1.38,16.29-.33,10.17-1.93,20.16-4.46,29.99-.71,2.76-1.72,5.32-5.11,5.98-1.6.31-2.41,1.75-2.65,3.36-.18,1.23.02,2.3,1.48,2.69,1.55.42,1.86,1.5,1.26,2.84-1.34,3.01-3.15,5.62-6.3,7.02-2.4,1.07-3.46.46-5.07-2.95-.72-.2-1.28-.54-1.3-1.39.03-.59.09-1.15.79-1.35,1.18.28,1.65,1.3,2.26,2.18.33.47.55,1.01.98,1.42.39.37.85.61,1.37.37.6-.28.46-.8.28-1.31-.31-.89-1.44-2.33.96-1.49.04.01.1.15.11.04.35-2.01.37-2.05,2.33-1.76.61.09,1.15.2,1.48-.46.34-.67.11-1.2-.34-1.76-2.84-3.53-2.1-7.51,2-9.29,2.26-.98,3.34-2.54,3.99-4.7,1.81-5.95,2.51-12.11,3.51-18.21,1.22-7.48,1.37-15.04.37-22.56-.24-1.82-.12-3.98-2.08-5.18-.84-.16-1.7-.15-2.54-.1-2.01.14-3.61-.59-4.72-2.26-.5-.74-1.33-1.02-1.9-1.64-.52-1.42-.18-2.97-.73-4.41-.47-1.24-1.05-1.7-2.14-.67-.91.85-1.95,1.43-3.14,1.77-.21.06-.41.09-.63.1-.71-.05-1.28-.26-1.36-1.09Z"/><path class="cls-26" d="M8.29,46.98c-.97,1.04-1.07,2.61-2.22,3.54-.63-.93-.66-2.08-.69-3.08-.1-3.63-1.69-6.71-3.23-9.84-.17-1.17.47-1.86,1.39-2.38.69-.67.43-1.79,1.15-2.46.33-.2.61-.6.27-.81-1.59-.99-.71-2.04-.16-3.1.24-.28.55-.29.87-.19.75.91,1.86,1.32,2.82,1.93.83,1.62,1.24,3.32,1.01,5.15-.37.02-.68.14-.85.5-.48,1.63,0,3.22.3,4.8.46,2.46.51,4.96.98,7.41.08.43-.05.85-.43,1.14-.24.09-.43.04-.59-.16-.46-.75.07-1.76-.62-2.45Z"/><path class="cls-5" d="M18.19,91.49c.15,0,.29-.02.44-.02,1.1-1.1-.26-2.78.91-3.87.56-.59.46-1.84,1.72-1.74.51,2.1,1.5,4.21-.58,6.1-.6.54-.12,5.26.48,5.79.16.14.36.28.56.17.47-.26.43-.72.31-1.13-.36-1.23-.91-2.46.25-3.58,1.12.33,1.15.32,2.11-.58.24.01.42.13.55.33.46,2.21-.29,4.11-1.52,5.88-.85,1.17-1.48,3.26-3.09,2.76-1.62-.5-2.11-2.59-2.21-4.32-.11-1.92.04-3.86.08-5.79Z"/><path class="cls-25" d="M23.41,98.83c.46-2.01,1.2-3.95,1.35-6.02.12-.37.25-.74.75-.39-.09.68.73.72.87,1.24-1.46,1.84-1.14,4.28-1.97,6.24-1.2.28.6-1.72-1-1.06Z"/><path class="cls-24" d="M22.55,93.26c-.59.99-.77,1.97,0,2.96.87,1.13.24,2.36-.54,2.77-1.17.62-1.43-.8-1.72-1.57-.86-2.3-.26-4.62-.15-6.92.84,0,.38.8,1.12.9,0-1.87,0-3.71,0-5.55.26-2.99.94-5.95.03-8.99-.68-2.28.71-4.6.32-6.95-.85-.95-.98-2.06-.7-3.24.29-1.21.48-2.4.06-3.38-.03.2.16.61.19,1.04.04.44.03.95-.41,1.14-.56.25-.7-.32-.88-.68-.33-.7-.89-1.07-1.6-1.34-.32,1,.66,1.67.4,2.56,0,.13-.02.27-.06.4-.19,1.3-.39,2.6.01,3.9.33,2.27.87,4.52.45,6.92-.74-2.57-1.38-5.16-2.22-7.7-2.5-7.51-5.07-15.03-6.05-22.89-.75-6.05.28-11.89,4.14-17.04,1.49-1.99,2.97-3.76,5.15-5.01,1.12-.64,1.58-1.96,2.05-3.18.69-1.79,1.82-2.77,3.77-1.49.32.49.85.57,1.36.68.99,1.34-.09,2.47-.43,3.63-.59,2.03-1.36,3.96-.35,6.11.38.8.22,1.83.86,3.04.29-1.62,1.02-2.73,1.6-3.91.34-.69.81-1.28,1.62-.44.55,1.27.3,2.6.35,3.9-.03,1.29-.18,2.52-.88,3.67-.62,1.03-.5,2.19-.16,3.31.24.82.57,1.61.48,2.49-.01.24-.05.47-.1.7-.51,1.46-.12,3-.38,4.49-.03.24-.09.48-.17.71-.35,2.14.12,4.31-.21,6.44-.08.53-.1,2.24-1.33.58-.05-.38-.05-.77-.05-1.15,0-1.54,0-3.09,0-4.63,0-1.8,0-3.6,0-4.94-.07,4.13.21,8.72-.29,13.3-.15,1.35.14,2.92-1.38,3.8-.78-.74-.29-1.66-.25-2.46.29-5.64.29-11.28,0-15.91.26,2.44.13,5.9.19,9.36.05,2.52-.19,5.02-.31,7.53-.03.6-.1,1.14.44,1.55,1.11,2.2.04,4.39-.19,6.54-.28,2.64-.77,5.24-.65,7.91.23,1.77-.63,3.45-.42,5.22.21,2.25-.43,4.37-1.02,6.5-.38,1.08-.47,2.22-.7,3.33-.16.77-.22,1.57-1.03,1.99Z"/><path class="cls-30" d="M10.41,21.92c-.13-.15-.27-.3-.4-.44-.68-.4.1-1.23-.5-1.65-1.07-.06-1.95-.87-3.65-.37,1.35-1.29,2.36-1,3.29-.9,1.36.16,2.34-.25,3.11-1.42.49-.75.64-2.31,1.96-1.79,1.1.44,2.67,1.09,1.58,3.16,1.28-1.77,2.36-3.34,4.05-5.22-.28,1.52-.43,2.49.13,3.36.14.68,1.44-.15,1.25.96h0c-.98.77-1.89,1.62-3.05,2.13-.69,1.11-2.22.81-2.99,1.79-.4.54-1.02,1.1-1.57.69-1.08-.8-2.17-.03-3.21-.29Z"/><path class="cls-23" d="M5.66,28.9c-.29-.02-.58-.04-.86-.06-.33-.48-1.16-.78-.59-1.58.52-.72,1.21-.61,1.93-.4,1.55.46,2.99,1.22,4.77.94,1.53-.24,2.19-1.25,2.94-2.28.8-1.1,1.55-2.23,2.33-3.34.21-.3.49-.62.87-.43.18.09.36.62.29.69-2.21,2.18-1.45,6.2-4.74,7.71-.19.21-.5.58-.67.44-1.18-.97-2.44-.06-3.65-.25-1.04-.18-1.77-.91-2.61-1.45Z"/><path class="cls-2" d="M18.67,66.01c-1.14-.98-1.2-2.27-1.09-3.68.84,1.15,3.1.6,3.13,2.71v-4.07c1.43,3.28.3,6.2.9,8.94-1.2,1.49-1.19,3.33-1.36,5.56-.88-3.27-.49-6.17-.81-9.01-.07-.64-.25-.73-.76-.46Z"/><path class="cls-10" d="M12.74,62c3.37,6.76,5.67,13.81,6.01,21.41-.81-7.47-3.96-14.29-6.01-21.41Z"/><path class="cls-31" d="M8.23,30.17c1.45-1.44,2.91-.35,4.36,0-1.08,1.94-2.45,3.75-2.76,6.04-.06-.02-.16-.02-.18-.06-.07-.13-.1-.27-.15-.4-.43-1.73-.87-3.46-1.3-5.19-.12-.1-.16-.18-.11-.27.05-.08.09-.12.14-.12Z"/><path class="cls-19" d="M13.5,13.6c1.42.12.68-3.19,2.78-1.66.99-1.61,1.99-1.14,3.07.07-1.28.66-1.2,2.46-2.44,3.05-1.42.67-2.07-1.16-3.41-1.46Z"/><path class="cls-12" d="M9.06,49.2c.01.13.03.26.05.38.66.44-.07,1.23.43,1.71.14,3.33,1.37,6.41,2.13,9.59.15.63.79,1.55-.22,1.83-.83.23-.83-.81-.96-1.37-.89-3.74-2.22-7.41-1.81-11.35-.25-.45-.36-.83.39-.81Z"/><path class="cls-14" d="M9.54,51.3c-.6-.46-.42-1.11-.43-1.71,1.08-2.39-.08-4.73-.34-7.04-.22-1.89-.37-3.82-.75-5.7-.1-.5.26-.58.65-.6.76,5.66,1.39,11.34,2.65,17.33-1.36-.76-1.33-1.63-1.37-2.46,0-.06-.01-.17-.05-.18-.35-.11-.26.21-.35.37Z"/><path class="cls-21" d="M10.41,21.92c1.04-.42,1.99-1.66,3.18-.11.31.4,1.07-.08,1.6-.29-.42,1.24-1.01,2.41-2.51,2.45-1.3.04-1.95-.88-2.27-2.05Z"/><path class="cls-34" d="M21.22,17.6c-.26-.53-1.11-.28-1.25-.96,1.08.16,1.89.17,2.12-1.33.21-1.35,1.77-1.72,2.71-2.58-.9,1.84-.74,4.44-3.58,4.87Z"/><path class="cls-22" d="M19.54,87.59c-.02,1.12-.03,2.24-.08,3.36-.02.5-.07,1.12-.83.51,0-2.07,0-4.14,0-6.21,1.11.68.71,1.57.91,2.33Z"/><path class="cls-6" d="M15.7,73.91c-1.13-1.15-1.86-2.51-2.34-4.6,1.72,1.42,1.84,3.1,2.34,4.6Z"/><path class="cls-34" d="M18.17,19.73c.86-.94,1.81-1.73,3.05-2.14.04,1.44-3.15,1.45-1.59,3.58-.49-.48-.97-.96-1.46-1.45Z"/><path class="cls-9" d="M17.71,8.29c-.1.52-.5.62-.94.62-.4,0-.7-.2-.69-.61.02-.56.46-.62.9-.6.38.02.67.17.73.59Z"/><path class="cls-14" d="M9.06,49.2c-.13.27-.26.54-.39.81-.78-.93-.31-2.01-.38-3.03,1.41.34.67,1.43.77,2.22Z"/><path class="cls-4" d="M15.68,6.15c.1-.95.66-1.27,1.41-1.34.08,0,.3.36.26.51-.24.85-.88.92-1.67.83Z"/><path class="cls-2" d="M18.62,70.3c-.61-1.3-.78-2.6-.01-3.9.27,1.3.08,2.6.01,3.9Z"/><path class="cls-21" d="M9.51,19.82c.73.38.46,1.06.5,1.65-.41-.09-.88.41-1.2,0-.67-.89.82-.94.7-1.65Z"/><path class="cls-1" d="M43.24,27.52c1.57-.02,1.53,1.31,1.78,2.26,1.66,6.5,1.48,13.12,1.07,19.72-.45,7.32-2.08,14.48-3.39,21.67-.29,1.61-.87,3.19-1.42,4.74-.58,1.62-1.57,2.73-3.4,3.25-2.79.8-4.5,3.9-3.81,6.4.23.83.58,1.59,1.38,2.1,1.22.77,1.36,2.45.32,3.45-.19.18-.65.41-.7.35-1.03-1.08-2.23-.48-3.42-.42.36,1.08,1.83,1.4,1.89,2.85-1.43-.03-1.65-1.81-2.95-1.89-.2.52.31.7.51,1.01.52.79,1.6,1.55.13,2.41-1.2.69-2.36.44-2.92-.78-.6-1.33-1.45-2.45-2.32-3.58-.75-1.86,1.12-3.09,1.26-4.78.02-.22-.42-2.05,1.16-1.87-.65-.77-.56-1.46.23-2.07l1.47-3.19c.26-.27-.12-.26-.18-.38-.53-.96-.21-1.34.83-1.27.07,0,.27.22.22-.02-.04-.17-.28-.31-.37-.51-.17-.51.41-.98.08-1.5.18-1.06.91-.7,1.54-.59.47.16.96.29,1.35.72-.25-.44-.69-.46-1.03-.66-1.94-.62-1.96-.63-1.52-1.81.27-.09.56-.15.83-.06.51.16,1.01.33,1.43.53-.2-.31-1-.35-.81-.95.18-.58.79-.46,1.36-.39-.7-.31-1.45-.31-2.03-.74-.26-.19-.42-.44-.43-.77,1.25-1.84,2.62-.25,3.78-.18-.76-1.09-3.4.24-3.3-2.36.17-.18.42-.3.15-.65-1.11-1.47,0-1.74,1.1-1.8.76-.04,1.51.25,2.22.56-.12-.17-.34-.12-.49-.22-.66-.41-2.13-.02-1.91-1.21.19-1.01,1.44-.44,2.27-.48-.87-.22-2.15.18-2.13-1.25.02-1.14.99-.97,1.76-.96-.6-.15-1.81,0-1.63-.87.34-1.64,1.9-.59,2.76-.92-.73-.25-2.18.57-2.31-.88-.1-1.07,1.12-.76,1.83-.83-.48-.07-1.05.05-1.44-.43-.17-1.78,1.2-1.11,1.91-1.31-.33-.05-.81.05-1.26-.1-.35-.12-.66-.32-.67-.74,0-.52.36-.8.81-.83.97-.07,1.96-.2,2.91.13-.8-.37-1.66-.1-2.48-.21-1.29-.18-1.84-.74-.93-1.97.89-.29,1.81-.11,2.71-.17,1.35,0,2.7,0,4.05,0,.29,0,.01-.37.08-.09-1.34.19-2.69.03-4.03.09-.95-.06-1.92.15-2.85-.2-.34-.23-.43-.56-.43-.94.05-.35.22-.64.52-.83,1.29-.3,2.58-.27,3.79.08-1.13-.54-2.44-.08-3.68-.35-.2-.09-.36-.23-.49-.41-.07-.22-.08-.43-.03-.65.1-.21.25-.36.46-.46,1.26-.26,2.55.06,3.51-.26-.97.06-2.24.31-3.51,0-.22-.1-.37-.27-.45-.5.04-1.28.97-1.48,1.94-1.5,1.38-.04,2.78-.15,4.25.2-2.03-.67-4.13.39-6.02-.68.16-1.71,1.64-.85,2.31-1.28-.03,0-.22,0-.41.02-.67.04-1.59.55-1.84-.45-.27-1.1.72-1.18,1.43-1.31-.52-.05-1.31.14-1.45-.66-.12-.73.49-1.15,1.11-1.41.66-.28,1.37-.42,2.05-.64,1.15-.71,2.4-.68,3.45-.52-.75.13-1.7-.4-2.68-.09-1.16.01-2.33.26-3.43-.33-.74-1.13.2-1.4.91-1.8.71-.26,1.45-.43,2.15-.72.26-.29,1.52-.46.15-.96-.58-.21-1.26-.01-1.87-.12-.62-.11-1.51.08-1.47-1.02.92-.78,2.18-.61,3.19-1.13.4-.11.8-.21,1.1-.34-.57.13-1.19.33-1.79.62-.56.07-1.11.14-1.65.34-.48.17-1.02.13-1.29-.39-.3-.57.08-.9.54-1.18.1-.06.36.05.27-.34-.32-1.33-.3-1.38.68-1.84.46-.21.93-.33,1.08-.89.03-1.83.97-2.47,2.76-2.36,1.25.07,2.55.29,3.78-.2Z"/><path class="cls-18" d="M32.4,75.09c-.41.15-1.04-.37-1.25.4.6.69-1.37.49-.44,1.29.75.58,1.76.88,2.15,1.99-1.2.17-1.68-1.22-2.84-1-.05,1.11,1.46,1.08,1.5,2.11-.79.62-1.6-1.3-2.12-.19-.5,1.06,1.35,1.06,1.43,2.1-.78.53-1.17-.64-2-.47-.24,1.01,1.1.96,1.21,1.71-.51.76-1.16-.52-1.7.15-.02.88,1.05,1.11,1.2,1.94-.66.69-.97-.71-1.63-.25-.09.94,1.23,1.12,1.18,2.2-.75.16-.97-.71-1.52-.85-.05.08-.19.22-.16.28.31.68.37.75-.69,2.57-.38.65-.6,1.28-.72,1.98-.56.32-.43.88-.48,1.37-.25.13-.5.26-.75.39-.16,0-.33-.02-.49-.03-.46-.34-.47-.84-.42-1.34.07-.78.37-1.5.53-2.25.13-.6-.9.56-.78-.39.04-.28,0-.56.18-.8.16-2.15,1.17-4.18.93-6.4,1.71-7.16,3.77-14.24,4.67-21.58.27-2.23.36-4.45.23-6.65-.05-.83,1.13-1.79-.3-2.68-.39-.24-.33-1.88.15-2.83h0c.54-1.55-.15-3.21.4-4.77.04-.13.05-.26.03-.39-.04-3.21.68-6.39.45-9.61-.01-1.42-.03-2.83-.04-4.25-1.3-1.9-.11-3.86-.14-5.79.04-.36.1-.72.29-1.02.56-.82,1.13-1.84,2.31-1.5,1.17.34.94,1.42.81,2.35-.04.28.03.57.06.85.33,1.57-1.18,2.73-1.02,4.55,1.7-1.56,2.69-.03,3.87.64.27.15.37.42.27.73-.1.32.13.82.43.93.11,1.32-.98.64-1.51.89-.38.18-.94.25-.96.73-.03.82.91,0,1.11.59-.2.78-1.31.47-1.6,1.4,1.04.56,2-.42,2.97-.2.44-.25.79-.33.73.38-1.08.33-2.16.66-3.24,1,.45,1.4,1.84.04,2.5.86.02.7-.5.72-.98.78.61.22,1.63-.38,1.77.86l-2.06.48c-.43.4-1.06.06-1.54.55-.59.6.03.53.25.7,1.27.02,2.53.04,3.8.07.2.82-.47.82-.9.8-1.32-.05-2.48.65-3.43.62.53-.17,1.44-.22,2.31-.48.47-.15,1.19-.18,1.15.72-1.1.34-2.31.45-3.56,1.63,1.53.07,2.61.13,3.89.19-.98,1.36-2.63.29-3.59,1.41,1.13,1.17,2.81-.36,3.89.88-1.23.69-2.76-.16-3.94.71-.51.83-.74,1.66.02,2.48.11,0,.22.03.31.09.27.49-.19.61-.42.85h0c-.34.28-.65.57-.02.87h0c.25.23.71.36.43.85-.16.14-.31.28-.47.43-.56.36-.56.64.12.82.97.03,1.94.06,2.9.08.3.27.3.54.02.82-.97.03-1.93.06-2.9.1-1.77.97-.71,2.85-1.29,4.21-.08.18.9,0,1.26.41.9.08,1.85-.02,2.79.76-1.1.5-2.22-.3-3.23.47.83.86,1.89.34,2.78.56.53.13,1.4.07,1.3.77-.12.87-.85.38-1.36.23-1.02-.28-2.03-.41-3.21.17,1.03.91,2.44.49,3.17,1.55-.83.59-1.53-.24-2.28-.07-.34.08-.76-.01-.83.46-.07.44.25.62.61.73.86.25,1.83.26,2.62,1.15-1.28.3-2.34-.7-3.59-.06,1.22,1.03,2.98.85,4.23,2.13-1.94.29-3.51-1.88-5.28-.47.02,1.16,1.85.77,1.64,1.75-.16.78-.94-.2-1.46-.05-.25.12-.63.47-.61.48,1.04.71-.17,1.38-.02,2.05.16.15.31.3.47.45.01.07.06.18.04.2-.52.41-.93,1.26-.88,1.87q.1.85,1.7,1.41c.08.38.03.62-.44.41Z"/><path class="cls-33" d="M30.71,22.77c-.14,2.02-.28,4.04-.42,6.06-1.19,1.11-1.78,2.53-2.14,4.07-.13.57.23,1.46-.8,1.42-.83-.03-.81-.78-.99-1.42-.47-1.67-.03-3.59-1.45-5-.3-.3-.15-.74.16-1.14,1.42-1.8,1.65-4.04,2.21-6.16.12-.06.25-.07.37-.04.73,1.13,1.56,2.13,3.06,2.21Z"/><path class="cls-27" d="M37.17,30.57c-.9-.09-1.78-.03-2.79.41.45-1.2,1.59-.95,2.08-1.51.12-1.23-3.11,1.5-1.43-1.39-1.14-.42-1.83.65-2.79.84-.94-1.93.82-3.24,1.03-4.88.28-.07.57-.15.85,0,.42.42.87-.88,1.17-.06,1.47,3.89,4.65,3.79,7.94,3.53-.71.74-1.63.45-2.45.43-1.91-.05-3.84-.24-3.61,2.62Z"/><path class="cls-24" d="M34.13,24.05c-.28.05-.57.47-.85,0-.1-.34-.3-.69-.28-1.02.06-.81.72-2.02-.39-2.19-.79-.13-1.7.85-1.9,1.95-2.28,1.01-2.76-.48-3.06-2.21,1.28-.6,2.56-1.17,3.54-2.28.98-1.1,1.79-.62,2.23.55.64,1.68,1,3.41.7,5.22Z"/><path class="cls-17" d="M23.78,87.99c.05.27.07.78.14.79.63.08-.03-.91.81-.85.29,1.64-.52,3.22-.47,4.85-.4.79-.62,2.19-1.71.48.56-1.72.36-3.62,1.23-5.26Z"/><path class="cls-33" d="M29.45,47.85v3.19c.69-.86,0-1.87.87-2.6.77,1.36-.02,2.66.03,3.94.22,6.29-.64,12.51-2.4,18.48-1.05,3.57-.86,7.56-3.24,10.73-.33-1.8.61-3.5.41-5.28.54-6.53,1.91-12.96,2.58-19.47.07-.64-.22-1.51.83-1.68.02.07.02.14.05.21.11.25.35.26.35.01.04-1.78,0-3.56.06-5.34.02-.74-.3-1.59.45-2.19Z"/><path class="cls-28" d="M28.54,55.16c-.72,4.53-1.57,9.05-2.11,13.61-.29,2.43-1.25,4.82-.75,7.34,0,.03-.36.14-.56.21-.47-3.75.7-7.36,1.03-11.04.11-1.21.2-2.41.25-3.62l-.02.02c1.44-4.78,1.28-9.69,1.34-14.6.02-1.49-.3-3.05.58-5.01.49,2.84.14,5.17.22,7.48-.31,1.6-.31,3.2,0,4.8,0,.27,0,.55,0,.82Z"/><path class="cls-11" d="M21.65,32.72c0-1.31-.02-2.6-1.36-3.4-.32-.19-.41-.62-.23-.96.24-.44.6-.12.93-.07,2.06.27,2.94,1.79,2.83,4.87-.03.8-.62,1.66.38,2.41.29.22.24,1.25-.35,1.51-.85.37-.8-.5-1-.98-.48-1.11-.41-2.41-1.21-3.4h0Z"/><path class="cls-28" d="M26.41,61.65c-.47-.05-.84-.21-.79-.79.59-6.65.55-13.3-.03-19.95-.03-.35,0-.72.55-.94,1.17,7.25.68,14.47.24,21.7,0,0,.02-.02.02-.02Z"/><path class="cls-32" d="M25.02,48.59c.07,5.76.43,11.53-.63,17.28v-17.28c.21,0,.42,0,.63,0Z"/><path class="cls-7" d="M18.48,45.4c-.24-3.46-.31-6.94-1.99-10.69,2.76,1.72,3.69,7.67,1.99,10.69Z"/><path class="cls-33" d="M30.33,33.08c.53,3.24.66,6.45-.45,9.61-1.6-3.29-.33-6.44.45-9.61Z"/><path class="cls-11" d="M21.64,32.71c-.21,1.97,1.09,3.78.54,5.81-.83-2.03-.79-4.3-1.83-6.24h0c.05-.38-.15-1.04.39-1.03.83.03.25,1.18.91,1.47,0,0,0-.01,0-.01Z"/><path class="cls-15" d="M23.02,65.95c.69,1.68-.09,3.3,1.01,4.52.23.26.02.73-.39.82-.56.12-1.07-.16-1.08-.72-.02-1.42-.31-2.89.46-4.61Z"/><path class="cls-2" d="M19.45,62.41c-.61-.61-.37-1.31-.57-1.9-.2-.59-.5-1.44.41-1.53.69-.07.65.79.63,1.34-.03.7.27,1.51-.46,2.1Z"/><path class="cls-11" d="M20.35,32.28v1.4c-.46-.79-2.11-.26-1.79-1.35.25-.84,1.17-.34,1.8-.04,0,0,0-.01,0-.01Z"/><path class="cls-33" d="M29.85,43.08c-.08,1.6.45,3.25-.4,4.78.13-1.59-.47-3.25.4-4.78Z"/><path class="cls-33" d="M28.54,54.34c-.61-1.6-.68-3.2,0-4.8,0,1.6,0,3.2,0,4.8Z"/><path class="cls-16" d="M34.23,58.15c-.55.16-1.09.38-1.65.45-.55.06-1.25-.32-.6-.8,1.11-.84.79-2.01.68-2.84-.23-1.63.65-1.44,1.61-1.43-.23,1.27.65,1.2,1.45,1.18,1.08-.03,2.14.09,3.15.49.4.16.9.39.72.88-.2.53-.71.3-1.09.13-1.32-.6-2.67-.83-4.39-.33,1.19.99,2.71.29,3.63,1.27-.39.93-1.09.17-1.63.28-.66.14-1.66-.59-1.88.71Z"/><path class="cls-29" d="M31.14,73.27c.01-.93-1.02-.87-1.38-1.43.5-1.04,1.68.27,2.22-.64,1.33.24,2.59.6,3.53,1.89-1.12.36-1.8-.74-2.8-.54.56.86,1.79.65,2.2,1.8-1.45.1-2.51-.89-3.77-1.07Z"/><path class="cls-3" d="M37.56,41.32c-1.7-.72-3.22.3-5.3.6,1.97-1.86,4.32-1.39,6.16-2.25,1.48.59,3.09-.24,4.61.42-1.77.77-3.86-.07-5.47,1.24Z"/><path class="cls-3" d="M37.97,37.86c-.77-.61-1.62-.28-2.44-.17-.45.06-1.08.48-1.17-.3-.07-.6.56-.72,1.06-.78.42-.05.84-.06,1.28-.36-.62-.03-1.24-.02-1.85-.12-.53-.09-.79-.36-.18-.77.89.73,1.94.2,2.9.34.74.11,1.81-.29,1.99.75.17.99-.92,1.09-1.6,1.41Z"/><path class="cls-8" d="M34.28,48.63c-.48-.03-1.53.2-1.09-.52.39-.63-1.17-2.46,1.06-1.96,1.25.75,2.65.14,3.96.39.83.16,1.68.16,2.93.95-2.01,0-3.48-.04-4.94.02-.79.03-1.8-.13-1.93,1.12Z"/><path class="cls-29" d="M31.51,70.75c-.14,0-.28.01-.42-.02-.24-.05-.71-.08-.43-.44.32-.43,1.03-.26.26-1.32-1-1.38.74-.52,1.22-.75-.17,1.26.85,1.04,1.54,1.29,1.21.43,2.71.53,3.14,2.47-1.89-.48-3.27-2.61-5.31-1.22Z"/><path class="cls-8" d="M34.6,51.29c-.14-.28-.29-.56-.43-.85,1.92.14,3.96-.38,5.67,1.26-1.75-.14-3.49-.28-5.24-.42Z"/><path class="cls-13" d="M37.17,53.44c0-.27,0-.55-.01-.82,1.76,0,3.52,0,5.29,0,.01.18.02.36.03.54-1.71.57-3.53.21-5.3.28Z"/><path class="cls-8" d="M34.18,49.57c.14-.28.28-.57.42-.85,1.28,0,2.56,0,4.18,0-1.62,1.12-3.17.68-4.6.85Z"/><path class="cls-3" d="M34.62,39.6c-.33.1-.66.21-.99.3-.41.12-.89.26-.96-.35-.04-.35.29-.65.68-.64.91.03,1.59-.91,2.56-.57-.3.55-1.36.32-1.28,1.25Z"/><path class="cls-3" d="M41.11,37.86c-.64,1.13-1.62,1.23-2.59,1.37-.06-.17-.12-.35-.17-.52.92-.28,1.84-.56,2.76-.84Z"/><path class="cls-3" d="M37.92,34.36c-.24-.13-.49-.25-.73-.38.99-.51,1.99-.91,3.32-.69-.75.99-1.82.67-2.6,1.07Z"/><path class="cls-29" d="M30.71,76.78c-.7-.03-1.18-.36-1.45-1.04.61-.34,1.38.63,1.89-.25q.88.49-.44,1.29Z"/><path class="cls-8" d="M34.25,52.53c-.48.19-.97.7-1.46.09-.14-.17-.21-.55-.12-.73.37-.72.97-.13,1.46-.17.04.27.08.54.12.82Z"/><path class="cls-29" d="M32.4,75.09c.15-.14.29-.27.44-.41.79.28,1.6.53,1.94,1.57-1.13.17-1.68-.64-2.37-1.17Z"/><path class="cls-8" d="M34.16,50.44c-.58.29-1.39.69-1.46-.29-.07-.99.94-.46,1.48-.58,0,.29-.01.58-.02.87Z"/></svg>