<?xml version="1.0" encoding="UTF-8"?><svg id="Layer_1" xmlns="http://www.w3.org/2000/svg" width="23.24mm" height="22.33mm" viewBox="0 0 65.88 63.3"><defs><style>.cls-1{fill:#f1f3f4;}.cls-1,.cls-2,.cls-3,.cls-4,.cls-5,.cls-6,.cls-7,.cls-8,.cls-9,.cls-10,.cls-11,.cls-12,.cls-13,.cls-14,.cls-15,.cls-16,.cls-17,.cls-18,.cls-19,.cls-20,.cls-21,.cls-22,.cls-23,.cls-24,.cls-25,.cls-26,.cls-27,.cls-28{stroke-width:0px;}.cls-2{fill:#f6f5f5;}.cls-3{fill:#94979c;}.cls-4{fill:#b1c5d8;}.cls-5{fill:#adc4d6;}.cls-6{fill:#b2b6c0;}.cls-7{fill:#aac3d5;}.cls-8{fill:#788c9b;}.cls-9{fill:#7e8a97;}.cls-10{fill:#b6c8d7;}.cls-11{fill:#728ca4;}.cls-12{fill:#7f8d97;}.cls-13{fill:#f1f5f6;}.cls-14{fill:#919396;}.cls-15{fill:#f1f4f6;}.cls-16{fill:#aec2d6;}.cls-17{fill:#b6bec7;}.cls-18{fill:#a6b4bf;}.cls-19{fill:#bbd2e1;}.cls-20{fill:#668eac;}.cls-21{fill:#b6c6d8;}.cls-22{fill:#f4f5f5;}.cls-23{fill:#9ebccf;}.cls-24{fill:#768ea0;}.cls-25{fill:#c5d9e7;}.cls-26{fill:#cbd4dd;}.cls-27{fill:#c3d1e0;}.cls-28{fill:#e9eef2;}</style></defs><path class="cls-26" d="M28.99,55.21c.65-.1.86.52,1.28.79.46,1.66,1.37-.33,2.09.33-.66,1.9-2.19,3.32-3.19,5.04-.48.83-1.56.23-2.33-.18-.49-.26-1.17-.44-.73-1.23.87-1.52-.53-1.37-1.23-1.59-.34-.11-.83.32-1.21.25-1.05-.19-2.16-1.03-2.12-1.82.07-1.36,1.2-.16,1.85-.24,1.08-.13,2.13,0,3.25.48.98.41,1.53-1.18,2.32-1.83Z"/><path class="cls-11" d="M25.56,1.21c4.77-.93,9.5-2.25,14.29.12,1.14.57,2.76.1,4.01.54,5.1,1.81,10.03,3.95,13.25,8.67.61.89,1.23,1.77,2.15,2.38,2.3,1.54,3.06,4.02,3.83,6.45.45,1.43.69,2.92,1.01,4.38.1.48.34.68.85.77,1.18.2,1.01,1.11.68,1.81-1.15,2.45-1.54,4.99-1.35,7.69.14,2.01-.46,3.83-2.05,5.21-1.02.56-1.43,1.46-1.73,2.58-.57,2.08-1.89,3.49-4.19,3.68-1.08-.77-.44-1.32.3-1.73,1.64-.89,2.37-2.17,1.91-4.03.27-1.71,2-1.87,3.44-3.04-4.24.72-7.23,3.61-11.12,3.83-1.19-.37-2.41-.66-3.59-1.07-.71-.9-.05-1.24.65-1.55,1.8-.82,3.59-1.67,5.48-2.25.6-.18,1.05-.34,1.1-1.05.05-.67-.22-1.66.67-1.79.76-.11.96.91,1.42,1.41,1.21.61.88-.81,1.42-1.08.18-.09.37-.13.57-.11,2.27-.17,3.99-1.04,4.52-3.47.05-.36.19-.7.21-1.06.06-1.42-.42-1.77-1.61-1.05-4.84,2.94-9.79,5.72-14.4,9.03-4.14,2.98-8.26,5.98-12.55,8.74-3.47,2.22-6.83,4.61-10.57,6.4-.83.4-1.6.94-2.59.79-.65-.34-.63-.79-.2-1.29,5.83-3.78,11.32-7.98,16.51-12.62,3.57-3.19,7.13-6.41,11.1-9.13,2.32-1.91,5.47-2.33,7.72-4.43,1.52-1.42,3.08-2.73,3.67-4.83,0-1.8.73-3.84-1.76-5.01.07.95-.47,1.55-1.05,2.12-5.82,5.67-11.42,11.55-17.19,17.26-4.04,4-8.41,7.62-12.53,11.54-.76.72-1.56,1.52-2.72,1.65-.34-.07-.55-.27-.64-.6,0-1.07.81-1.66,1.48-2.27,5.63-5.13,10.22-11.2,15.31-16.83,2.62-2.89,4.75-6.26,7.34-9.22.26-.24.57-.51.92-.49,1.76.07,2.13-1.03,2.13-2.46.43-1.28,1.59-2.01,2.3-3.09,1.11-1.69.94-2.84-.71-3.98-.47-.33-.99-.62-1.54-.75-2-.5-3.75-1.26-4.77-3.26-.43-.84-1.47-1.1-2.37-1.37-.96-.4-1.99-.21-2.96-.35-.06,3.01-3.82,5.21-1.89,8.65.07,1.39-.77,2.44-1.42,3.52-1.42,2.38-2.24,5.12-4.22,7.17-1.17.79-2.26,1.83-3.88,1.36-.43-2.48,1.44-4.14,2.21-6.19,2.06-4.12,3.94-8.31,5.15-12.78.19-.69-.09-1.25-.15-1.87-.38-1.68-1.77-1.4-2.94-1.49-1.1-.08-2.13.17-3.16.74,1.24.46,1.24,1.33.9,2.39-3.48,11.09-6.46,22.35-10.81,33.16-.49,1.22-.6,2.71-2,3.42-.55-.11-.68-.53-.76-1,.43-3.08,1.67-5.95,2.54-8.91,1.78-6.08,3.2-12.23,4.34-18.46.05-.29.16-.55.29-.81.94-2.06,1.49-4.18.87-6.46-.14-.98.53-2.04-.29-2.96-.24-.46-1.08-.53-.85-1.29Z"/><path class="cls-24" d="M56.22,45.29c1.97-.87,3.88-1.73,3.94-4.39.03-1.18.91-1.69,2.07-1.66-.33.72-.77,1.4-.98,2.15-1.06,3.77-3.78,5.86-7.24,7.09-4.28,1.53-8.69,2.48-13.27,2.52-.5,0-1.01-.02-1.51.03-3.56.34-4.47.98-5.29,4.49-.65,2.8-2.85,4.6-4.04,7.04-.39.8-1.39.86-2.32.59-1.34-.38-2.62-.97-3.58-1.91-2.68-2.63-5.97-4.45-8.83-6.75-3-2.41-6.69-3.57-9.48-6.17-.45-.42-1.13-.6-1.7-.89-.35.04-.03-1.69-.87-.33-.6-.23-1.2-.45-1.79-.7-1.34-.57-1.76-1.6-.87-2.74,1.9-2.42,3.31-5.43,6.9-5.96,1.02-.15,1.66-1.07,2.22-1.92.56-.18.9.13,1.2.53,1.03,3.19,1.84,6.44,2.41,9.74-.02,1.43.33,2.81.63,4.19.58,2.88,2.9,3.67,5.27,4.41,1.82.49,3.67.46,5.53.33,1.41-.1,2.86-.34,4.2.39.15,1.78-1.06,2.94-2.74,2.52-1.1-.28-2.18-.53-3.36-.35.21.68.72.85,1.2.84,1.66-.01,2.96.25,3.17,2.33.09.88.98.91,1.73.51.19-.1.32-.29.43-.48.85-1.43,2.9-2.68.71-4.59,1.14-2.03,2.4-4.05,4.12-5.55,1.69-1.48,4.01-1.78,6.3-1.6,1.96.16,3.84-.24,5.7-.79,1.13-.1,2.21-.46,3.31-.74.97-.22,1.96-.18,2.94-.18,1.56.29,2.14-1.08,3.08-1.84.25-.18.5-.32.82-.17Z"/><path class="cls-3" d="M10.42,36.22c-.28-.15-.55-.29-.83-.44.19-3.08-1.64-5.59-2.54-8.34-1.15-3.51-1.23-7.28-.24-10.34,1.32-4.09,3.17-8.43,7.74-10.61,3.67-1.75,7.19-3.84,11.01-5.28.42.28.85.56,1.27.85-1.27.89-2.94.95-4.1,2.04-1.71.96-3.4,1.98-5.21,2.75-1,.32-1.93.78-2.81,1.35-2.23,1.74-3.93,3.71-5,6.52-.85,2.22-1.54,4.28-1.81,6.68-.43,3.78.8,7.05,2.06,10.4.53,1.42,1.66,2.8.47,4.42Z"/><path class="cls-10" d="M3.13,47.1c-.11-.46-.21-.92-.32-1.39q1.39.37,1.19,1.71c-.35.05-.67,0-.87-.33Z"/><path class="cls-15" d="M17.36,6.41l5.18-2.57c.77,1.23.65,2.6.52,3.94-.06.56-.07,1.37-1.06,1.18-.04-.06-.08-.13-.13-.17-.57-.48,0-1.94-1.13-1.74-1.14.2-.99,1.45-1,2.36-.07,8.72-.7,17.4-2.25,25.98-.66,3.67-.99,7.4-1.77,11.04-.37,1.32-.68,2.66-.38,4.02.11.51.4,1.59,1.12.29.08-.19.18-.36.29-.53,4.09-5.89,7.46-12.22,11.24-18.29,2.04-3.27,3.41-6.94,5.92-9.92,2.12-3.31,3.79-6.86,5.55-10.36.26-2.11,1.53-3.77,2.45-5.56.27-.18-.16-.35.04-.14.05.05-.02.08-.09.17-.28.38-.61.63-1.07.35-.36-.22-.32-.56-.22-.93.45-1.65,2.11-2.73,4.01-2.58,1.04.07,2.29.38,2.65,1.19,1.1,2.5,3.52,2.74,5.53,3.73,3.45,1.71,3.28,3.65.68,6.31-.55.56-1.03,1.15-1.49,1.77-.23,1.8-1.88,2.16-3.04,3.02-.2.38-.33.83-.61,1.13-4.39,4.7-7.99,10.06-12.37,14.8-3.74,4.05-7.46,8.12-11.27,12.1-1.15,2.3-3.66,3.25-5.2,5.16-.26.32-.79.42-1.15.05-.32-.33-.03-.66.21-.91.34-.37.57-.81.79-1.25,5.41-5.28,9.68-11.53,14.47-17.33,5.54-6.7,10.3-13.98,15.84-20.67,1.09-1.32.7-2.32-.1-3.46-.84-1.2-1.8-.88-2.77-.21-1.78,2.03-3.32,4.11-4.13,6.82-.55,1.84-1.58,3.63-2.8,5.25-.64.85-.9,1.93-1.27,2.93-1.21,2.1-2.52,4.11-3.95,6.1-1.86,2.59-3.57,5.35-5.26,8.09-2.68,4.36-5.94,8.23-9.5,11.87-.78.55-1.01,1.51-1.63,2.2-1.32,1.47.89,1.91,1,3-.07.36-.38.44-.64.58-2.13-1.11-4.87-1.55-5.13-4.71-.41-1.45.51-2.82.28-4.27.24-6.07,1.14-12.11.88-18.21-.02-.36.12-.7.27-1.03,3.55-2.07,2.56-5.57,2.47-8.61-.11-3.99.23-7.98.02-11.96Z"/><path class="cls-20" d="M18.58,55.2c.14-.16.28-.32.41-.47.28-.43.51-.91.95-1.22,3.73-1.46,7.19-3.46,10.73-5.3,1.72-.89,3.45-1.72,4.94-2.98,2.2-1.31,4.63-2.1,6.94-3.18.78-.36,1.58-.72,1.83-1.65.42-1.6,1.41-1.79,2.76-1.18,1.44-.26,2.68.4,3.95.89.62.95,1.3.37,2.06.16,1.85-.52,3.64-1.81,5.68-.62,1.06,1.95.16,3.2-1.42,4.34-.42.3-1.71.06-1.17,1.29-.14.14-.28.29-.43.43-1.25.38-2.02,1.44-3.03,2.15-1.15,0-2.29.01-3.44.02-1,.3-2.14.15-3.02.86-2.23.9-4.57.87-6.92.89-3.05.02-5.81.74-6.76,4.15-.37,1.32-2.56.93-2.28,2.69-.8.34-.94-.39-1.28-.79-3.47-.57-7.02.56-10.47-.48Z"/><path class="cls-2" d="M16.92,50.5c0,.12.01.23.02.35-1.22-.17-1.38-.24-.99-1.22,1.15-2.9,1.88-5.99,3.56-8.68,4.32-10.73,7.88-21.72,10.94-32.87.38-1.38.94-2.7,1.39-4.06.29-.87.18-1.04-.89-.88-.55.08-.57-.24-.73-.51-.19-.33-.28-.61.09-.93,1.27-1.1,6.06-1.13,7.45-.15.83.58.18.91-.04,1.34.25.49.2,1.01-.06,1.44-1.19,1.96-1.08,4.54-3.06,6.15-.49.4-.85,1.2-.81,1.94.09,1.82-.45,3.51-.85,5.24-.96,1.98-2.22,3.83-2.66,6.03-.31,1.85-1.04,3.57-1.82,5.24-3.46,7.39-7.11,14.69-11.53,21.57Z"/><path class="cls-13" d="M49.3,29.72c-3.65,2.99-7.42,5.85-10.91,9.02-4.56,4.14-9.41,7.87-14.44,11.38-.69.48-1.33,1.12-2.25,1.2-.4-.38-.3-.87.01-1.12,1.14-.91,2.03-2.16,3.49-2.65,9.66-8.09,18.44-17.09,27.28-26.03,1.56-1.58,3.08-3.22,4.71-4.72.8-.74,1.21-1.4.35-2.49,3.37.88,3.57,1.26,3.42,5.91-2.03,2.29-4.31,4.31-6.59,6.34-.16.14-.33.29-.55.32q-2.61.44-4.53,2.84Z"/><path class="cls-22" d="M22.08,9c1.14-1.63-.02-3.46.46-5.15,1.05-1.5,2.6-1.8,4.29-1.78.89,1.01.85,2.02.02,3.04-1,2-.34,4.07-.29,6.12,0,.28.09.55-.15.77-.42,3.91-1.72,7.63-2.52,11.46-1.19,5.66-3.03,11.15-4.82,16.65-.03,2.16-1.07,4.03-1.75,6.01-.22.65-.53,1.45-1.49.71-.19-3.32.83-6.48,1.49-9.66,1.73-8.42,3.18-16.88,3.75-25.46.07-1,.06-2.03,1.03-2.69Z"/><path class="cls-28" d="M47.14,39.23c-1.07.32-2.51.09-2.38,2,.03.47-.89.79-1.49,1.06-2.47,1.1-4.91,2.28-7.35,3.43-.89.32-1.67.49-1.32-.93,6.83-4.59,13.33-9.64,20.41-13.89,2.24-1.34,4.77-2.35,6.67-4.27.45-.46,1.02-.51,1.59-.23.61.3.73.9.68,1.47-.05.64-.24,1.26-.37,1.89-.45.61-.77,1.28-1.73,1.35-1.46.1-1.99,1.87-3.43,2.09l-.02.03c-.83-.29-.85.47-1.15.87-.25.33-.19,1.09-.96.75-.32-.55-.63-1.1-1.04-1.82-.43.6-.45,1.18-.22,1.62.62,1.15-.46,1.67-.95,1.67-2.55,0-4.35,1.98-6.74,2.33-.09.01-.12.38-.18.58Z"/><path class="cls-12" d="M16.92,50.5c2.29-4.38,4.65-8.72,6.85-13.15,1.94-3.89,4.09-7.69,5.38-11.87.2-.65.74-1.2,1.12-1.79,1.21-.56,2.43-1.13,3.64-1.69-2.69,5.87-6.16,11.32-9.42,16.87-1.92,3.27-3.96,6.47-5.94,9.71-.45.73-.8,1.53-1.64,1.92Z"/><path class="cls-4" d="M32.94,17.66c.32-3.08-.71-6.55,2.54-8.78.16-.11.39-.36.36-.47-.69-2.3,1.66-3.54,1.88-5.51,1.65,1.16.32,2.7-.01,3.57-1.47,3.77-2.7,7.67-4.76,11.2Z"/><path class="cls-25" d="M34.59,44.78c.06.85.64.96,1.32.93-5.07,3.22-10.34,6.05-15.95,8.23-.78.32-1.19.11-.66-.67.54-.8,1.49-.94,2.41-1.01,4.54-2.08,8.66-4.88,12.88-7.49Z"/><path class="cls-5" d="M49.3,29.72c.08-.93.68-1.66,1.29-2.15.96-.77,1.89-1.37.84-2.79,1.59-.08,1.34,1.44,1.97,1.66,2.98-1.68,4.51-4.83,7.56-6.22-1.64,4.27-5.15,6.47-9.15,8.01-.97.37-1.63,1.1-2.52,1.49Z"/><path class="cls-19" d="M58.82,39.65c-2.21.03-4.33.36-6.27,1.54-1.14.69-1.8.4-1.46-1.08,3.62-.67,6.54-3.24,10.21-3.8.44-.07.91-.8,1.28-.15.41.73-.3,1.23-.82,1.51-1.04.57-2.33.75-2.93,1.97Z"/><path class="cls-6" d="M44.59,2.94c-2.08.05-3.15,1.27-3.83,3.26,1.23-.09.91-1.54,2.07-1.69-.83,2.59-1.9,4.94-3.35,7.13-1.24-1.13-1.06-2.5-.55-3.85.33-.85.79-1.66,1.32-2.41.76-1.07,1.42-2.05-.35-3.05,1.67.53,3.3-.34,4.7.61Z"/><path class="cls-18" d="M21.7,52.27c-.66.38-1.34.73-1.98,1.16-.66.45-.03.42.23.52-.23.37-.47.73-.96.78-.17-.55-.68-.62-1.11-.85-.87-.47-1.16-1.13-.39-2.02.73-.84,1.35-1.77,2.02-2.67.27.29.24.57,0,.86.17.87-.77,1.23-.88,2.03,1.9-1.86,3.94-3.48,6.02-5.08.18.19.36.37.54.56-.84,1.56-2.9,1.99-3.5,3.77-.39.32-.5.63,0,.94Z"/><path class="cls-17" d="M16.12,46.99c1.5-1.71,1.53-4.03,2.48-5.98.15-.31.31-.61.47-.92.06.33.04.71.44.86-.44,3.04-2.03,5.69-2.94,8.56-.15.49-.93,1.23.37,1.34-.1.71-.4,1.67-1.12,1.37-.61-.25-1.32-1.38-1.22-1.99.17-1.08-.26-2.29.54-3.26.32,1.03.66-.2.98.01Z"/><path class="cls-27" d="M26.41,11.99c-.94-1.47-.4-3.1-.61-4.63-.17-1.25-.56-2.06,1.05-2.25.91.71.99,1.57.65,2.65-.44,1.39-.21,2.95-1.09,4.24Z"/><path class="cls-21" d="M58.4,33.19c.51-1.37,2.24-1.65,2.73-3.05.95.72,1.66-.07,2.44-.39-.46,2.18-2.54,4.02-4.66,4.05-.17,0-.34-.4-.51-.61Z"/><path class="cls-16" d="M48.91,18.96c1.01-1.01,2.03-2.01,3.04-3.02.96,3-1.47,2.58-3.04,3.02Z"/><path class="cls-23" d="M56.27,34.84c.5-.56.41-1.4,1.08-1.93.66-.53.81-.19,1.03.31-.34,1.89-.37,1.92-2.11,1.62Z"/><path class="cls-1" d="M10.42,36.22c.1-1.33-.13-2.62-.81-3.74-1.42-2.33-2.35-5.11-2.32-7.52.04-3.2-.82-6.67,1.57-9.86,1.32-1.76,1.8-4.24,3.68-5.81.71-.59,1.29-1.35,2.21-1.67.78.97.77,1.9-.13,2.79-1.3.11-1.59.68-1.33,2.01,1.63,8.28,1.39,16.65,1.05,25.01-.27.64-.28,1.44-1.3,1.96-.93-7.34-1.43-14.66-3.42-22.14,1.08,4.34,1.76,8.33,2.3,12.35.54,4.04.57,8.14,1.68,12.1.08.62.08,1.24.05,1.86-.19.89.38,2.07-.96,2.51-.76-3.28-1.51-6.57-2.27-9.85Z"/><path class="cls-10" d="M11.62,48.48c-.51.17-.84.02-.91-.23-.62-2.51-3.39-3.02-4.61-4.98-.4-.64-.58-.58-1.56.8-.3.42-.5,1.05-1.07.72-.67-.39.12-.83.14-1.24.06-1.27,1.26-1.58,1.82-2.42.29-.43.66-.45,1.02.04.22.3,0,1.27.85.72.82-.52.02-1.01-.18-1.43-.5-1.03-.7-1.79.87-1.73.28,0,.46-.15.44.36-.07,2.42,1.56,4.05,2.85,5.83.29.4.35.39-.19,1.16-.66.95.48,1.5.52,2.39Z"/><path class="cls-17" d="M12.69,46.07c.67-.76.12-1.71.4-2.53.85.02.74.68.81,1.22.08.61-.17,1.29.39,1.79.56,1.49-.8,2.58-.84,3.94-.54-1.42-.92-2.88-.76-4.42Z"/><path class="cls-11" d="M52.76,47.87c.38-1.61,1.58-2.05,3.03-2.15-.99.74-1.34,2.4-3.03,2.15Z"/><path class="cls-11" d="M46.3,48.75c.72-1.3,1.95-.82,3.02-.86-.93.58-1.96.78-3.02.86Z"/><path class="cls-22" d="M14.27,10.28c.91-.75.35-1.77.48-2.66.81-.54,1.62-1.07,2.61-1.21.45,2.42,1.29,4.78.55,7.33-.29,1-.37,2.22-.06,3.18.87,2.73-.16,5.37-.11,8.06.03,1.49-.85,2.41-2.55,1.73-.47-.41-.59-.98-.59-1.56.03-4.27-.01-8.54-1.05-12.73-.19-.76-.43-1.74.72-2.15Z"/><path class="cls-24" d="M19.52,50.04c0-.29,0-.57,0-.86,1.9-1.59,3.52-3.35,4.62-5.67.46-.98,1.83-1.63,2.53-2.7,2.19-3.34,4.54-6.6,6.54-10.05,1.5-2.59,3.82-4.62,4.91-7.46,2.53-4.41,5.25-8.7,7.94-13.01.5-.81.93-1.66.25-2.59,2.7-.62,3.91-.06,4.93,2.21.32.71-.25,1.06-.57,1.48-6,7.88-11.99,15.77-18.05,23.61-3.69,4.78-7.48,9.47-11.64,13.85-.44.46-.77,1.06-1.48,1.2Z"/><path class="cls-8" d="M16.12,46.99c-.33.32-.67,1.26-.98-.01.63-6.33,2.11-12.54,2.75-18.88.64-6.29,1.15-12.58,1.18-18.9,0-.57-.06-1.18.09-1.72.34-1.2,1.57-1.78,2.45-1.77.98.02.31,1.29.44,2,.08.42.02.86.02,1.29-.65,6.72-1.28,13.44-2.58,20.07-1,5.13-2.09,10.25-3.17,15.37-.18.85-.31,1.69-.21,2.56Z"/><path class="cls-9" d="M14.27,10.28c-.27,1.81-.54,3.59.54,5.31.63,1,.44,2.22.44,3.36,0,2.59-.04,5.18-.06,7.77.1,6.63-.37,13.24-.91,19.84-.71.38-.77-.04-.83-.61-.09-.8.21-1.67-.37-2.4-.02-.57-.03-1.14-.05-1.71.38-1.42.5-2.89.84-4.31.01-6.9.09-13.81-.41-20.7-.12-1.67-.33-3.3-1.05-4.81-.51-1.07.18-1.61.81-2.19.66-.61.82.02,1.04.46Z"/><path class="cls-7" d="M46.32,7.69c.99.54,1.32,1.24.58,2.22-2.05,2.71-3.25,5.95-5.49,8.54-1.28,1.47-1.47,3.7-3.28,4.84.31-2.66,2.31-4.52,3.32-6.87.95-2.22,1.74-4.55,3.2-6.61.52-.73,1.94-.84,1.68-2.13Z"/><path class="cls-14" d="M13.87,37.51c-.08,1.48.52,3.09-.84,4.31-.4-3.55-.73-7.11-1.23-10.64-.55-3.95-1.08-7.93-2.29-11.75-.39-1.23-.19-2.15.42-3.54,1.84,7.72,2.35,15.28,3.23,23,.27-.54.49-.96.7-1.39Z"/></svg>