<?xml version="1.0" encoding="UTF-8"?><svg id="Layer_1" xmlns="http://www.w3.org/2000/svg" width="22.3mm" height="22.38mm" viewBox="0 0 63.22 63.43"><defs><style>.cls-1{fill:#92979c;}.cls-1,.cls-2,.cls-3,.cls-4,.cls-5,.cls-6,.cls-7,.cls-8,.cls-9,.cls-10,.cls-11,.cls-12,.cls-13,.cls-14,.cls-15,.cls-16,.cls-17,.cls-18,.cls-19,.cls-20,.cls-21,.cls-22,.cls-23,.cls-24{stroke-width:0px;}.cls-2{fill:#a5b8cb;}.cls-3{fill:#f6f5f4;}.cls-4{fill:#b7c7d6;}.cls-5{fill:#b4c3d3;}.cls-6{fill:#738ca3;}.cls-7{fill:#a3a9ae;}.cls-8{fill:#c2d6e5;}.cls-9{fill:#738ea1;}.cls-10{fill:#ccd8e1;}.cls-11{fill:#b2c4d4;}.cls-12{fill:#b8c8d6;}.cls-13{fill:#778c9f;}.cls-14{fill:#c9dae5;}.cls-15{fill:#f2f4f6;}.cls-16{fill:#eff2f5;}.cls-17{fill:#f3f4f6;}.cls-18{fill:#818d95;}.cls-19{fill:#f4f5f6;}.cls-20{fill:#b1c5d6;}.cls-21{fill:#b9c9da;}.cls-22{fill:#668ead;}.cls-23{fill:#798b9a;}.cls-24{fill:#6b8dab;}</style></defs><path class="cls-13" d="M2.08,34.34C.05,31.54-.67,28.53.72,25.24c.33-.77.35-1.52.37-2.3.03-1.08-.33-2.43.19-3.18,2.28-3.31,3.45-7.35,6.52-10.14,2.55-2.32,5.1-4.63,8.06-6.43.55-.33,1.08-.84,1.67-.95,6.16-1.08,12.23-3.08,18.62-1.87,1.69.32,3.38.66,4.83,1.72.95.69,2.04,1.02,3.18,1.24,5.24,1.02,8.75,4.52,11.96,8.43.16.43-.08.59-.44.69-1.55-.76-2.57-.29-3.6,1.11-2.25,3.05-3.5,6.62-4.9,10.01-1.99,4.83-4.21,9.57-5.94,14.52-1.96,5.63-3.5,11.39-5.53,16.99-.22.52-.37,1.09-.92,1.39-.75-.19-.75-.8-.77-1.39,1.36-5.66,2.96-11.26,4.58-16.85,1.16-3.55,2.3-7.11,3.39-10.68,1.81-5.92,4.2-11.63,6.18-17.48.4-1.19,1.06-1.83,2.47-.95-.85-2.09-2.57-2.88-4.23-3.7-.99-.49-1.61.25-2.26.81-1.49,1.43-1.64,3.39-2.06,5.23-.77,3.33-1.77,6.61-2.39,9.98-.27,4.47-1.79,8.69-2.57,13.05-1.04,5.85-2.24,11.66-2.66,17.62-.12,1.68-.23,3.7-1.47,5.21-1.41-.89-.64-2.34-.92-3.53.57-7.01.98-14.04,1.82-21.04.72-6,1.45-11.99,2.42-17.95.14-.85.25-1.71.64-2.49,3.31-1.69,2.55-5.44,4.02-8.08.56-1.01-1.15-.84-1.63-1.43-1.86-1.08-3.77-1.36-5.78-.4-1.66.52-3.19-.58-4.82-.37-3.76-.38-4.67,1.05-4.33,4.8.22,2.5.84,4.92,1.01,7.35.49,7.07.72,14.13,1.59,21.19.54,4.4,1.09,8.82,1.52,13.24.25,2.6,1.45,4.97,1.69,7.56-.11.67.04,1.49-1.06,1.51-.82.02-1.5-.03-2.01-.83-1.31-2.06-2.42-4.23-3.35-6.47-1.07-2.58-2.23-5.12-3.15-7.75-.31-1.22-1.3-2.26-.89-3.66,1.47-.68.85-2.43,1.75-3.41,1.27.28,1.39,1.46,1.52,2.35.79,5.38,2.77,10.4,4.54,15.48.09.26.2.53.18.61-4.34-16.2-6.82-32.93-9.27-49.73-1.74-.27-2.74,1.07-3.71,2.46-.4.48-.52,1.1-.79,1.65-.25.37-.59.64-1.04.6-2.09-.15-2.57,1.59-3.42,2.88-1.93-.33-2.68.96-3.33,2.4-.75.94-.45,2.1-.69,3.15-.05.19-.14.37-.25.54-.7.49-1.43.95-1.74,1.82-.75.68-.47,1.37-.1,2.14.42.88,1.07,1.78.28,2.8-2.21,1.63-1.42,3.93-1.32,6.05.04.91.58,1.75.53,2.69-.11.45-.18.94-.83.88Z"/><path class="cls-9" d="M2.08,34.34c.33-.19.4-.51.41-.86.93-.55,1.25.27,1.7.76,1.96,2.15,3.62,4.56,5.55,6.74.84.94,1.82,1.46,2.96,1.97,2.7,1.2,4.34,3.55,5.68,6.09.2.37.16.9-.06,1.26-1.06,1.72-.49,3.45-.1,5.19q-.89.71-2.15.1c-.2,1.46.11,2.88.02,4.3-.05.73.38,1.22,1.12,1.35.89.15.81-.54.94-1.09.33-1.43,1.31-.68,2.06-.56.82.12,1.29.89,2.01,1.2,1.3.55,1.08-.3.98-1.05,1.82-.71,3.55-.16,5.28.4.57.24,1.15.43,1.75.55,1.24.36,2.49.47,3.74.01,1.03-.51,1.89-1.17,2.1-2.39.11-.59.24-1.17.78-1.53.18-.08.36-.08.54-.02,1.31.74,1.31-.87,2.05-1.16,2.39-1.89,4.33-4.37,7.2-5.65,1.27-.16,1.42.69,1.48,1.63,2.72,2.45,2.99,5.76,3.01,9.07.02,2.46-.93,3.26-3.26,2.52-4-1.26-8.19-1.01-12.16-.96-5.09.07-10.32-.66-15.37.85-1.07.32-2.14.14-3.2-.06-2.44-.48-2.8-1.19-2.7-3.69.12-2.88.21-5.72,1.29-8.45.9-2.26-.42-3.72-2.1-4.86-3.76-2.58-7.04-5.68-10.02-9.11-.66-.76-1.3-1.53-1.55-2.55Z"/><path class="cls-1" d="M48.13,51.58c-.32-.78-.75-1.43-1.75-1.32-.1-1.93,1.48-2.63,2.69-3.55,1.48-1.12,3.09-2.05,4.62-3.11,2.84-1.97,4.16-5.05,6.25-7.55.23-.27.45-.61.47-.96.22-3.47,1.76-6.83.9-10.39-.15-.39-.31-.78-.5-1.15-1.31-2.69-3.18-5.08-4.28-7.88-.42-1.08-1.35-2.05-.82-3.37.13-.18.27-.36.4-.53,2.76,4.11,5.49,8.39,6.63,13.15,1.12,4.65.25,9.22-2.67,13.57-2.64,3.93-6.08,6.52-9.88,8.93-1.57.99-2.22,2.36-2.07,4.17Z"/><path class="cls-22" d="M17.92,55.53c-.85-1.72-1.28-3.31-.16-5.23,1.12-1.92-1.33-2.72-1.99-4.11-.2-.41-1.08-.81-1.41-1.56-.2-.47-.78-1.03-1.24-1.08-3.45-.39-4.63-3.27-6.41-5.56-1.25-1.62-2.8-3-4.21-4.49-.85-2.16-1.03-4.41-.85-6.69.1-1.27.43-2.44,2.09-2.38,2.52,1.16,4.02,3.27,5.29,5.64-1.34-3.21-3.73-5.79-5.02-9-.24-1.24-.4-2.47,1.07-3.12.02-.16.03-.33.05-.49,1.77.51,2.27,2.34,3.48,3.42.4.36.57,1.05,1.29.49.47-.19.99-.38,1.31.16.37.62-.07,1.04-.48,1.44-.92.55-1.08,1.23-.34,2.06.56.62.96,1.4,1.83,1.68.17.12.28.27.36.46-.6,1.91,1.08,2.54,2.02,3.59.98.95,2.12,1.83,1.04,3.43-.25.37.08.82.28,1.2,1.09,2.1,2.21,4.17,3.4,6.21,3.08,5.59,5.21,11.68,8.94,16.93.45.63.82,1.38.21,2.16-1.65-.69-3.39-.78-5.14-.86-1.18,0-2.14-.73-3.24-.99-.69-.16-.99-.76-1.05-1.46-.07-.79-.18-1.58-1.11-1.86Z"/><path class="cls-17" d="M55.72,12.3c1.3,4.02,3.85,7.42,5.57,11.22.19.91-.88,1.22-.94,2-.98,1.75-1.89,3.5-4.01,4.26-.99.36-1.54,1.49-2.14,2.37-4.3,6.19-8.89,12.19-12.88,18.6-1.21,1.95-2.1,4.09-3.56,5.89-.09.05-.18.1-.27.15-.14.02-.27.04-.41.06-.41.13-.58-.13-.69-.46.66-2.75,2.16-5.14,3.38-7.64,4.56-9.39,9.73-18.43,15.78-26.96.82-1.15,1.7-2.34.44-4.05-1.73,2.36-3.08,4.71-4.46,7.04-5.01,8.43-9.03,17.34-13.02,26.28-.71,1.6-.85,3.7-2.76,4.65-.36-.07-.59-.24-.5-.65,1.8-6.41,3.84-12.75,6.21-18.96,2.6-6.83,5.47-13.55,8.53-20.19.71-1.53,1.75-2.77,2.72-4.06.98-1.31,2.13-.59,3.02.45Z"/><path class="cls-17" d="M33.6,1.97c2.13-1.38,4.11-.6,6.08.4.45,1.03,1.17,2,.64,3.23-.19.45-.34,1.12-.9,1.04-.74-.11-.58-.82-.61-1.38.08,2.31-.21,4.56-1.34,6.63-2.36,13.89-3.76,27.89-4.78,41.93-.33,1.33-.25,2.65.05,3.98.16.74.31,1.77-.67,1.93-.76.13-.7-.88-.88-1.45-.22-.68-.34-1.38-.28-2.1-.75-3.22-.68-6.54-.79-9.8-.2-5.5-.18-11.04.9-16.49.32-1.6-.46-3.16-.17-4.75.01-.33.07-.65.14-.96.78-3.31.74-6.79,1.77-10.02,1-3.11.15-6.36,1.12-9.42.1-.16.21-.32.32-.46.32-.64-.32-.62-.59-.85-.59-.48-.85-.95-.03-1.46Z"/><path class="cls-17" d="M29.72,56.39c-1.62-5.64-2.55-11.43-3-17.25-.4-5.21-1.58-10.37-1.53-15.55.03-3.36-.58-6.67-.34-10.01.05-.66.09-1.26-.65-1.66-.5-.27-.75-2.11-.42-2.56.59-.82.92-1.94.27-2.57-.79-.78-.3-1.45-.21-2.05.49-3.25,1.63-3.94,5-3.21.06.04.11.09.18.12.79.34,2.23-.4,2.33.81.1,1.22-1.52.55-2.15,1.16-.29,3.87-.23,7.74-.02,11.59.18,3.22.34,6.44.32,9.67-.03,7.74.48,15.46.79,23.18.1,2.39,0,4.86.75,7.21-.15,1.09.08,2.13.31,3.18.12.53.12,1.31-.64,1.35-.51.03-.69-.63-.86-1.11-.27-.76.37-1.57-.14-2.31Z"/><path class="cls-19" d="M14.13,6.68c1.13-1.78,2.19-3.65,4.83-3.02.39.09.95-.13,1.13.38.23.65-.39.51-.72.7-.69.42-.09,1.03-.01,1.52,2.45,16.09,4.82,32.2,9.06,47.95.13.48.59,1.04.02,1.72-1.59-1.16-1.72-3.1-2.25-4.67-1.19-3.5-2.65-6.93-3.3-10.6-.31-1.76-.4-3.55-1.33-5.14-.49-.25-.74-.7-.84-1.19-.81-3.99-2.12-7.85-3.07-11.8.75-1.71-.38-3.36-.19-5.05.02-.17.02-.35-.14-.34-.54.03-1.4.42-1.46-.33-.18-1.96-1.61-3.72-1.38-5.56.21-1.64-1.09-3.01-.34-4.57Z"/><path class="cls-3" d="M43.97,5.85c.62-1.66,1.81-1.58,3.05-.88,1.55.87,3.05,1.84,4.03,3.42.3.48.89.88-.02,1.31-.51.25-.96,1.08-1.19-.38-.15-.93-.88-.15-1.05.31-1.92,5.38-3.84,10.75-5.67,16.16-1.4,4.12-2.67,8.27-4,12.41-1.69-.99-2.45-4.12-1.27-6.44,2.19-4.31,1.98-9.25,3.76-13.65.13-.32.05-.71.09-1.07.02-1.82.31-3.75.68-5.39.41-1.88.41-4.08,1.61-5.81Z"/><path class="cls-24" d="M18.05,22.26c1.43,4.35,2.62,8.77,3.5,13.26-.02.72-.11,1.44-.05,2.15.1,1.19-.51,1.52-1.55,1.43-1.08-.34-1.17-1.39-1.5-2.22-1.73-4.27-2.97-8.72-4.86-12.93-1.36-3.02-2.57-6.1-3.97-9.1-.45-.96-1.1-1.94-.21-3-.33-1.39,1.16-1.86,1.46-2.77.68-2.06,2.05.26,2.76-.66.76.6.46,1.46.48,2.2.09,2.56,1.08,4.77,2.27,6.97.78,1.44,2.32,2.68,1.67,4.65Z"/><path class="cls-16" d="M9.41,11.85c.03,2.85,1.8,5.1,2.87,7.52,2.62,5.95,4.73,12.08,7,18.15.2.53.45,1.05.68,1.57.38,1.14.75,2.29,1.13,3.43.32.54.18.96-.43,1.08-.39.08-.87.05-1.02-.45-.16-.53-.32-1.06-.73-1.46-1.78-2.08-2.48-4.8-4.11-6.98-.08-.1-.13-.35-.07-.4,1.69-1.42.13-2.34-.51-3.4-1.16-1.04-1.62-2.41-1.8-3.91h0c-1.53-1.01-2.51-2.29-2.08-4.26.22-.35.71-.87.61-1.02-.32-.51-.7.11-1.09.14-1.4-.21-1.2-1.63-1.63-2.44-.93-1.73-2.06-3.42-2.4-5.44.22-.77.62-1.43,1.13-2.04.8-.94,1.59-1.19,2.45-.09Z"/><path class="cls-17" d="M42.22,16.61c.13,1.31-.05,2.58-.59,3.77-1.52,3.35-.77,7.34-2.72,10.47-1.41,2.27-.83,4.36-.46,6.57.05.29.43.53.66.79-1.55,5.63-3.09,11.26-4.64,16.89-.52.56.03,1.26-.21,1.83-.21.5-.49,1.23-1.13.29.63-5.76,1.41-11.5,2.35-17.22.95-5.8,2.49-11.46,3.66-17.21.09-.46.01-.95.01-1.43.78-.87.85-2.08,1.45-3.04.42-.67.49-1.7,1.62-1.71Z"/><path class="cls-14" d="M33.13,57.22c.78.44.74-.22.83-.64.12-.51-.08-1.12.51-1.48.11.41-.16.94.39,1.2,1.05,1.06.2,2.13-.03,3.32-.06.14.34-.1.06-.12-.08,0-.09-.09,0-.21.44-.55.5-2,1.72-.74-.17,1.32-1.2,1.91-2.17,2.56-1.44-.54-2.87-.08-4.3.02-.63.13-1.16-.14-1.68-.43-.21-2.26-1.91-3.78-2.92-5.61-1.9-3.44-3.75-6.88-5.13-10.58-.36-.96-1.58-1.55-1.51-2.8.63.03.71.5.93.99.47,1.06.95.87,1.25-.15,2.07,4.54,3.59,9.33,6.29,13.57.23.36.27,2.1,1.3.41.12-.21.41.23.62.36.82.52.14-.44.43-.48.79.83.22,2.13,1.14,3.04.39-1.39-.66-2.62-.27-3.92.5-.16.75.08.86.54.17,1.1.34,2.21.57,3.71.64-2.23-.26-4.19.68-5.95.27,1.12-.38,2.36.44,3.41Z"/><path class="cls-21" d="M42.22,16.61c-1.5,1.28-1.11,3.77-3.06,4.75.69-3.45,1.6-6.85,2.42-10.28.34-1.4.86-2.74,1.14-4.14.17-.84.55-1.06,1.26-1.09-.72,1.75.69,4.02-1.33,5.45,1.05,1.86-.3,3.54-.42,5.31Z"/><path class="cls-8" d="M4.23,20.95c1.82,2.78,3.6,5.59,5.47,8.34.48.71.41,1.13-.19,1.61-.9.72-.93-.25-1.1-.64-1.03-2.38-2.99-4-4.67-5.84-.12-1.08-.52-2.01-1.16-2.91-.55-.78-.72-1.69.75-1.75.78.04.61.79.9,1.2Z"/><path class="cls-4" d="M18.05,22.26c-.14-2.08-1.85-3.35-2.6-5.13-1.18-2.79-2.37-5.56-1.82-8.7.18-.58-.12-1.3.5-1.75.08.76-.11,1.6.74,2.11.22.13.54.51.48.62-1.09,2.2.47,3.96.92,5.91.11.46-.02.97-.05,1.51.87.16,1.52-1.27,2.6-.21-1.13.74-1.12,1.63-.56,2.82.4.85.51,1.94-.21,2.84Z"/><path class="cls-5" d="M5.83,13.99c2.1,2.24,2.65,5.27,4.04,7.88-.55.31-.71,1.12-1.46-.27-.78-1.43-1.94-2.97-3.28-4.16.16-1.17-.53-2.51.71-3.45Z"/><path class="cls-11" d="M36.62,58.55c-1.11-.62-1.04.99-2.04.94-.04-1.05.55-2.11.28-3.18-.04-.47-.04-.92.38-1.24.18.16.35.32.53.49.4.14-.1,1.19.82.81.16.16.32.32.47.49-.35.52-.44,1.1-.45,1.7Z"/><path class="cls-15" d="M61.7,24.36c.4,2.3.05,4.58-.02,6.86-.11,3.63-2.34,5.94-3.6,8.85-.39.9-1.05,1.59-1.8,2.1-2.18,1.49-3.91,3.57-6.36,4.72-1.51.71-2.63,1.96-3.54,3.37-2.24,1.91-4.47,3.83-6.7,5.74-.18.15-.36.15-.54,0,.11-1.71,1.49-2.61,2.41-3.8,1.94-2.01,3.85-4.06,5.68-6.17,3.39-3.9,6.97-7.61,10.96-10.91.32-.27.67-.54.71-1.22-1.72,1.48-3.23,2.97-4.63,4.55-3,3.38-6.38,6.39-9.13,10-1.03,1.34-1.25,1.27-1.93.12,1.63-2.96,3.51-5.77,5.62-8.39,3.68-4.58,6.85-9.62,11.5-13.36.73-.66-.2-2.26,1.37-2.44Z"/><path class="cls-10" d="M17.92,55.53c1.65-.57,1.85.43,1.62,1.63-.15.82.07,1.38.83,1.31,1.32-.14,2,.86,2.95,1.38.17.72,1.87.35,1.27,1.24-.6.9-2.28.95-2.88.24-.88-1.02-2.03-1.02-3.03-1.59-.49.68.81,1.56-.12,2.07-.8.44-1.69.05-2.48-.28-.99-.41-.63-1.27-.6-2.05.04-1.35-.01-2.71-.02-4.06,0-.43,0-.95.52-1.06.61-.12.58.43.71.83.22.71.65.89,1.23.33Z"/><path class="cls-12" d="M45.67,54.64c.09.41.12.86.29,1.23.33.69,1.15,1.58.25,2.03-.76.38-1.66,1.58-2.83.47-.67-.64-1.31-.11-1.94.25-.89.5-1.71,1.25-2.95.99,1.93-2.47,4.19-4.24,7.18-4.95v-.02Z"/><path class="cls-17" d="M30.14,61.13c1.35-1.09,3.68-1.1,4.3-.02-1.43.67-2.87.52-4.3.02Z"/><path class="cls-12" d="M49.01,57.87c-.26.87-.48,1.59-.67,2.31-.11.4-.09.92-.72.73-.37-.11-.59-.49-.45-.84.36-.85-.08-2.31,1.84-2.2Z"/><path class="cls-12" d="M45.68,54.66c.15-.15.28-.39.45-.42.76-.13.98-1.6,2.09-.84.38.26.4.66.07.86-.8.49-1.61,1.24-2.62.38,0,0,.01.02.01.02Z"/><path class="cls-11" d="M39.11,55.93c.19.02.38.05.57.07-.66.89-1.4,1.69-2.54,2.4.14-.7.23-1.16.33-1.62,0,0-.02.02-.02.02.51-.37.85-1.07,1.66-.88Z"/><path class="cls-2" d="M10.34,22.75c.47,1.53,1.16,2.95,2.08,4.26-2.14.07-2.51-1.8-3.22-3.14-.39-.74.58-.91,1.14-1.13Z"/><path class="cls-2" d="M12.42,27.01c.78,1.22,1.4,2.51,1.8,3.91-.99-1.12-3.59-1.5-1.8-3.91Z"/><path class="cls-23" d="M36.59,56.36c-1.09.56-.78-.3-.82-.81,2.52-4.35,4.18-9.1,6.26-13.65,3.8-8.32,8.22-16.28,13.02-24.05.27-.43.74-1.37,1.18-.9.75.79,1.39,1.89,1.07,3.12-.14.53-.55,1-.89,1.46-4.82,6.72-9.21,13.73-12.96,21.07-2.33,4.56-4.87,9.03-6.87,13.76Z"/><path class="cls-18" d="M59.96,25.31c1.4.27.76,1.33.83,2.13-1.82.84-3.04,2.35-4.28,3.84-4.63,5.56-8.87,11.4-13,17.34-.14,1.48-1.38,2.51-1.66,3.93-.91,1.13-1.82,2.26-2.74,3.39-.6.2-.9.98-1.66.88,1.58-3.62,3.66-6.96,5.89-10.19,3.86-5.61,7.84-11.14,11.87-16.63.98-1.34,3.11-1.47,3.82-3.26.2-.52.62-.96.94-1.43Z"/><path class="cls-6" d="M28.77,2.47c.11,1.02-.11,2.31,1.61,1,1.63-1.24,2.66.83,4.06,1.06,0,0,0,0,0,0-1.56.82-1.44,2.31-1.53,3.74-.34,5.25-.87,10.49-1.49,15.71,0,.28-.01.56-.02.84-.5,1.79-.15,3.51.44,5.22-.16.68-.73,1.16-.75,1.97-.1,4.52-.53,9.04-.37,13.55.09,2.46.24,4.95.18,7.41-.03,1.15,1.66,1.88.54,3.1-.29-.18-.57-.36-.86-.54-1.15-10.7-1.56-21.44-1.84-32.19-.17-6.8-.05-13.6-.67-20.39-.05-.59.33-.5.69-.47Z"/><path class="cls-20" d="M31.42,23.99c-.1-5.88.81-11.71.93-17.58.03-1.34.81-1.9,2.09-1.87-.89,1.75-.74,3.91-.42,5.44.46,2.19-1.34,3.51-1.08,5.47.09.7-.45,1.77-.39,2.65.13,2.09-.78,3.93-1.13,5.9Z"/><path class="cls-20" d="M31.84,30.04c-1.08-1.66-1.09-3.41-.44-5.22.15,1.74.29,3.48.44,5.22Z"/><path class="cls-7" d="M41.85,52.54c-.85-1.91,1.17-2.59,1.66-3.93q.75.35,1.35-.36c3.91-4.68,8.05-9.16,12.36-13.47.75-.75,1.47-1.56,2.63-2.01-.21,1.04-.2,1.92-1.13,2.67-5.55,4.46-10.41,9.61-14.93,15.11-.59.71-1.29,1.33-1.95,1.99Z"/></svg>