<?xml version="1.0" encoding="UTF-8"?><svg id="Layer_1" xmlns="http://www.w3.org/2000/svg" width="23.42mm" height="21.1mm" viewBox="0 0 66.4 59.8"><defs><style>.cls-1{fill:#f3f4f4;}.cls-1,.cls-2,.cls-3,.cls-4,.cls-5,.cls-6,.cls-7,.cls-8,.cls-9,.cls-10,.cls-11,.cls-12,.cls-13,.cls-14,.cls-15,.cls-16,.cls-17,.cls-18,.cls-19,.cls-20,.cls-21,.cls-22,.cls-23,.cls-24,.cls-25,.cls-26,.cls-27,.cls-28,.cls-29,.cls-30,.cls-31,.cls-32,.cls-33,.cls-34,.cls-35,.cls-36,.cls-37,.cls-38,.cls-39{stroke-width:0px;}.cls-2{fill:#c0d1dc;}.cls-3{fill:#d7e1e7;}.cls-4{fill:#d4e5ef;}.cls-5{fill:#d7e3ea;}.cls-6{fill:#668eae;}.cls-7{fill:#bfd7e7;}.cls-8{fill:#7e8c94;}.cls-9{fill:#d8e6ee;}.cls-10{fill:#deeaf1;}.cls-11{fill:#eaf1f4;}.cls-12{fill:#6f8da5;}.cls-13{fill:#c3d4e0;}.cls-14{fill:#6c8eaa;}.cls-15{fill:#bdd4e3;}.cls-16{fill:#c1daeb;}.cls-17{fill:#7c8b9b;}.cls-18{fill:#a8c3da;}.cls-19{fill:#c0d8e8;}.cls-20{fill:#ebf0f4;}.cls-21{fill:#e9eff3;}.cls-22{fill:#b9c4d2;}.cls-23{fill:#d5e2e8;}.cls-24{fill:#f4f3f3;}.cls-25{fill:#bcc7cf;}.cls-26{fill:#738ba1;}.cls-27{fill:#afb5bb;}.cls-28{fill:#bfd1e1;}.cls-29{fill:#f9f6f4;}.cls-30{fill:#edf1f3;}.cls-31{fill:#d9e5ec;}.cls-32{fill:#dde5ed;}.cls-33{fill:#bed7e4;}.cls-34{fill:#bdd4e6;}.cls-35{fill:#8f999f;}.cls-36{fill:#cae2ea;}.cls-37{fill:#dfe4e7;}.cls-38{fill:#d2dfe7;}.cls-39{fill:#979da3;}</style></defs><path class="cls-6" d="M.26,31.08c-.23-4.33,2.15-7.69,4.3-11.05,4-6.26,9.86-10.37,16.45-13.48C30.44,2.11,40.34-.39,50.82.05c3.14.13,6.33.44,8.93,2.59,3.32,5.98,6.17,12.13,5.77,19.19-.22,3.8-1.84,7.31-2.95,10.92-.25.8-1.08,1.1-1.91,1.18-1.49-.18-2.42-1.43-3.76-1.95-3.78-1.48-7.76-1.66-11.71-1.97-1.77-.14-3.57-.11-5.35.13-1.76.23-3.35.72-4.35,2.33-1.55-.52-2.97.08-4.3.7-2.91,1.34-5.89,2.55-8.55,4.38-1.73.97-2.94,2.89-5.22,2.86-2.47-1.37-2.6-2.52-.07-4.08,1.4-.86,2.47-2.28,4.39-2.49.97-.11,2.19-1.1,2.38-2.28.27-1.67,1.23-2,2.64-2.12.85-.07,1.65-.49,2.34-1.03.97-1.46,2.61-.55,3.91-1.06,1.42-.57,3.08-1.08,4.75-.69.87.49,1.86.54,2.72.24,3.5-1.21,7.1-.54,10.65-.72.91-.02,1.78.19,2.64.5.61.21,1.3.71,1.81-.18.14-.96-.76-.82-1.21-1.17-1.2-.92-2.68-1.67-2.34-3.6.12-.58.31-1.15.17-1.75-1.36-.9-2.06-.65-2.53.92q-.91,3-4.02,3.02c-1.01,0-2.03-.13-3.02.02-2.22.33-4.05-.63-5.9-1.56-.85-.63,0-.91.32-1.36-1.57-.91-3.09-.21-4.54.18-1.31.35-2.67.46-3.92.77-4.71,1.18-8.87,3.51-12.18,7.18-.08.18-.21.32-.37.44-.86.4-1.63.85-.99,2-.16,2.61-.56,3.1-3.18,3.97-2.14-.91-.57.95-.98,1.33-.09,1.79-1.66,3.38-.73,5.31.09.39.2.79.26,1.19-.09,1.18.14,2.25.91,3.21.54.67,1,1.46.26,2.32-.82.95-1.57.14-2.31-.14-1.17-.44-2.12-1.28-2.86-2.21-1.87-2.34-3.73-4.7-5.24-7.3-.91-1.56-.29-3.36-.58-5.04-.17-1.04.3-2.15-.33-3.14Z"/><path class="cls-12" d="M.26,31.08c.36-.12.73-.22.75.35.05,1.71.46,3.55.2,5.09-.31,1.85.5,3.02,1.36,4,1.9,2.16,3.01,4.93,5.31,6.75.28.22.48.63.79.71.87.24,1.68,1.57,2.59.63.9-.94-.28-1.65-.84-2.28-.91-1.03-.61-2.11-.34-3.23,1.19-.52,2.26-1.06,2.52-2.61.06-.35.99-1.17,1.82-.86.98.37,1.38,1.16,1.22,2.21-.76,1.24-1.55,2.47-1.22,4.04-.74.36-.97.68-.16,1.32.99.79,2.36.68,3.27,1.57-.25-.78-.92-.83-1.54-.93-.9-.15-1.15-.7-1.01-1.53-.19-2.27.55-3.02,2.85-2.8.93.09,1.69.15,1.16-1.16-.06-.19-.08-.39-.05-.59,1.07-1.48,2.94-1.68,4.32-2.68.85-.18,1.58-.6,2.29-1.08.53-.36,1.08-.69,1.7-.86.91-.24,2.13-1,2.62.18.38.91-.86,1.23-1.63,1.55-.26.11-.38.26-.14.1.07.12.16.23.28.33.14.26.15.52.1.79-.34,1.02.7.83,1.07,1.22.21.22.3.49.35.77.45,1.19,1.45,1.9,2.34,2.71.2.22.36.46.5.72.95.7,2.23,1.46,1.47,2.77-.64,1.11-1.9,1.7-3.3.89-.48-.28-.96-.16-1.41.11-.43.26-.79.62-1.28.78-1.1.21-2.13.65-3.18,1.03-.47.13-.95.26-1.56.11,1.56,1.29,1.19,2.73.51,4.2-.2.09-.39.07-.56-.07-4.11-2.59-9.02-3.21-13.29-5.51C3.25,46.12-1.15,39.68.26,31.08Z"/><path class="cls-17" d="M60.55,33.8c2.07-.56,2.14-2.68,2.43-4.04.77-3.62,2.68-7.07,1.96-10.96-.44-2.4-.97-4.77-1.67-7.13-.93-3.12-2.84-5.84-3.53-9.03.72.27,1.17.84,1.54,1.44,6.4,10.32,6.9,20.85.9,31.5-3.13,5.56-6.39,11.05-10.68,15.84-2.35,2.63-4.9,5.03-8.21,6.45-.42.37-.73.2-1-.19-.45-1.31,1.3-1.8,1.12-3.01-.09-.63-1.28-.81-.83-1.52.47-.75,1.54-.74,2.11-.31,1.29.95,2.34.45,3.46-.17.65-.27,1.05-.79,1.38-1.38.64-.81-.02-1.33-.43-1.9-.53-.88.03-1.64.25-2.44.8-.48,1.51.1,2.27.16.64.05-.05-.25,0-.4-.38-.73-.63-1.44.62-1.41,2.14.04,3.14-1.06,3.68-3.09.44-1.64,2.23-2.54,2.89-4.15.14-1.02-.61-1.4-1.31-1.74-2.08-1.01-4.25-1.92-6.59-1.56-2.83.44-5.94-.3-8.41,1.84-.26.23-.68.16-1.04.11-.31-.07-.58-.2-.78-.45-.1-1.28-1.4-1.08-2.06-1.67-.21-.33-.1-.59.18-.82,1.15-.73,2.44-.71,3.73-.72,3.7-.02,7.39,0,11.19,0-2.03-.69-4.07-.28-6.02-.65-.62-.19-1.26-.25-1.9-.35-.47-.07-1.12-.13-1.11-.75.01-.62.67-.7,1.15-.74,3.15-.26,6.25-.07,9.35.68,2,.49,3.52,1.82,5.36,2.55Z"/><path class="cls-39" d="M42.44,57.41c.18.36.5.44.86.47-4.2,2.46-8.63,2.32-13.06.93-2.44-.77-4.88-1.68-6.84-3.47.18-.02.37-.03.55-.05.59-.25,1.13-.71,1.85-.43.29.17.55.73.85-.03.25-.62.7-.81,1.3-.39.29.33.19.95.57,1.12,3.61,1.61,7.15,3.77,11.34,1.91.67-.3,1.31-.6,2.06-.41.2.07.37.18.5.34Z"/><path class="cls-26" d="M11.91,35.42c1.45-.92,2.78-1.94,2.94-3.86.17-.89.71-1.55,1.29-2.2l-.02.02c3.38-2.15,7.07-3.75,10.45-5.89.75-.47,1.31-.43,1.94.06.65.69,1.42.9,2.35.68,1.75-.41,3.52-.66,5.48-.68-.6-.94-2.18-.27-2.24-1.63.82-1.12,1.56-.52,2.31.1.91.03,1.85-.16,2.49.84.39.61,1.16.46,1.79.46,2.01,0,4.02-.07,6.02.02,1.55.07,2.46-.2,2.29-2.07-.1-1.11.52-2.11,1.6-2.59.8-.35,1.54.11,2.19.57.29.2.23.48-.07.67-.39.48-1.06.32-1.53.65.23.56,1.01.48,1.22,1.04-.24,1.95,1.25,2.88,2.58,3.3,1.24.4,1.38.92,1.27,1.92-.9.31-1.74-.03-2.47-.44-3.57-1.98-7.45-1.42-11.26-1.5-.19,0-.41.12-.52.66,2.31.25,4.62,0,6.9.13,1,.06,2.19-.32,2.67,1.06-1.57,0-3.14-.03-4.71.03-1.96.08-3.89-.21-5.85.69-1.02.47-2.69.75-3.73-.63.37-.73,1.3-.54,2.14-1.51-2.67.8-5.01.85-7.26,1.55-1.91.6-3.87.97-5.89.59-2.97,2.85-6.74,4.65-9.73,7.48-1.54,1.46-3.52,2.44-4.55,4.44-.36.69-.85,1.3-1.03,2.09-.15.64-.39,1.29-1.3.87-1.18-2.07.43-3.72.84-5.54.26-.68.6-1.26,1.4-1.41Z"/><path class="cls-30" d="M9.67,42.37c1.7-.39.59-2.26,1.82-3.27,1.4-1.16,2.55-2.65,4.03-3.9,1.72-1.46,3.56-2.78,5.3-4.22.66-.54,1.35-1.12,2.12-1.43,1.16-.47,1.95-1.13,2.23-2.38.19-.87.53-1.03.95-.1.84.21,1.7.28,2.56.34,1.16.08,1.28.62.85,1.53-1.29.6-2.52,1.38-4.02,1.31-.26-.01-.61-.24-.57.23.16,1.71-1.43,2.33-2.1,3.5-.72,1.25-2.27,0-3.05,1.31-.26.44-.95,2.07-2.36,1.24,0,0-.44.48-.39.65.33,1.23-.26,1.34-1.32,1.19.57.61,1.15,1.21,1.72,1.82.87.27,1.42.86,1.72,1.7.04.14.04.28.01.43-1.57,1.66-2.66,1.54-3.87-.43q-.14-1.18-1.15-1.97c-1.09-.43,1.48,2.05-.63.8-.55-.33-.71-.38-.55.39.18.89-.87,1.26-1.03,2.15-.17.95-.75.9-1.07-.1-.15-.49-.5-.37-.79-.06-.35-.13-.33-.45-.39-.73Z"/><path class="cls-1" d="M28.23,39.32c-.47.07-.94.13-1.65.23.69-1.42,2.45-1,3.16-2.3-1.69-.11-2.88.71-4.17,1.39-.65.34-1.08,1.56-2.16.79-.8-.56-1.77-1.02-1.26-2.3,3.57-2.15,7.35-3.88,11.19-5.48.63-.26,1.6-.61,1.82.67.89.85,1.06,1.76.25,2.76-.78.49-1.62.78-2.5.83.83.1,1.57-.49,2.43-.47.52.01,1.04.11,1.21.69.15.5-.19.85-.6,1.01-2.51.98-4.88,2.45-7.73,2.19Z"/><path class="cls-23" d="M28.21,23.74c-.26-.11-.68-.39-.75-.31-2.69,2.65-6.63,3.22-9.45,5.64-.57.49-1.14.88-1.88.32-.78-1.21.47-1.49,1-1.94,3.24-2.71,6.98-4.6,10.79-6.36.13-.06.3-.19.38-.14,2.36,1.38,4.21-.74,6.33-.9,1.09-.08,2.22.21,3.33.4.18.03.39.4.43.64.06.36-.28.46-.57.5-.49.07-1.02,0-1.39.44-.69.23-1.43-.72-2.1.08-1.71,1.75-3.86,1.86-6.11,1.64Z"/><path class="cls-37" d="M35.12,34.86c.85-.83,0-1.7.05-2.55.16-1.74,1.36-2.21,2.85-2.46,4.98-.86,9.86-.48,14.82.48,2.94.57,5.55,1.39,7.71,3.47-.27.29-.64.46-.95.21-4.31-3.59-9.4-3.07-14.52-2.77.84.59,1.92-.01,2.66.68-.8.87-1.87.61-2.84.62-1.94.02-3.88,0-5.79.5-.71.19-1.45.33-1.28,1.35-.79.84-1.65,1.25-2.71.47Z"/><path class="cls-4" d="M28.47,17.03c3.61-1.72,7.47-2.5,11.39-3.19,2.87-.51,5.6.42,8.41.4.84,0,1.68-.02,2.52.04.44.03,1.16-.12,1.01.71-.09.51-.45,1.03-1.05.76-2.21-.99-4.65-.52-6.91-.73-2.3-.21-4.94.32-7.36.92-2.35.59-4.83.6-7.07,1.67-.29.14-.72.05-.94-.58Z"/><path class="cls-38" d="M51.59,26.77c-2.44-.89-4.98-.4-7.48-.57-1.15-.08-3.23.82-3.24-.85-.01-1.71,2.12-1.07,3.34-1.08,2.39-.03,4.82-.08,7.15.37,1.71.33,3.28,1.44,4.91,2.2-.45,1.53-1.57.9-2.33.54-.77-.37-1.47-.73-2.35-.62Z"/><path class="cls-9" d="M9.14,25.01c-.41.29-.78.64-1.23.87-.41.21-.9.13-1.12-.32-.24-.51.36-.62.53-.92.95-1.57,2.81-2.38,3.44-4.17.09-.26,0-.63.37-.62,1.96.07,2.98-1.5,4.41-2.38.63-.39,1.28-1.84,2.4-.38,1.17,1.53-1.16,1.01-.99,1.89-2.28.95-4.18,2.37-5.59,4.43-.53.78-1.34,1.27-2.23,1.61Z"/><path class="cls-38" d="M29.52,28.94c.06-.84-.28-1.16-1.17-1.35-.74-.15-1.69.39-2.25-.52,3.55.82,6.64-1.71,10.15-1.45.67.05,1.47-.67,2.31-.83.74-.14,1.53-.29,1.72.68.18.94-.75.89-1.3,1.07-.54.18-1.12.21-1.68.31-1.7.74-3.68.45-5.3,1.47-.76.48-1.95-.82-2.48.61Z"/><path class="cls-10" d="M17.79,19.24c1.44.36,1.74.88.38,1.88-1.44,1.06-2.78,2.25-4.17,3.39-.59.48-1.25.93-.11,1.55.31.17.61.5.23.87-.34.33-.7.03-.96-.16-.75-.54-1.47-1.14-2.2-1.71-.14-1.66,1.5-1.9,2.29-2.79,1.23-1.38,2.59-2.67,4.54-3.01Z"/><path class="cls-8" d="M17.79,19.24c-2.41,1.78-4.8,3.59-6.83,5.81-.61-.01-1.21-.02-1.82-.03,1.62-1.71,3.03-3.59,4.89-5.1.92-.75,1.82-1.04,2.93-.94.28.09.56.18.83.26Z"/><path class="cls-16" d="M37.63,5.9c-.28.8-.82.88-1.28.95-4.07.66-7.82,2.2-11.48,4.03-.4.2-.83.48-1.15.07-.38-.5.12-.78.49-.95,4.12-1.83,8.28-3.54,12.75-4.33.18-.03.39.12.67.22Z"/><path class="cls-2" d="M22.16,37.13c-.08,1.04,1.14,1.37,1.26,2.3-1.14,1.31-2.94,1.48-4.26,2.47-.73-.41-1.29-1-1.72-1.7.19-.21.38-.59.56-.59,1.9,0,2.59-1.99,4.17-2.48Z"/><path class="cls-15" d="M52.41,21.63c-.87-.29-2.51-.02-2.35-1.11.19-1.35,1.74-.38,2.67-.59.03.59.34,1.23-.31,1.7Z"/><path class="cls-33" d="M24.49,12.64c.88.41,1.36,1.17,1.44,2.14.03.36-.36.69-.73.58-1.03-.31-1.23-1.3-1.47-2.16-.09-.33.29-.6.77-.56Z"/><path class="cls-34" d="M11.91,35.42c-.44.5-.63,1.23-1.4,1.41-.82-.67.3-1.6-.31-2.3.15-.12.31-.33.45-.33.76.03,1.1.54,1.25,1.22Z"/><path class="cls-23" d="M16.14,29.36c.3,1.16-.52,1.66-1.29,2.2-.41-.33-1.3-.84-.85-1.13.63-.4.92-1.83,2.14-1.06Z"/><path class="cls-7" d="M19.42,22.88c-.55-.1-1.02-.34-.93-.79.14-.7.77-.93,1.44-.96.38-.02.8.13.73.55-.12.69-.71.98-1.24,1.2Z"/><path class="cls-24" d="M51.98,46.62c.31.34,1.17.27,1,.83-.19.68-.87.49-1.42.27-.69-.29-1.33-.8-2.16-.59-1.69.28-3.41.64-5.11.51-3.79-.29-7.21.73-10.52,2.41-.76.39-1.6.75-2.45.75-1.22,0-2.48-.16-2.21-1.94.76-.08,1.52-1.65,2.32.13.3.67,1.16.14,1.61-.33.3-.3,1.35.06.86-.99-.23-.49-.04-1.18-.97-1.05-.45.06-.72-.38-.82-.84.47-.9,1.29-1.31,2.22-1.53,3.45-.83,6.81-2.14,10.44-2.06,1.2.19,2.78-.47,3.11,1.59.11.66.89.55,1.45.43.62-.13,1.14-.56,1.81-.53.93.22,1.45.62.58,1.5-.65.65-.38,1.07.26,1.45Z"/><path class="cls-35" d="M45.02,42.71c-4.49.23-8.77,1.34-12.9,3.06,0-.28,0-.55,0-.83.77-1.57,2.45-1.59,3.8-2.25-1.19.08-2.24.61-3.36.8-.58.1-1.25.14-1.43-.58-.18-.7.41-1.02.95-1.24,1.29-.53,2.8-.46,4.31-1.55-2.03.24-3.47,1.02-4.94,1.7-.62.29-1.14.96-1.94.44,0-.26,0-.52,0-.78,1.16-2.22,3.57-2.11,5.28-2.92-1.38.28-2.82,1.02-4.35,1.48-.71.21-1.49.66-2.23.02,0-.24.01-.49.02-.73,2.68-.97,5.5-1.53,8.36-2.99-2.1-1.02-3.71.56-5.71.48,1.18-1.65,3-1.18,4.25-1.95.91-.15,1.83-.24,2.66-.71.28-.24.55-.24.82.01.18.16.35.31.53.47,0,.41-.32.61-.65.92.77.27,1.68-.47,2.28.36.16.13.32.27.48.4-.24,1.12-1.22.66-1.86.97,2.62-1.04,5.48-.26,8.13-1.12.2-.06.4-.07.6-.04.95.62,2.06.36,3.08.59,1,.23,1.82.66.8,1.83-.06.06-.05.1.17.2.47.22.87.48.9,1.06-.03.21-.14.38-.31.5-1.26.16-2.44-.27-3.52-.79-3.41-1.64-6.79-.92-10.22-.07.75.63,1.74-.01,2.48.54.5.78-.19.82-.63,1.01-.35.38-.86.55-1.33.92.67-.15.95-.7,1.44-.96,1.16,1,2.74.6,4.02,1.22.12.11.16.23.13.36-.03.12-.06.19-.1.19Z"/><path class="cls-27" d="M29.12,48.85c.58,1.45,1.56,1.84,3,1.21,1.37-.6,2.84-1,4.13-1.73,3.72-2.11,7.9-.7,11.76-1.63.41-.1.93.27,1.4.43.45.71-.45,1.4-.02,2.11-.29.26-.66.37-1,.23-5.11-2.17-9.81-.31-14.53,1.42-.49.17-1.33.17-.35.95.7.56.74,1.24-.13,1.68-.82.41-2.27.92-2.43-.01-.42-2.33-1.68-.9-2.63-.89-.73-.05-1.38-.24-.77-1.12.38-.55.48-1.15.62-1.75.31-.29.62-.59.94-.88Z"/><path class="cls-21" d="M29.51,42.26c1.92-.97,3.79-2.04,5.85-2.69.72-.23,1.47-.54,1.79.42.39,1.19-.74.91-1.29,1.19-1.41.71-3.21.37-4.76,1.77,1.89.15,3.23-.61,4.65-.89.61-.12,1.48-.5,1.67.32.22.95-.82.7-1.35.87-1.37.45-2.71.93-3.95,1.68-1.61-.18-2.17-1.37-2.61-2.68Z"/><path class="cls-13" d="M25.62,47.5c-.88,1.4-1.8,2.18-3.49.88-.9-.69-2.17-.91-3.27-1.32-.58-.22-1.14-.56-.91-1.23.22-.66.78-.43,1.24-.15.12.08.31.24.36.21,2.49-1.77,3.78.55,5.45,1.58.16.1.42.04.64.06l-.02-.03Z"/><path class="cls-24" d="M28.18,49.73c.38.66,1.63,1.35-.22,1.87-.67.19-.23.59.26.67.56.93.26,1.67-.51,2.31-1.6,0-.13,1.43-.87,1.86-.8-.22-1.04-.87-1.22-1.57-.54-.93-1.1-1.84,0-2.8.15-.13-.2-.14-.31-.21-.52-.3-1.07-.57-.52-1.3,1.13-.26,2.1-1.18,3.38-.84Z"/><path class="cls-2" d="M15.29,41.9c1.16,1.28,2.44,1.55,3.87.43.46.16,1.47-.07,1.05.79-.39.79-1.31,1.46-2.3,1.23-1.68-.39-2.21-.05-1.96,1.5.01.09-.43.26-.66.39-.46.26-.63-.05-.78-.39-1.38-1.39-1.2-2.29.79-3.94Z"/><path class="cls-3" d="M28.21,40.05c2.78-.78,5.57-1.56,8.35-2.33-2.26,1.5-4.94,2.05-7.05,3.76-.68-.17-1.62.47-2-.56-.18-.49.3-.71.7-.86Z"/><path class="cls-19" d="M14.51,45.85c.26.13.52.26.78.39.11.5-.13,1.16.84,1.14,1.1-.02,2,.61,3.12,1.44-.86.16-1.5.38-1.96.88-.43-.94-1.22-1.21-2.17-1.47-.85-.24-1.6-.88-2.34-1.43-.29-.22-.26-.71-.04-.99.57-.71,1.17.12,1.76.04Z"/><path class="cls-27" d="M24.8,50.57c.05,1.12,1.29.97,1.8,1.75-2.06.2-.57,1.7-.97,2.55-.47.5-.93,1.03-1.67.42q-.24-3.1-1.93-4.53c.9-.71,1.93.65,2.77-.19Z"/><path class="cls-18" d="M25.64,47.53c.66-1.3,2.17-1.19,3.24-1.79-.84,1.01-1.42,2.45-3.26,1.77,0,0,.02.03.02.03Z"/><path class="cls-36" d="M27.71,44.87c-.24.59-.76.84-1.34.86-.53.02-1.1-.26-.93-.88.16-.59.79-.8,1.39-.78.46.01.8.27.87.8Z"/><path class="cls-29" d="M27.72,54.58c.17-.77.34-1.54.51-2.31.7-.32,1.38-.92,2.19-.68.86.26,2.48.42.45,1.8,1.22.35,1.99-.18,2.88-.43-.28-1.02-1.36-1.1-1.78-1.85.28-.67.89-.54,1.45-.57.49.24,1.01.22,1.53.23,1.97-.37,3.94-.7,5.9-1.09,2.26-.45,4.21.55,6.18,1.32.76.3,1.64.97,1.51,2.12-.28.51-1.1-.01-1.33.8-.34,1.15-1.01.74-1.53.08-.73-.92-1.67-1.02-2.78-.82.11.56.57.71.98.91.05.02.09.13.07.19-.02.06-.1.1-.15.15-1.07.69-1.24,1.95-1.83,2.94-1.04-.24-1.64.69-2.49.95-3.07.95-5.87.24-8.71-1.07-.55-.25-1.54-.56-2.48-.54-.97.02-.4-1.38-.56-2.14Z"/><path class="cls-14" d="M52.85,40.1c0-.15,0-.3,0-.45.55-1.91.11-2.7-1.68-2.91-1.03-.12-2.12.15-3.08-.46-.13,0-.26,0-.39,0-.14.03-.28.09-.42.1-.96.07-2.38.44-2.47-.79-.06-.89,1.4-.53,2.19-.57,3.41-.2,6.84-.66,10.11.89,1.12.53,2.29.96,2.22,2.51-.98,1.93-2.92,3.17-3.48,5.51-.35,1.45-1.96,2.18-3.69,1.85-.35-.07-.36-.02-.18.84-1.13-.26-1.11-.97-.5-1.64.66-.72.09-.75-.37-.91-1.69-1.62-3.94-1.29-5.98-1.68-1.51-.32-3.41.69-4.41-1.33h.01c.3-.27.6-.55.89-.84,1.91-.84,3.96-1.03,6-1.1,1.76-.06,2.78,1.29,3.79,2.7.51-.71,1.11-1.08,1.44-1.71Z"/><path class="cls-11" d="M38.59,34.17c-.27,0-.55,0-.82-.01-.4-.07-.96.09-1.12-.39-.16-.51.29-.75.71-.88,2.19-.69,4.43-1.01,6.73-.91,1.21.05,2.43-.02,3.64-.04,2.31-.16,4.58.26,6.87.47.54.05,1.12.22,1.09.8-.03.78-.72.45-1.18.46-5.31.09-10.64-.38-15.93.51Z"/><path class="cls-28" d="M59.33,38.41c-1.07-2.42-3.44-2.7-5.54-2.91-2.86-.29-5.76-.07-8.95-.07,1.05.8,2.16.02,2.85.84-.06.77-.59.89-1.21.87-2.79-.09-5.56.06-8.27.8-.24.06-.58.05-.67-.43,1.07-.82,2.55-.51,3.69-1.18,1.25.39,1.57-1.13,2.42-1.27,5.01-.81,10.08-1.79,14.81,1.07.7.43,1.98,1.01.87,2.3Z"/><path class="cls-27" d="M48.53,53.13c-2.19-2.37-4.87-3.25-8.06-2.69-2.03.36-4.08.63-6.12.94-.73-1.16.48-1.25.95-1.37,2.7-.69,5.36-1.55,8.18-1.63,2.07-.06,3.75,1.23,5.68,1.66.46.1.73.67.65,1.24.02.93-.55,1.44-1.28,1.85Z"/><path class="cls-20" d="M49.81,51.29c-.12-.18-.22-.49-.36-.51-2.43-.36-4.42-2.39-7.15-1.74-2.07.5-4.22.68-6.32,1.06-.72.13-1.67.11-1.64,1.28-.47-.1-.76-.41-.94-.83,5.18-2.2,10.4-3.97,15.99-1.32,1.56,1.11,1.57,1.16.41,2.05Z"/><path class="cls-32" d="M40.76,35.91c-1.22-.18-2.4.8-3.7.16.19-1.25,1.49-.82,2.06-1.44,1.91-.07,2,0,1.64,1.28Z"/><path class="cls-22" d="M41.95,57.37c-.02-1.37-.09-2.77,1.83-2.94,1.13,1.71-1.1,1.89-1.35,2.97-.16-.01-.32-.02-.49-.03Z"/><path class="cls-6" d="M28.21,23.74c2.02-.59,4.16-.76,6.11-1.64.66.65,1.51.25,2.26.39.59.11.89.52.94,1.03.08.8-.61.68-1.05.65-2.09-.1-4.12.27-6.12.82-1.13.31-1.76-.26-2.13-1.25Z"/><path class="cls-25" d="M45.13,42.39c1.7.05,3.41-.21,5.11.27.8.23,1.41.42.87,1.41-.99.46-1.91,1.25-3.12.74-.37-.16-1.04-.51-1.01-.62.57-2.18-1.22-1.13-1.97-1.48.03-.11.07-.21.11-.32Z"/><path class="cls-31" d="M52.85,40.1c.32.18,1,.68.42.73-1.72.16-.31,1.23-.7,1.89-.78-.49-1.55-.35-2.22-1.49-.88-1.5-2.74-2.36-4.73-1.43-1.29.6-2.68.14-4,.41-.95-.22-1.82.28-2.74.32-.52.03-1.02-.02-1.14-.68-.11-.6.15-1.02.72-1.12,3.59-.62,7.16-1.78,10.75.18,1.1.6,2.42.8,3.64,1.18Z"/><path class="cls-28" d="M48.09,36.28c1.58-.29,3.1.13,4.64.37,1.22.19.93,1.28,1.24,1.92.33.7-.31,1.15-1.12,1.08-.71-.84-1.99-.54-2.98-1.35.45-.09.64-.16.83-.15.51.03,1.29.54,1.35-.34.05-.75-.87-.43-1.33-.63-.85-.38-2.23.77-2.63-.9Z"/><path class="cls-5" d="M40.72,41.06c.07.59.11,1.14-.65,1.38-.63.21-1.34.58-1.67-.24-.35-.89.61-.77,1.06-.95.38-.16.84-.13,1.27-.18,0,0-.01,0-.01,0Z"/></svg>