<?xml version="1.0" encoding="UTF-8"?><svg id="Layer_1" xmlns="http://www.w3.org/2000/svg" width="25.64mm" height="21.62mm" viewBox="0 0 72.67 61.3"><defs><style>.cls-1{fill:#f3f3f4;}.cls-1,.cls-2,.cls-3,.cls-4,.cls-5,.cls-6,.cls-7,.cls-8,.cls-9,.cls-10,.cls-11,.cls-12,.cls-13{stroke-width:0px;}.cls-2{fill:#768c9c;}.cls-3{fill:#b1bdc9;}.cls-4{fill:#bed3e3;}.cls-5{fill:#bbcedf;}.cls-6{fill:#c0d4e5;}.cls-7{fill:#acc9df;}.cls-8{fill:#eaf1f5;}.cls-9{fill:#91b2d0;}.cls-10{fill:#a8c1d8;}.cls-11{fill:#698eac;}.cls-12{fill:#80919e;}.cls-13{fill:#d5e2eb;}</style></defs><path class="cls-11" d="M20.66,54.01c-5.94-5.12-11.22-10.84-15.61-17.34C-.63,28.27-1.12,19.1,1.61,9.65c1.08-3.75,3.86-6.18,7.56-7.46C23.23-2.68,53.53.12,66.29,15.16c10.24,12.07,8.09,26.48-6.01,33.89-2.74,1.44-5.5,2.79-7.85,4.84-2.52.19-1.82-2.8-3.46-3.46-.36-.14-.71-.28-1.08-.41-1.73-.36-3.46-.58-5.22-.58-1.52,0-3.03-.08-3.06-2.2,2.03-3.63,2.68-8.13,6.62-10.56,5.1-.24,8.78,3.4,13.25,4.87.92.95.51,1.75-.28,2.54,1.45-.91,1.08-1.83.06-2.77-.95-1.07-2.47-1.99-1.72-3.7.67-1.54,2.19-.96,3.56-1.03-6.3-4.73-12.42-9.38-20.81-10.15-8.14-.75-16.07-.72-23.88,1.86-.56.18.08-.13-.35.25-.26.23,0,.56.43.57.89.77,1.54,1.66,1.87,2.78.02.42-.09.79-.33,1.13-2.11,1.16-4.43,1.9-6.5,3.14.95-.56,1.85-.47,2.72.17.3.26.55.55.77.87.65.88,1.51.63,2.39.49,2.38-.36,3.11.47,1.77,2.62-.9,1.44-.96,2.99.33,3.98,1.92,1.48,1.16,4.17,2.94,5.6.41.13.74.34,1.04.64.35,2.2.36,4.13-2.81,3.46Z"/><path class="cls-3" d="M49.11,49.48c3.39-.25,1.17,3.73,3.32,4.41-7.72,9.82-23.15,9.88-31.76.12,1.82-.61,3.37-1.34,1.74-3.61,1.54-3.03,4.1-2.83,6.53-1.66,1.44.69,2.66,1.58,4.34,1.19.59-.04.07-1,.13-.42.01.13-.05.17-.16.2-1.06.36-2.47.79-2.7-.65-.19-1.16,1.34-1.39,2.29-1.43,2.33-.11,4.54-1.01,6.88-.98.19.13.39.27.58.4-.07,1.45.74,1.69,1.92,1.39,2.41-.62,4.64,0,6.83.98-1.53,1.54-3.68,2.35-4.91,4.28-.5.78-1.61,1.26-2.31.74-4.13-3.05-8.43.4-12.61-.61.79.64,1.92.39,2.45,1.27,1.97,3.28,4.89,4.05,8.31,2.93,3.69-1.21,6.9-3.13,8.21-7.14.19-.57.41-1.08.92-1.42Z"/><path class="cls-13" d="M17.91,32.71c.1-.25.17-.5.23-.76,5.02-3.84,10.78-3.42,16.46-2.58,6.12.91,12.01,2.8,17.44,4.96-10.02-6.28-19.34-7.82-30.17-5.11-1.8.45-3.69,1.2-5.59.25-1.14.05-1.67,1.8-3.5.92,3.81-4.81,9.31-4.66,14.38-5.45,5.48-.86,11.51-.86,16.37.4,6.88,1.78,13.98,5.11,18.99,11.03.67.79.83,1.87.12,2.97-1.94.58-2-3.08-4.34-1.86-.95,1.68,1.92,2.47,1.22,4.15l.05-.04c-5.06.47-8.46-4.08-13.26-4.41-1.41-.67-2.08.74-3.11,1.13-2.92,1.11-5.56.54-7.23-2.13-.72-1.16-1.36-.36-1.95-.41-5.65-.5-11.1.97-16.63,1.76-1.03.15-2.02.5-2.91-.33l-.04-.04c-.94-2.46,1.05-2.74,2.49-2.9,1.84-.2,3.62-.64,5.47-.92-1.45-.75-3.46,2.56-4.52-.64Z"/><path class="cls-3" d="M14.51,37.21c8.18-1.94,16.37-3.84,24.97-2.1-.46,2-2.23.58-3.04,1.91,2.18-.28,4.09,1.76,6.08.28,1.39-1.03,2.48-1.44,3.8-.12-2.76,2.83-3.22,7.08-6.03,9.87,0,0-.31-.21-.31-.21-2.82-1.05-6.14.41-8.75-1.71-1.07-2.93-3.56-2.63-5.78-2.23-3.28.6-.05,1.57,0,2.39.86,3.36-3.49,2.95-3.88,5.4-.09.12-.18.23-.27.35-.39-3.79-4.29-6.21-4-10.18.05-.75,1.23-1.42,1.85-2.08-1.14-2.02-4.73,3.98-4.64-1.59Z"/><path class="cls-2" d="M16.29,29.48c13.56-5.47,35.78-1.56,39.51,7.24-3.56-.17-6.31-2.27-9.39-3.24-9.33-2.94-18.63-4.92-28.26-1.52-1.11-.46-1.84-1.2-1.85-2.48Z"/><path class="cls-8" d="M21.56,50.71c-1.02-3.27,3.91-2.68,3.57-5.5,1.68-2.73,3.81-2.46,6.14-.92,1.33,1.37,3.04.72,4.6.85,1.56.13,3.35-.32,4.12,1.71-2.52,2.18-5.71,1.67-8.76,1.97.66,1.24,2.04.4,2.95,1.34-4.08,1.34-8.02-3.13-11.77.24-.28.1-.56.2-.84.31Z"/><path class="cls-4" d="M57.04,27.64c-9.03-3.88-17.51-7.09-27.13-6.05,4.35-5.18,21.83-1.43,27.13,6.05Z"/><path class="cls-7" d="M20.34,16.64c4.07-4.04,10.41-4.32,18.43-1.32-5.73.64-11.55-.17-18.43,1.32Z"/><path class="cls-5" d="M57.25,22.61c-1.04.04-.89-.74-1.19-1.17-1.44-2.03-2.86-4.2-5.86-2.28-.11.07-.28.1-.42.09-.67-.05-1.32-.89-1.09-1.01,2.56-1.41.6-4.5,2.3-6.01.62-.55,2.06.7,1.98,1.19-.59,3.61,2.6,3.94,4.44,5.42.85.68,1.63,1.36.84,2.55-.31.47-.72.87-1.01,1.21Z"/><path class="cls-10" d="M48.23,45.9c2.16-1.62,4.47-3.31,8.24-2.44-3.13,2.24-5.11,5.59-9.25,3.3-1.06-.59-2.77-.57-2.44-2.47.16-.93.81-1.62,1.77-1.64,2.65-.04.04,2.48,1.67,3.25Z"/><path class="cls-9" d="M43.68,8.19c-5.92-.9-10.99-1.67-16.94-2.58,5.33-1.92,12.08-.87,16.94,2.58Z"/><path class="cls-3" d="M17.91,32.71c1.67,1.69,3.63-.98,5.35.44-2.43,2.41-6.85.55-8.78,4.02-2.08-1.78-3.23.72-5.55,1.49,2.43-3.83,5.13-5.76,8.99-5.95Z"/><path class="cls-6" d="M63.61,20.85c-3.71-.97-5.69-3.59-8.44-5.62,3.49-.23,5.33,1.01,8.44,5.62Z"/><path class="cls-13" d="M59.54,41.64c2.33,2.01,2.16,2.3-3.13,4.53,1.11-1.95,3.28-2.6,3.17-4.57,0,0-.05.04-.05.04Z"/><path class="cls-7" d="M20.03,15.99c-1.82.96-3.16,1.84-5.12,1.54q1.76-2.27,5.12-1.54Z"/><path class="cls-1" d="M49.11,49.48c.09,3.89-2.77,7.86-7.45,9.32-3.87,1.21-8.15,2.49-10.44-2.86-.57-1.34-1.6-1.1-2.45-.24-.77.77-1.59,1.04-2.11,0-.51-1.01.56-1.57,1.21-2.06,2.26-1.71,5.07-.73,7.57-1.37,1.37-.35,2.95.26,4.21-.84.21-.18.72-.4.73-.39,3.64,6.4,4.05-2.12,6.49-1.42.66.19,1.45-.11,2.18-.19,0,0,.06.05.06.05Z"/><path class="cls-12" d="M31.27,44.29c-2.06.18-4.26-.53-6.14.92-1.12-.53-3.41.88-3.3-1.48.07-1.61,2.12-2.33,3.35-1.85,2.02.8,5.84-2.68,6.09,2.41Z"/></svg>