<?xml version="1.0" encoding="UTF-8"?><svg id="Layer_1" xmlns="http://www.w3.org/2000/svg" width="12.86mm" height="30.34mm" viewBox="0 0 36.45 85.99"><defs><style>.cls-1{fill:#e0e4e8;}.cls-1,.cls-2,.cls-3,.cls-4,.cls-5,.cls-6,.cls-7,.cls-8,.cls-9,.cls-10,.cls-11,.cls-12,.cls-13,.cls-14,.cls-15,.cls-16,.cls-17,.cls-18,.cls-19,.cls-20,.cls-21,.cls-22,.cls-23,.cls-24,.cls-25,.cls-26,.cls-27,.cls-28{stroke-width:0px;}.cls-2{fill:#f1f2f5;}.cls-3{fill:#b3b9c0;}.cls-4{fill:#b5bfc9;}.cls-5{fill:#d6dfe6;}.cls-6{fill:#94979c;}.cls-7{fill:#828f9c;}.cls-8{fill:#7c8e9d;}.cls-9{fill:#929ea8;}.cls-10{fill:#c1cbd5;}.cls-11{fill:#c1d5e0;}.cls-12{fill:#fbf6f5;}.cls-13{fill:#b2beca;}.cls-14{fill:#6a8eab;}.cls-15{fill:#bcbecb;}.cls-16{fill:#afbdcb;}.cls-17{fill:#eff2f5;}.cls-18{fill:#f3f4f6;}.cls-19{fill:#6d8da8;}.cls-20{fill:#848d9b;}.cls-21{fill:#a1c1d8;}.cls-22{fill:#e9f0f4;}.cls-23{fill:#9b9da2;}.cls-24{fill:#f6f4f3;}.cls-25{fill:#a5a9ab;}.cls-26{fill:#c8c7c7;}.cls-27{fill:#adc0ce;}.cls-28{fill:#a2b1c3;}</style></defs><path class="cls-14" d="M12.58,83.95c-1.48-.5-1.85-1.64-1.78-3.05.15-3,.29-6.01.44-9.01.05-1.09-.04-2.18-.48-3.16-2.08-4.62-3.81-9.41-7.07-13.44-1.71-2.12-2.79-4.67-2.8-7.52-.21-2.92-.49-5.83-.6-8.75-.05-1.24.29-2.13,1.71-2.19.28.02.69.02.78.24.92,2.31,2.31,1.29,3.61.5,1-.61,2.08-.85,3.2-1.03.31-.02.61.02.87.2.67.94-.76,1.86-.02,2.8-.04,2.29-1.55,3.74-3.24,3.13-.24-.53.12-1.07-.02-1.62.06,3.43-4.35,5.78-1.88,9.79.38.09.67-.68,1.22-.94.47-.22.94-.48,1.36,0,.39.45.26.93-.08,1.37-.26.34-.7.54-.82.98-.17.63.11,1.18.61,1.49.59.37.64-.27.84-.61.83-1.43,2.15-.86,3.26-.65.77.15.85.89.36,1.54-.39.53-1.05.75-1.54,1.41,1.69.72,3.14,1.62,1.68,3.74-.15.21-.15-.11-.12.18.03.29.26.32.45.3,1.94-.25,1.42,3.67,3.98,2.34,1.9.22,2.28,1.44,1.95,3.06-.08.42-.4.93-.05,1.22,1.54,1.31.58,2.92.66,4.42.11,2.25.38,4.49-.77,6.6-.34.62-.49,1.35-1.11,1.79-1.7.98-3.64,1.71-3.42,4.28.05.57-.44,1.09-1.19.58Z"/><path class="cls-19" d="M20.4,79.72c-.61,1.2-1.18,2.43-2.13,3.42-.43.11-.63-.14-.77-.48-.08-1.82.93-3.3,1.66-4.82,2.01-4.19,3.22-8.53,3.76-13.16.53-4.55,1.86-8.94,3.43-13.3,1.78-4.96,3.66-9.95,4.32-15.26.13-1.08-.17-2.14.07-3.2.33-.49.76-.83,1.34-.98,1.51.17,1.68,1.52,2.23,2.55,1.13,1.51,1.12,3.2.76,4.94-.05.21-.13.41-.23.6-1.19,2.19-2.53,4.27-1.36,7.01.42.99,0,2.27-.13,3.41-.98,3.35-1.67,6.76-2.39,10.16-.71,1.71-2.35,3.04-2.12,5.14-1.97,3.99-4.2,7.84-6.7,11.52-.32,1-.24,2.28-1.73,2.44Z"/><path class="cls-7" d="M33.78,34.7c.08-1.31-.8-1.97-1.74-2.6-.61-.35-.17-1.57-1.26-1.54-1.35-.82-1.65-2.3-2.18-3.6-.51-1.26-.98-2.53-1.54-3.78-1.35-3.01-1.85-3.6-4.87-2.57-4.17,1.43-8.61,1.71-12.71,3.33-.27.11-.53.22-.79.33-.62.19-.89.65-.95,1.27-.08.94-.67,1.56-1.39,2.04-2.77,1.85-3.57,4.54-3.32,7.69.06.7.24,1.42-.37,2-2.58-.27-2.41,1.59-2.1,3.08.53,2.48.28,4.94.31,7.41-1.04-4.44-1.04-8.94-.63-13.45.08-.89.41-1.93.98-2.59,2.31-2.66,3.27-5.65,2.76-9.13-.05-.31.2-.67.32-1,1.08.93.32,2.32.85,3.66.76-1.22,1.49-2.19,2.63-2.71.25-.15.51-.27.78-.36q3.04-1.02,3.03-4.11c0-.14-.02-.29,0-.43.11-.74-.17-1.86.83-1.93.96-.07,1.03.99,1.15,1.77.11.74-.15,1.64.84,2.01,3.43.47,4.59-.55,4.31-3.79-.06-.72-.27-1.61.6-1.86,1.04-.29,1.55.55,1.86,1.39.46,1.29.86,2.59,2.59,2.72-1.45-5.29-4.15-5.92-7.21-4.53-1.37.62-2.84,1-4.3,1.4-.43.11-.88.3-1.22-.18-.44-1.13-.56-2.23.22-3.27,1.01-.34.98,1.24,1.91,1.05.82-.01,1.16-.42,1.06-1.23-.12-.96.43-1.45,1.25-1.72.79-.25,1.19.22,1.47.87.09.2.19.4.37.51.76.45,1.76.39,2.19-.12.64-.76-.35-1.21-.88-1.58-.92-.64-1.97-.78-3.06-.38-.87.32-1.7.74-2.65.81-.34,0-.64-.1-.9-.32-.52-1-.06-1.69.71-2.28.42-.28.93-.03,1.42-.25-.29-.79-1-.79-1.63-.93-.51-.13-1-.29-1.13-.9-.04-1.26.56-2.32,1.08-3.41.86-1.79,2.17-2.03,3.37-.44,1.1,1.45,2.15,2.97,2.77,4.72-.85.35-1.46-.86-2.36-.14.83-.32,1.39,1.31,2.34.11.97,1.52,2.12,2.97,2.87,4.59.7,1.53,2.06,2.68,2.62,4.12,1.56,4.03,5.38,6.46,7,10.33,1.23,2.93,2.73,5.79,3.11,9.03.24.49.28.88-.44.89Z"/><path class="cls-14" d="M13.05,7c-.38.71-1.07,1.29-.87,2.22.09.77-.2,1.45-.46,2.14-.81,1.07-.23,2.31-.43,3.45-.16.35-.46.57-.72.82-.49.44-.92.95-1.54,1.24-.44.26-1.4.38-.88,1.06.67.86.57,2.15,1.63,2.74.05.19.06.39.02.58-.32.92-1.54.84-1.9,1.72-1.36.77-1.84,2.36-3.11,3.44-.75-1.63-.16-3.27-.45-4.8.1-1.26.85-2.26,1.41-3.32.63-1.2,1.33-2.36,1.16-3.82-.04-.4.05-.95.3-1.22,2.23-2.37,2.9-5.52,4.23-8.34.43.15.86.31,1.29.46.38.49.84.96.33,1.63Z"/><path class="cls-23" d="M33.78,34.7c.15-.3.3-.6.44-.89,1.02.79,1.57,1.91,1.73,3.12.5,3.9.9,7.81-.22,11.68-.12.41-.26.85-.21,1.26.5,4.34-.69,8.54-.95,12.81-.09,1.47-.84,2.49-1.67,3.61-2.41,3.25-4.74,6.56-6.16,10.41-.45,1.23-1.28,2.12-2.53,2.43-1.24.3-2.53.41-3.8.6,1.58-.35.27-2.07,1.27-2.69,1.33.9,2.22.47,2.94-.87,1.46-2.71,3.23-5.25,4.81-7.89,1.59-2.64,4.2-4.75,3.27-8.34,1.77-2.88,1.16-6.11,1.39-9.23.2-2.69.99-5.33,1.08-8.05.04-1.07.71-2.26-.48-3.14-.12-1.64.5-3.42-.9-4.82Z"/><path class="cls-3" d="M17.66,82.58c.2.19.4.38.6.56-.13.25-.27.5-.4.75-1.34,2.52-2.15,2.69-4.38.94-.33-.26-.6-.59-.9-.89.44-.07,1.03-.34.81-.74-1.28-2.34,1.52-2.66,2.03-4.1.09-.25,1-.21,1.54-.31.92,1.49.17,2.56-.92,3.52-.37.33-1.37.34-.8,1.12.66.9,1.03-.13,1.47-.45.29-.21.56-.44.95-.41Z"/><path class="cls-12" d="M17.66,82.58c-.26.33-.54.65-.78.99-.4.58-.77,1.39-1.6,1.13-.89-.28-.51-1.5-1.19-2.09-.22-.18.22-.73.57-.7,2.53.23,2.03-1.72,2.29-3.12,1.01-1.43,1.76-3.3,1.67-4.75-.13-2.22.12-4.35.12-6.51,0-.3-1.49-1.3-1.05-2.25.71-1.55-.16-2.23-1.16-2.97q.81-.84,2.6-.53c.25.15.05-.5.01-.21-.01.11-.07.11-.16.11-.46,0-.48-.81-1-.59-1.63.7-2.09-.57-2.74-1.56-.43-.67-.68-1.42-.93-2.17-.2-.58-.26-1.34.37-1.52,2.69-.78.43-1.74.15-2.63-.17-1.17.47-1.76,1.51-1.95,1.01-.18,1.6.46,2.03,1.26.34.64.38,1.46.81,1.97.65.76-.37,2.52,1.71,2.54.55,0,.21,1.83.41,2.75-.01-1.4-.48-2.79-.71-4.2-.33-2.02.57-3.92,1.86-5.53.4-.5,1.01-.97,1.68-.64.72.36.53,1.08.33,1.94.46-1.43-.15-2.65.21-3.91-1.62.52-3.17.74-4.65,1.25-1.02.29-1.8.01-2.29-.95-.53-2.72-1.72-5.24-2.51-7.88-.91-3.05-.54-3.59,2.62-4.54.86.15.98.94,1.29,1.54.43.82.94,1.26,1.94.36-1.19-.43-1.59-1.78-2.85-2.08-1.5.24-2.82,1.42-4.56.62-.6-.28-1.43.47-1.93,1.11-.46.59-.91.58-1.38.04-.27-.02-.55-.04-.82-.06-1.74.52-2.59-.22-2.67-1.94-.06-1.43-.2-2.85-.37-4.27-.11-.9-.3-2,.61-2.79.7-.61.96-1.33.58-2.29-.23-.59-.22-1.3.6-1.61,1.99-.93,3.94-1.63,6.24-1.89,1.6-.18,3.57-.36,5.2-1.5,3.43-2.4,6.95-.74,8.54,3.74.75,2.12,1.17,4.41,2.86,6.08-.73.87.37,1.72.02,2.58.76,2.66-.13,5.22-.81,7.67-1.24,4.43-2.49,8.88-4.26,13.16-1.38,3.34-2.26,6.89-2.5,10.45-.41,6.28-2.97,11.78-5.5,17.34-.15.33-.29.66-.43.99Z"/><path class="cls-4" d="M10.37,36.91c1.4.16,1.48-1.88,2.91-1.73.31.03.87-.41.93-.34,1.42,1.8,2.67-.4,4.01-.13.25.33.21.63-.08.91-3.28,1.01-3.77,2.09-1.78,5.91,1.05,2.01,1.24,4.12,1.81,6.19.01,1.26-1.21,1.22-1.86,1.79-.07-.02-.14-.04-.2-.06-.7-.22-.8-1.61-1.78-1.1-1.04.54-.07,1.53-.26,2.3-.19.69-.86.86-1.42,1.24,1.46,1.15,1.24-.56,1.75-.96.73-.42,1.55-.44,2.35-.57,1.53-.02,2.85-.35,3.12-2.18,1.53-1.08,3.85-.08,5.3-2.22.03,2.38.13,4.44-.68,6.6-.6-.95-.01-1.91-.4-2.72-1.84.71-3.43,3.79-3.01,5.78.22,1.05.45,2.09.59,3.15.08.62.02,1.27.02,2.19-1.06-1.27-.86-2.52-.97-3.68-.57-.49-.12,2.02-.97.37-.71-1.39-1.08-2.95-1.68-4.4-.28-.69-.44-1.67-1.46-1.61-.98.06-1.51.72-1.52,1.74-.06.28.03.58-.09.84-.37.78-2.01.76-1.68,1.61.49,1.27,1.04,2.66,2.28,3.52.71.88,1.18,2.2,2.78,1.1.25-.17.57,1.47,1.7.69-.81,2.12-2.6.04-3.55,1.17q-1.66,1.21-2.67-.82-.35-.7-3.01-1.77c.56-.85,2.13-1.31,1.22-2.73-.64-1-1.73-.82-2.96-.95.84-.77,1.19-1.72,2.24-1.99.37-.1.71-.39.61-.76-.12-.44-.54-.66-1.02-.46-.83.35-2.74-.79-2.21,1.57.03.13-.95.59-1.3.23-.53-.55-.86-1.3-1.26-1.98-.66-1.13.5-1.09.98-1.44.38-.27.8-.55.49-1-.37-.52-.75-.02-1.06.22-.23.17-.39.43-.62.59-.42.3-.7,1.14-1.37.62-.51-.4-.86-1.16-.55-1.74.46-.86.32-1.38-.16-2.24-.65-1.19.86-1.91,1.3-2.9.52-1.17,1.73-2.02,1.05-3.58-.25-.58.35-.86.8-1.09.37-.19.7-.09.94.24.34.46.38.88-.09,1.32-.24.22-.34.59-.51.9-.1.71.47,1.39.14,2.09-.28.59.04.55.44.55.67,0,.98.46,1.24,1.01.51,1.06,1.05,2.05,1.84.16.16-.38.45-.58.85-.41,1.65.7,2.18.27,1.96-1.58-.15-1.26.66-1.57,1.71-.77-.75-1.25-.32-3.2-2.41-3.69-.66-.16-.18-.97.19-1.57-1.18.37-2.45.19-3.36,1.15-1.2-1.07.5-1.68.4-2.57Z"/><path class="cls-24" d="M9.97,39.48c.79-2.42,3.04-.83,4.41-2.19.08,1.48-1.25,1.24-1.22,2.12,1.97.55,3.04,2.66,3,5.9-.14,0-.28,0-.41-.03-.89-.24-.12-2-1.15-1.66-1.15.38.14,1.28.1,1.98-.03.43.12.91-.4,1.11-1.02.39-2.04.59-2.7-.57-.73.58.71,1.76-.75,1.96-1.05.14-1.94-.12-2.05-1.32-.21-2.33-1.7-.5-2.8-.89,1.63-.77.61-2.34,1.36-3.35,1.25.05,2.55-1.48,2.61-3.06Z"/><path class="cls-10" d="M8.3,23.95c-.12.4-.48.97-.33,1.18,1.01,1.43.58,2.4-.66,3.44-.32.26-.59,1.43-.41,1.82.71,1.61.44,3.26.53,4.9.08,1.45,1.13,1.45,2.13,1.56-1.69.28-2.99,1.46-4.55,2.02-2.3.82-2.33.8-2.33-1.58-.4-1.66-.36-3.41-.43-5.05-.06-1.28,1.27-2.84,2.35-3.9,1.23-1.2,3-1.86,2.79-4.04,0-.09.6-.23.92-.35Z"/><path class="cls-17" d="M34.68,39.52c.48-.54,1.17-1.08,1.14.16-.06,2.64-.13,5.32-.65,7.9-.3,1.48-.66,2.89-.63,4.42.07,2.76.44,5.54-1.34,8.09-.44.63.02,1.92.16,2.9.19,1.3-.35,2.31-1.34,2.97-1.33.88-2.08,2.12-2.66,3.52-1.24,2.98-3.75,5.21-4.86,8.29-.31.85-1.38.59-2.15.56-.88-.04-.69-.73-.71-1.29,1.54-1.64,2.31-3.75,3.39-5.66.6-1.06,1.04-2.25,2.1-2.86,1.13-.65-.19-2.42,1.42-2.7.26-1.82,1.95-3.15,1.78-5.13.8-3.48,1.2-7.07,2.59-10.4,1.19-2.9.52-6.06,1.22-9.03.11-.48.08-.99.43-1.4.05-.11.08-.22.09-.34Z"/><path class="cls-16" d="M34.59,39.85c-.15,2.67-.21,5.36-.49,8.01-.09.84-.17,1.9-1.15,2.41-.26-1.92.05-3.82-.64-5.83-.49-1.41,1.13-3.22,2.29-4.6Z"/><path class="cls-15" d="M30.36,60.68c1.2,2.33-.86,3.53-1.78,5.13-.97-2.25,1.04-3.47,1.78-5.13Z"/><path class="cls-21" d="M24.48,64.73c.72-.57-.55-2.13,1.06-2.27.45-.04.91.86.53,1.12-.96.67.59,2.25-.95,2.45-.76.1-.79-.61-.64-1.3Z"/><path class="cls-27" d="M31.16,32.97c-.64-.86-.95-1.72-.02-2.58,1.88-.26.45,1.22.89,1.71-.21.38-.42.74-.88.87Z"/><path class="cls-18" d="M12.16,14.39c1.95-.68,3.87-1.46,5.85-2,2.93-.81,4.38.93,6.15,4.09.33.59.4,1.33.6,2.01-2.49.27-3.56-.42-4.01-2.68-.1-.51-.16-.98-.59-1.32-.28-.22-.59-.52-.92-.25-.17.14-.19.51-.19.78,0,.2.12.4.2.61.42,1.18.81,2.73-.24,3.36-1.33.79-2.87,1.97-4.7,1.05-.23-.27-.5-.56-.5-.92-.02-1.76-.65-3.3-1.64-4.73Z"/><path class="cls-1" d="M13,9.18c1.07-.4,2.12-.87,3.21-1.19,1.12-.32,2.11.18,3.03.76.89.56,1.45,1.41,1.52,2.46.03.48-.47.53-.79.34-1.09-.64-2.97,1.52-3.49-.96-.18-.87-.61-.83-1.21-.58-.49.2-.93.42-.54,1.1,1.26,2.19-.61,1.69-1.65,1.9-1.69-1.24-.64-2.54-.08-3.83Z"/><path class="cls-13" d="M12.16,14.39c2.32,1.27,2.01,3.54,2.14,5.64-1.16-.12-1.22-.96-1.28-1.86-.05-.72.28-1.56-.51-2.18-.59.69-.34,1.42-.32,2.08.11,3.74.12,3.74-3.51,4.62-.27.07-.53.19-.8.29-.05-1.18,1.08-1.16,1.69-1.68,1.83-1.82,2.08-3.65.85-6.05.29-.14.57-.29.86-.43.29-.14.59-.29.88-.43Z"/><path class="cls-5" d="M18.63,5.74v1.36c-.67.06-.73-1.71-1.62-.65-.58.69-.95.45-1.28-.13-.22-.39-.74-.77-.29-1.31.4-.48,1.01-.7,1.52-.47.62.28,1.13.81,1.69,1.23,0,0-.02-.03-.02-.03Z"/><path class="cls-28" d="M13,9.18c.44,1.27-.89,2.57.08,3.83-1.23.1-1.33-.74-1.37-1.64-.59-.88-.45-1.59.46-2.14.28-.01.55-.03.83-.04Z"/><path class="cls-11" d="M13.05,7c-.11-.54-.22-1.09-.33-1.63.34.03.7,0,1.02.1.84.26,1.43,1.08,1.11,1.71-.38.74-1.21.17-1.8-.19Z"/><path class="cls-22" d="M10.42,15.25c.28.05.68,0,.81.15,1,1.32.46,2.77.26,4.17-.15,1.06-.61,1.9-1.92,1.72-.01-.14,0-.27.03-.41-.08-1.47-1.26-2.82-.52-4.39.34-.53.74-.99,1.33-1.25Z"/><path class="cls-13" d="M9.09,16.5c.18,1.46,1.09,2.84.52,4.39-1.44-.68-1.65-2.32-2.45-3.46-.44-.62,1.16-.77,1.94-.93Z"/><path class="cls-9" d="M15.61,59.34c-2.13-.43-2.08-2.72-3.31-3.94-.3-.29.06-.76.67-.63,1.18.26,1.6-.67,2.14-1.41,1.99.16.84,2.16,1.96,3.03-.94.21-1.75-1.08-2.21-.19-.57,1.09.41,2.1.75,3.14Z"/><path class="cls-6" d="M18.14,35.62c.03-.3.05-.6.08-.91.89-.29.81-.24,1.2.43.33.57.79,1.22,1.35,1.45,1.51.64.33,1.21,0,1.69-.69,1.02-1.33.19-1.66-.31-.46-.7-.66-1.57-.97-2.37Z"/><path class="cls-8" d="M16.5,49.37c.22-.89,1.49-.73,1.67-1.66.37.87,1,.8,1.7.46.56,1.78-.85,2.97-2.95,2.51-.38-.36-.78-.71-.42-1.31Z"/><path class="cls-26" d="M11.4,29.4c-.46.64.61,2.19-1.12,2.19-.79,0-.77-.77-.68-1.31.14-.83.31-1.8,1.33-1.97.82-.13.65.5.47,1.08Z"/><path class="cls-25" d="M13.24,23.2c-.59.83-1.17,1.52-2.23,1.38-.26-.03-.55-.37-.32-.63.64-.71,1.44-1.09,2.55-.75Z"/><path class="cls-2" d="M16.5,49.37c.14.44.28.87.42,1.31-.81.53-1.73.41-2.62.46-.35.07-.51-.06-.44-.43-1.07-2.3-.87-3.07.85-3.25,1.43-.15.82,1.62,1.79,1.91Z"/><path class="cls-20" d="M13.86,50.71c.15.14.3.28.44.43.27.68.91,1.3-.44,1.75-1.7.56-1.49-.96-2.64-1.84,1.25.06,2.08.36,2.64-.33Z"/></svg>