<?xml version="1.0" encoding="UTF-8"?><svg id="Layer_1" xmlns="http://www.w3.org/2000/svg" width="21.4mm" height="19.39mm" viewBox="0 0 60.65 54.96"><defs><style>.cls-1{fill:#b8d0e0;}.cls-1,.cls-2,.cls-3,.cls-4,.cls-5,.cls-6,.cls-7,.cls-8,.cls-9,.cls-10,.cls-11,.cls-12,.cls-13,.cls-14,.cls-15,.cls-16,.cls-17,.cls-18,.cls-19,.cls-20,.cls-21,.cls-22,.cls-23,.cls-24,.cls-25,.cls-26,.cls-27,.cls-28,.cls-29,.cls-30,.cls-31,.cls-32,.cls-33,.cls-34,.cls-35,.cls-36,.cls-37,.cls-38{stroke-width:0px;}.cls-2{fill:#deeaef;}.cls-3{fill:#c0dae6;}.cls-4{fill:#cedce6;}.cls-5{fill:#f0f2f3;}.cls-6{fill:#dbe8f0;}.cls-7{fill:#d7e5ee;}.cls-8{fill:#cbdce5;}.cls-9{fill:#a9b3c6;}.cls-10{fill:#afcee3;}.cls-11{fill:#678eae;}.cls-12{fill:#d3e0ea;}.cls-13{fill:#d2e2e7;}.cls-14{fill:#b7d1e2;}.cls-15{fill:#748c9e;}.cls-16{fill:#e5ecf2;}.cls-17{fill:#ebf0f4;}.cls-18{fill:#deeaf0;}.cls-19{fill:#e0e9ee;}.cls-20{fill:#e7eff4;}.cls-21{fill:#cadae4;}.cls-22{fill:#dceaf1;}.cls-23{fill:#e7edf0;}.cls-24{fill:#a7b9c6;}.cls-25{fill:#c3d0db;}.cls-26{fill:#e0ebef;}.cls-27{fill:#c8e1f1;}.cls-28{fill:#b0beca;}.cls-29{fill:#e1e9ef;}.cls-30{fill:#d6e0e8;}.cls-31{fill:#c6dfe9;}.cls-32{fill:#aab7c9;}.cls-33{fill:#e4ecf1;}.cls-34{fill:#e9eef1;}.cls-35{fill:#c5d9e7;}.cls-36{fill:#dde7ef;}.cls-37{fill:#d7eaf3;}.cls-38{fill:#a2b1c3;}</style></defs><path class="cls-11" d="M58.48,26.44c-.29,2.33-1.25,4.27-3.07,5.82-1.59,1.34-2.34,3.35-3.63,4.97-2.18,2.74-5.05,4.4-7.73,6.32-4.23,3.03-7.45,7.24-12.09,9.78-5.43,2.97-13.61,2-17.17-3.93-2.52-4.19-6.06-7.72-9.96-10.77-1.21-.94-2.13-2.05-1.96-3.73-1.32-2.16-1.78-4.29-.93-6.89.69-2.1.2-4.48.2-6.74,0-1.82.29-3.46,1.82-4.65.2-.16.45-.35.51-.58.78-2.66,2.9-3.4,5.3-3.74,1.38.69,1.28,2.69,2.91,3.27.47.17-.07.89-.35,1.3-1.71,2.49-1.62,3.15.67,5.37.53,1.14.97,2.32,1.16,3.57-1.24,1.64-.94,3.28-.11,4.99.51,1.05,1.09.86,1.8.29.88-.18,1.36.48,1.95.92.74.74,1.12,1.68,1.4,2.67.3,1.33,1.45.92,2.29,1.1,2.29.5,2.78,1.54,1.81,3.87-.24.29-.52.51-.89.62-.56-.29-1.04-.27-1.32.39-1.16.59-1.12,1.07.17,2.26.4.4.88.18,1.34.15.74.57.96,1.32.75,2.22-.74,1.77-.4,2.32,1.37,2.08,1.15-.15,2.23-.84,3.45-.41.68.34,1.12,1.12,1.99,1.12,1.51.42,2.28-.59,3.06-1.58.26-.26.57-.43.94-.49,1.22.06,1.59-.73,1.23-1.64-.77-1.95-1.25-4.06-2.86-5.58-.6-.55-1.45-.72-2.05-1.26.7-1.76,2.41-2.81,3.13-4.55.36-.5.8-.91,1.35-1.21,1.24-1.26,2.68-.05,3.99-.33.96-.28,1.68-.83,2.17-1.86-1.17-.48-2.14-1.17-3.15-1.78-1.05-.7-2.47-1.14-2.12-2.88.3-.84.94-1.22,1.78-1.34,1.56,1.14,3.14,1.41,4.74.08.33-.15.67-.21,1.03-.17.57.64,1.16.81,1.8.08,1.35-.61,2.17,1.25,3.49.74.44-.17.87-.34,1.35-.39,1.12-.35,1.79,1.47,2.3,1.01.97-.89,1.84-2.03,2.42-3.32.68-1.49.59-3.04.63-4.59,0-.4.04-.8.06-1.2.12-.93-.49-1.64-.74-2.46-.34-1.1-.2-2.12.88-2.71,1.04-.57,2.01-.27,2.83.57.89.91,1.28,1.95,1.3,3.27.09,4.04.21,8.07-1.23,11.94Z"/><path class="cls-15" d="M42.49,23.95c-1.71,1.77-2.94,1.76-4.58-.02-.76-1.24.27-2.27.4-3.4.09-.76.38-1.7-.56-2-.77-.25-1.45.36-1.93,1-1.46,1.96-1.33,3.59.42,5.34-.44,1.79,1.78,1.51,2.09,2.71.64,1.32.49,2.74.51,4.14-.04.5-.31.97-.78.58-1.03-.86-1.99-.37-2.99-.09-.31-.77.04-1.5.11-2.25.05-.59.17-1.26-.52-1.55-.7-.29-1.06.32-1.44.75-.39.44-.7.96-1.22,1.28-1.37.28-2.5.84-2.87,2.35-2.45,1.41-2.55,1.69-1.41,4.25.88-1.13.6-2.84,1.96-3.57.78-.34,1.57-.67,2.38-.95.78-.05,1.51.06,2.07.67-1.1,1.48-1.45,3.62-3.64,4.13.96.99-.29,2.38.62,3.43,1.21-.28.49-1.99,1.67-2.27.39.13,1.08.2,1.12.4.39,1.89,1.56,3.44,2.18,5.21.28.81.35,1.74-.43,2.39-.55.46-1.11.38-1.54-.24-.38-.44.06-1.18-.57-1.58-.36.75-.16,1.45.08,2.15-.93,1.27-1.59,3.22-3.71,1.45-.49-.25,0-2.04-1.39-.88-1.42-.21-2.64.48-3.95.8-1.31.32-2.41-.17-2.83-1.49-.37-1.17.47-1.46,1.46-1.45.39-1.96.84-3.93-.52-5.73,1.1-2.14.67-2.95-1.67-3.12-1.12-.08-2.64.43-2.48-1.62.44-.23.96-.41,1.15-.92.36-.97.64-2.18-.19-2.83-1.21-.93-1.24.93-2.02,1.19-.77.08-1-.54-1.33-1.03-1.8-1.28-.97-3.72-2.3-5.21-.58-1.12-1.26-2.21-1.04-3.56.15-.42,1.14.41.91-.64-.89-4.21-.53-8.56-1.33-12.83-1.7.59-.19,3.16-2.22,3.48-.18.28-.42.84-.54.81-3.75-.79-3.55,3.51-5.88,4.54-.96.42-.85,1.42-.85,2.29,0,2.34,0,4.69-.02,7.03,0,.77.24,1.65-.32,2.27-.99,1.12-.89,2.17-.08,3.28.51.69.39,1.48.37,2.26-1.58-1.05-2.34-2.5-2.12-4.42.12-1.05.03-2.07-.48-3.03-.12-.23-.32-.54-.25-.72,1.32-3.29-.24-7.34,2.65-10.21,1.25-1.24,1.08-3.38,2.69-4.33,3.15-1.85,5.17-5.3,8.97-6.27.77-.2,1.37-1.02,2.06-1.52,1.68-1.22,3.13-3.16,5.65-1.88.07.04.22.06.25.03,2.78-3.14,6.72-.91,9.91-2.14,1.17-.45,2.41-.7,3.49.06,1.36.96,2.75.77,4.19.46.57-.3,1.65-.24,1.52.12-.57,1.64.72,3.57-.8,5.02-1.22.62-2.05,1.47-2.11,2.97-.06,1.76-1.14,3.23-1.52,4.91q3.14.6,4.07-2.57c.39-1.32.8-2.63,1.43-3.87.46-1.02.74-2.1.57-3.19-.25-1.68.54-2.29,2.06-2.34.84-.03,1.68-.05,2.52-.08,1.38-.42,1.94-.04,1.65,1.49-.13.72-.83,2,.56,2.05,1.34.05,1.08-1.25,1-2.18-.03-.41-.28-.83.04-1.23.04-.05.13-.09.19-.09.08,0,.16.05.25.08,1.54.89,2.62,2.5,4.51,2.87.37.07.86.47.95.81.71,2.75,3.05,5.05,3.3,7.63.42,4.36,1.59,9.09-1.61,13.11-.47-.51-.55-1.23-.29-1.7,1.77-3.25.63-6.76.98-10.12.12-1.12-.31-1.95-1.03-2.78-.72-.83-1.51-1.3-2.45-.66-.96.65-.83,1.49-.11,2.42.51.67,1.27,1.49.44,2.49-.92-.12-1.9.09-2.73-.53-.23-.58-.02-1.19-.16-1.77-.15-.62-.51-1.14-1.2-1.13-.73.01-.58.71-.68,1.17-.08.33-.18.65-.32.97q-.99,2.2,1.66,2.69c1.18.59.56,1.64.67,2.88.64-1.57.71-3.37,2.76-3.24.98,3.81-1.94,6.27-3.25,9.27-.42.97-1.05.3-1.26-.26-.3-.77-.14-1.84-1.47-1.67-1.15-.57-.31-1.52-.41-2.28-.08-.59-.34-.97-.91-1.08-.45-.09-.87.06-1.15.42-.37.46-.28.93.04,1.41.43.66,1.55.96,1.13,2.08-1.66,1.12-2.13-1.64-3.61-1.11-.9-.98.4-2.63-1.05-3.44-.77-.32-1.58-1.07-2.35-.23-.78.84-.38,1.76.24,2.57.26.34.5.7.51,1.16Z"/><path class="cls-32" d="M40.4,5.65c.21-.25.43-.5.64-.75-1.76-.8-.67-1.81-.17-2.73.69-1.26-.2-1.18-.97-1.23,2.02-1.03,3.76-.68,5.22,1.04-1.28.72-1.39,1.8-1.38,3.18,0,.77.09,1.89-.71,2.58-.79-.8-2.1-.96-2.62-2.1Z"/><path class="cls-38" d="M51.33,2.02c.06,1.08.82,2.08.06,3.27-.48.76-.62,1.67-1.79,1.06-.8-.42-2.17-.47-1.14-2.07.14-.22,1.59-2.36-.82-2.36,1.25-.68,2.49-.88,3.69.11Z"/><path class="cls-21" d="M10.17,12.44c.99-.9.32-2.16.7-3.19.31-.83.85-1.73,1.74-1.74,1.21-.01.76,1.17.78,1.82.21,4.9.36,9.81,1.39,14.73-1.11-.18-.96-1.6-1.99-1.63-2.05.08-2.11-1.73-2.51-2.93-.62-1.84,1.03-2.65,3.05-3.95-3.46.39-3.28-1.38-3.18-3.11Z"/><path class="cls-20" d="M36.24,24.87c-1.16-.37-2.8-.22-2.4-2.25.51-2.65,2.79-5.58,4.12-5.09.88.32,1.67,1.23,1.24,2.49-.45,1.3-.87,2.6-1.3,3.91-.55.32-1.11.63-1.66.95Z"/><path class="cls-2" d="M31.98,30.16c.69-1.19,1.05-3.36,2.87-2.56,2.43,1.07.65,3.03.23,4.62-.31.33-.63.66-.94.98-.75.14-1.43-.04-2.05-.46-.79-.83-.71-1.69-.11-2.58Z"/><path class="cls-12" d="M13.85,25.99c1.12-.16,1.46.41,1.57,1.46.13,1.26.48,2.5.73,3.76-.21.68,0,1.64-1.2,1.61-.87-.02-1.15-.65-1.42-1.28-.36-.85-.73-1.71-1-2.59-.39-1.32-.24-2.47,1.32-2.95Z"/><path class="cls-17" d="M42.49,23.95c-.75-.84-2.16-1.18-2-2.7.24-2.31,1.05-2.6,4.01-1.41,1.01,1.67.37,2.92-1.02,3.98-.33.05-.66.09-.99.14Z"/><path class="cls-33" d="M48.74,24.99c-.22-.74-.88-.98-1.47-1.32-1.04-.58-1.04-1.4-.56-2.4.67-1.39,1.77-1.13,2.84-.78.99.32,1.18,1.01.81,2.02-.21.58-.78,1.19-.32,1.92-.44.18-.87.37-1.31.55Z"/><path class="cls-24" d="M56.03,17.1c-1.23.82-1.83,2.02-2.07,3.43-.1.58-.09,1.33-.96,1.15-.78-.16-.6-.91-.66-1.48-.09-.85,1.19-1.67.07-2.55-.36-1.09.08-1.77,1.1-2.15.87.04,1.98-.96,2.52.57,0,.34,0,.68,0,1.02Z"/><path class="cls-13" d="M17.48,32.23c.1-.5.21-1,.31-1.5.2-1.08,1.19-.88,1.83-.95.8-.08.8.74.84,1.32.05.94.09,1.89.04,2.83-.09,1.47-.92,1.42-1.94.86-.36-.85-.71-1.7-1.07-2.55Z"/><path class="cls-6" d="M38.85,31.73c-1.32-1.24-.73-2.71-.51-4.14,1.34.37,2.31,1.78,4.04,1.38-1.29.92-1.06,3.52-3.52,2.76Z"/><path class="cls-22" d="M32.79,38.49c-.34,1.28.17,3.61-1.67,3.35-2.2-.3-.95-2.38-.76-3.77.03-.25.09-.5.14-.75.93.05,1.92,0,2.29,1.16Z"/><path class="cls-8" d="M22.69,39.52c2,.58,2.27,3.64.52,5.73-.33-.71-.65-1.43-.98-2.14-.96-1-.84-2.03-.07-3.07.18-.17.36-.35.53-.52Z"/><path class="cls-37" d="M35.61,36.83c.31-.6-.46-1.97,1.05-1.73.73.11,1.88.45,1.5,1.64-.29.89-.27,2.34-1.67,2.22-1.21-.1-.75-1.31-.87-2.13Z"/><path class="cls-3" d="M41.05,35.09c.14-1.3,1.24-1.48,2.18-1.77.32-.1.73.19.61.58-.3.97-.64,2.04-1.71,2.33-.63.17-1.02-.46-1.08-1.14Z"/><path class="cls-10" d="M17.12,41.06c-1.38-1.36-1.05-2.96-1.49-4.3-.11-.34.03-.68.46-.77.42-.08.75.17.75.5-.01,1.44,1.04,2.78.28,4.57Z"/><path class="cls-35" d="M21.33,43.25c-.22.43-.59,1.24-1.01.59-.8-1.25-.85-2.79-.66-4.27.02-.16.38-.43.52-.39.72.2.38,1.09.9,1.46.8.8.61,1.7.25,2.62Z"/><path class="cls-31" d="M33.64,46.82c-.14-.09-.32-.15-.43-.27-.87-.92-1.01-1.93-.22-2.96.29-.38.77-.4,1.12-.08.96.89.55,1.82,0,2.74-.16.19-.33.38-.49.57Z"/><path class="cls-9" d="M43.47,23.81c.26-1.35,1.53-2.43,1.02-3.98,1.89,1.08.84,2.63.64,4.05-.61,1.42-1.13.44-1.66-.07Z"/><path class="cls-1" d="M28.54,47.38c.85-.59.01-2.89,1.57-2.28,1.31.52-.32,2.05-.18,3.16-1.15.78-1.4.16-1.39-.89Z"/><path class="cls-27" d="M37.59,42.1c-.01-.93.68-1.27,1.44-1.48.51-.14.89.17.83.66-.1.8-.54,1.53-1.28,1.8-.62.22-.82-.43-.98-.98Z"/><path class="cls-15" d="M21.33,43.25c-.08-.87-.17-1.74-.25-2.62.03-.81.43-.93,1.09-.59.02,1.02.05,2.05.07,3.07-.06.24-.13.47-.2.71-.24-.19-.48-.38-.71-.58Z"/><path class="cls-14" d="M44.25,29.59c.15-.55.47-.94,1.06-.82.43.09.75.43.68.93-.08.57-.45.95-1.03.81-.4-.09-.72-.42-.71-.92Z"/><path class="cls-34" d="M23.86,4.71c.52-.34,1.04-.67,1.56-1.01,1.26,0,1.87-1,2.7-1.89.8.75.61,1.53.38,2.33-1.55,7.08-2.65,14.22-3.26,21.45-.07.79.09,1.97-1.21,1.89-.94-.06-1.85-.48-2.23-1.53-.76-2.12.19-5.18,2.11-6.66.59-.46.91-1.03.86-1.79-.03-.47-.16-.84-.71-.9-.76-.08-1.88.47-1.86-1.03.02-1.31.04-2.63,1.17-3.57.26-.22.63-.29.91-.49.66-.45,2.45.41,1.96-1.15-.4-1.26-1.61.02-2.47.06-1.68-1.08-.67-2.58-.52-3.89.07-.59.52-1.17.61-1.83Z"/><path class="cls-23" d="M16.06,11.54c-.27-2.95,1.04-5.3,2.37-7.63.36-.63,1.04-.95,1.8-.7.61.2.57.66.49,1.25-.99,7.3-1.3,14.63-.7,21.99.05.62.5,1.55-.36,1.84-.89.3-1.01-.74-1.38-1.26-1.15-1.64-1.89-3.47-2.2-5.44-.29-1.81-.63-3.61,1.79-4.5,1.14-.42.89-2.97-.25-2.99-2.29-.05-1.63-1.44-1.56-2.54Z"/><path class="cls-19" d="M26.89,27.28c-.02-1.07.26-1.86,1.53-1.95,1.47-.1,2.29-.93,2.71-2.35.32-1.08.49-1.81-1.05-1.76-1.51.05-1.82-.93-1.75-2.24.09-1.79,1.11-3.25,1.6-4.9.24-.81,1.14-1.15,1.91-.89.91.31,1.78.97,1.57,2.09-.78,4.14-1.58,8.29-2.53,12.39-.26,1.14-1.39,1.88-2.6,1.75-1.1-.12-1.47-1.07-1.39-2.14Z"/><path class="cls-5" d="M40.4,5.65c.85.74,2.86.01,2.62,2.1-.69,1.77-1.47,3.52-1.72,5.43-.25,1.9-1.22,2.55-3,1.82-.8-.33-1.5-.32-2.34.23.4-2.82,2.27-5.14,2.04-8.06-.11-1.35,1.73-.77,2.4-1.53Z"/><path class="cls-29" d="M43.66,12.7c.43-3.34,2.19-4.81,4.63-3.98.89.3,1.09.66.79,1.48-.33.89-.61,1.79-.92,2.68-.25.72-.38,1.58-1.42,1.56-1.17-.02-2.02-.84-3.04-1.26-.07-.03-.03-.32-.04-.48Z"/><path class="cls-30" d="M29.64,11.57c-.69-2.61,1.14-3.51,2.64-4.69.75-.59,1.28-.2,1.88.07.68.3,1.13.76.89,1.62-.5,1.79-.31,4.31-3.51,2.94-.49-.21-1.18.03-1.9.07Z"/><path class="cls-18" d="M53.52,15.51c-.37.72-.73,1.43-1.1,2.15-1.58,1.87-2.1-.73-3.26-.9-.74-.11.25-1.04.63-1.52.36-.45,1.03-.65.99-1.4-.05-.92-1.17-2.5,1.08-2.14,1.66.27,2.55,1.3,2,3.12-.07.24-.23.46-.34.69Z"/><path class="cls-25" d="M31.24,4.25c1.44-.98,1.35-4.5,4.13-2.7,1.04.67,1.41,2.5.51,3.6-1.78,2.17-2.93-.96-4.64-.9Z"/><path class="cls-26" d="M24.86,32.27c-.04.74-.01,1.36-.12,1.94-.15.82-.65,1.48-1.5,1.52-.99.05-1.25-.82-1.35-1.59-.13-1.01-.21-2.06-.11-3.07.14-1.37,1.53-1.2,2.24-1.13,1.64.17.45,1.65.84,2.32Z"/><path class="cls-16" d="M29.87,33.76c-.85.87-.78,2.03-.99,3.11-.11.6-.4,1.21-1.09,1.26-.78.05-1.22-.52-1.48-1.19-.89-2.34.16-4.04,2.63-4.27.96-.19,1.61-.11.93,1.09Z"/><path class="cls-7" d="M52.38,8.39c.65-1.17,1.32-2.12,2.42-2.43.84-.23,1.66.47,1.62,1.22-.05.95-.44,2.29-1.45,2.41-.8.1-1.71-.76-2.59-1.21Z"/><path class="cls-11" d="M29.87,33.76c.03-.66-.34-.96-.93-1.09-.48-2.63,1.2-2.67,3.03-2.51.04.86.07,1.72.11,2.58-.44,1-1.27,1.13-2.22,1.02Z"/><path class="cls-36" d="M43.82,16.03c.98.19,2.24.2,2.26,1.76,0,.61-.49,1.47-1.04.96-.92-.86-2.88.06-3.03-1.73-.09-1.08.93-1,1.81-.99Z"/><path class="cls-4" d="M26.89,42.16c1.05.08,1.12.84.84,1.47-.33.74.06,2.18-1.4,2.01-.98-.11-.91-1.09-.95-1.85-.04-1.05.5-1.57,1.5-1.63Z"/><path class="cls-28" d="M28.49,4.14c-.06-.49-.11-.99-.26-2.2-.38,2.5-1.55,2.26-2.82,1.76.35-.7.54-1.6,1.1-2.04.41-.33,1.48-.32,1.92,0,.92.66.58,1.63.05,2.48Z"/><path class="cls-28" d="M23.86,4.71c-.37.54,1.68.02.42,1.11-1.49,1.28-1.39,2.96-.5,4.61-.41.33-.93.35-.96-.2-.11-1.91-.5-3.91,1.05-5.52Z"/></svg>