<svg width="1000" height="1000" viewBox="0 0 1000 1000" fill="none" xmlns="http://www.w3.org/2000/svg">
<path fill-rule="evenodd" clip-rule="evenodd" d="M214.706 0.702637C157.941 0.702633 103.5 23.2468 63.3537 63.3779C23.2072 103.509 0.64216 157.942 0.620361 214.706V785.602C0.620361 842.381 23.1758 896.835 63.3247 936.984C103.474 977.133 157.927 999.688 214.706 999.688H785.602C842.367 999.667 896.8 977.102 936.931 936.955C977.062 896.808 999.606 842.367 999.606 785.602V214.706C999.584 157.956 977.03 103.536 936.902 63.4069C896.773 23.2782 842.353 0.724426 785.602 0.702637H214.706ZM847.181 215.035C847.181 231.389 840.684 247.072 829.121 258.636C817.557 270.2 801.874 276.696 785.52 276.696C769.167 276.696 753.483 270.2 741.919 258.636C730.356 247.072 723.859 231.389 723.859 215.035C723.859 198.682 730.356 182.998 741.919 171.435C753.483 159.871 769.167 153.375 785.52 153.375C801.874 153.375 817.557 159.871 829.121 171.435C840.684 182.998 847.181 198.682 847.181 215.035ZM500.237 329.149C454.883 329.149 411.387 347.165 379.317 379.235C347.247 411.305 329.231 454.801 329.231 500.154C329.231 545.508 347.247 589.004 379.317 621.074C411.387 653.143 454.883 671.16 500.237 671.16C545.59 671.16 589.086 653.143 621.156 621.074C653.226 589.004 671.242 545.508 671.242 500.154C671.242 454.801 653.226 411.305 621.156 379.235C589.086 347.165 545.59 329.149 500.237 329.149ZM246.934 500.154C246.934 432.996 273.613 368.589 321.101 321.101C368.589 273.613 432.996 246.934 500.154 246.934C567.312 246.934 631.72 273.613 679.208 321.101C726.696 368.589 753.374 432.996 753.374 500.154C753.374 567.312 726.696 631.72 679.208 679.208C631.72 726.696 567.312 753.374 500.154 753.374C432.996 753.374 368.589 726.696 321.101 679.208C273.613 631.72 246.934 567.312 246.934 500.154Z" fill="#4C71A0"/>
</svg>
