<svg width="1000" height="1000" viewBox="0 0 1000 1000" fill="none" xmlns="http://www.w3.org/2000/svg">
<path d="M960 0H40C17.875 0 0 17.875 0 40V960C0 982.125 17.875 1000 40 1000H960C982.125 1000 1000 982.125 1000 960V40C1000 17.875 982.125 0 960 0ZM296.625 852.125H148.25V374.875H296.625V852.125ZM222.5 309.625C205.491 309.625 188.864 304.581 174.721 295.131C160.578 285.682 149.555 272.25 143.046 256.536C136.537 240.821 134.834 223.53 138.152 206.847C141.471 190.165 149.662 174.841 161.689 162.814C173.716 150.786 189.04 142.596 205.722 139.277C222.405 135.959 239.696 137.662 255.411 144.171C271.125 150.68 284.557 161.703 294.006 175.846C303.456 189.989 308.5 206.616 308.5 223.625C308.375 271.125 269.875 309.625 222.5 309.625ZM852.125 852.125H703.875V620C703.875 564.625 702.875 493.5 626.75 493.5C549.625 493.5 537.75 553.75 537.75 616V852.125H389.625V374.875H531.875V440.125H533.875C553.625 402.625 602 363 674.25 363C824.5 363 852.125 461.875 852.125 590.375V852.125Z" fill="#4C71A0"/>
</svg>
