<svg width="463" height="463" viewBox="0 0 463 463" fill="none" xmlns="http://www.w3.org/2000/svg">
<g clip-path="url(#clip0_39_17)">
<path d="M450.428 5.06325C459.561 11.3933 464.354 22.3353 462.636 33.2773L404.761 409.465C403.405 418.236 398.069 425.923 390.292 430.264C382.515 434.604 373.201 435.147 364.972 431.71L256.818 386.767L194.874 453.775C186.825 462.547 174.165 465.441 163.042 461.1C151.92 456.76 144.685 445.998 144.685 434.062V358.462C144.685 354.845 146.042 351.409 148.483 348.786L300.043 183.391C305.288 177.694 305.107 168.922 299.682 163.496C294.256 158.07 285.484 157.709 279.787 162.863L95.8532 326.269L16.0038 286.3C6.41827 281.507 0.26905 271.921 -0.00223897 261.251C-0.273528 250.58 5.33311 240.633 14.5569 235.297L419.682 3.79723C429.358 -1.71898 441.295 -1.1764 450.428 5.06325Z" fill="#4C71A0"/>
</g>
<defs>
<clipPath id="clip0_39_17">
<rect width="463" height="463" fill="white"/>
</clipPath>
</defs>
</svg>
